<svg width="86" height="83" viewBox="0 0 86 83" fill="none" xmlns="http://www.w3.org/2000/svg">
<path d="M11.272 20.216C13.192 17.912 15.304 15.992 17.608 14.456C19.912 12.856 22.344 11.608 24.904 10.712C27.464 9.816 30.12 9.176 32.872 8.792C35.688 8.408 38.536 8.216 41.416 8.216C44.04 8.216 46.792 8.536 49.672 9.17599C52.616 9.816 55.304 10.84 57.736 12.248C60.232 13.592 62.28 15.384 63.88 17.624C65.48 19.864 66.28 22.552 66.28 25.688C66.28 30.36 65.096 34.488 62.728 38.072C60.424 41.592 57.48 44.728 53.896 47.48C50.376 50.232 46.536 52.6 42.376 54.584C38.216 56.568 34.312 58.328 30.664 59.864H68.776V65.72H8.488V60.44C11.24 59.992 14.408 59.32 17.992 58.424C21.64 57.464 25.384 56.312 29.224 54.968C33.128 53.56 36.936 51.928 40.648 50.072C44.424 48.152 47.784 46.008 50.728 43.64C53.672 41.208 56.04 38.552 57.832 35.672C59.688 32.728 60.616 29.528 60.616 26.072C60.616 23.384 59.848 21.272 58.312 19.736C56.84 18.136 54.984 16.92 52.744 16.088C50.568 15.192 48.232 14.616 45.736 14.36C43.24 14.104 41 13.976 39.016 13.976C34.792 13.976 30.696 14.84 26.728 16.568C22.824 18.232 19.528 20.696 16.84 23.96L11.272 20.216ZM17.992 31.256C20.68 27.352 23.816 24.408 27.4 22.424C31.048 20.376 35.24 19.352 39.976 19.352C41 19.352 42.376 19.416 44.104 19.544C45.832 19.672 47.496 19.992 49.096 20.504C50.76 20.952 52.2 21.624 53.416 22.52C54.632 23.352 55.24 24.536 55.24 26.072C55.24 29.016 54.28 31.768 52.36 34.328C50.44 36.888 47.944 39.256 44.872 41.432C41.864 43.544 38.44 45.432 34.6 47.096C30.76 48.76 26.92 50.2 23.08 51.416C19.24 52.632 15.56 53.592 12.04 54.296C8.52 55 5.576 55.448 3.208 55.64V71.096H74.056V54.488H52.552C55.24 53.016 57.736 51.288 60.04 49.304C62.408 47.32 64.424 45.112 66.088 42.68C67.816 40.184 69.16 37.528 70.12 34.712C71.144 31.896 71.656 28.888 71.656 25.688C71.656 21.272 70.632 17.592 68.584 14.648C66.536 11.704 63.912 9.368 60.712 7.64C57.576 5.912 54.056 4.696 50.152 3.992C46.312 3.224 42.6 2.84 39.016 2.84C35.496 2.84 32.04 3.288 28.648 4.184C25.32 5.016 22.12 6.232 19.048 7.832C16.04 9.432 13.224 11.384 10.6 13.688C7.976 15.992 5.704 18.584 3.784 21.464L17.992 31.256ZM0.808 73.496V53.432C2.92 53.304 5.48 52.952 8.488 52.376C11.56 51.8 14.792 51.064 18.184 50.168C21.576 49.272 25 48.184 28.456 46.904C31.976 45.624 35.24 44.184 38.248 42.584C41.32 40.984 44.008 39.256 46.312 37.4C48.68 35.48 50.44 33.4 51.592 31.16C51.208 31.096 50.824 31.064 50.44 31.064C50.12 31.064 49.832 31.064 49.576 31.064C45.224 31.064 41.288 32.152 37.768 34.328C34.248 36.44 31.048 39.576 28.168 43.736L10.504 31.64L0.52 22.136C2.76 18.808 5.32 15.8 8.2 13.112C11.144 10.424 14.28 8.152 17.608 6.296C20.936 4.376 24.392 2.936 27.976 1.976C31.624 0.951998 35.304 0.439999 39.016 0.439999C41.768 0.439999 44.616 0.663998 47.56 1.112C50.504 1.49599 53.352 2.168 56.104 3.128C58.92 4.024 61.544 5.176 63.976 6.584C66.408 7.992 68.52 9.688 70.312 11.672C73 14.36 75.176 16.792 76.84 18.968C78.568 21.144 79.912 23.16 80.872 25.016C81.832 26.872 82.472 28.632 82.792 30.296C83.176 31.96 83.368 33.624 83.368 35.288C83.368 38.744 82.824 42.008 81.736 45.08C80.648 48.088 79.176 50.936 77.32 53.624L85.768 61.976V82.808H10.696L0.808 73.496Z" fill="#7D7D7D"/>
</svg>
