<svg width="87" height="84" viewBox="0 0 87 84" fill="none" xmlns="http://www.w3.org/2000/svg">
<path d="M16.648 50.84C18.44 53.08 20.296 54.872 22.216 56.216C24.2 57.496 26.28 58.488 28.456 59.192C30.696 59.832 33 60.248 35.368 60.44C37.8 60.632 40.328 60.728 42.952 60.728C44.68 60.728 46.696 60.568 49 60.248C51.304 59.864 53.48 59.256 55.528 58.424C57.64 57.528 59.4 56.344 60.808 54.872C62.28 53.336 63.016 51.448 63.016 49.208C63.016 47.672 62.6 46.392 61.768 45.368C60.936 44.28 59.848 43.384 58.504 42.68C57.224 41.976 55.752 41.464 54.088 41.144C52.488 40.76 50.856 40.504 49.192 40.376C47.528 40.184 45.928 40.088 44.392 40.088C42.856 40.024 41.576 39.992 40.552 39.992V34.328C42.024 34.328 43.88 34.264 46.12 34.136C48.424 34.008 50.664 33.624 52.84 32.984C55.016 32.344 56.872 31.448 58.408 30.296C59.944 29.08 60.712 27.416 60.712 25.304C60.712 22.872 59.912 20.92 58.312 19.448C56.712 17.976 54.76 16.856 52.456 16.088C50.152 15.256 47.752 14.712 45.256 14.456C42.76 14.2 40.648 14.072 38.92 14.072C34.696 14.072 30.6 14.904 26.632 16.568C22.728 18.232 19.4 20.728 16.648 24.056C15.752 23.48 14.856 22.904 13.96 22.328C13.064 21.688 12.168 21.112 11.272 20.6C13.192 18.04 15.304 15.96 17.608 14.36C19.976 12.696 22.472 11.416 25.096 10.52C27.72 9.62399 30.472 9.016 33.352 8.696C36.232 8.376 39.176 8.216 42.184 8.216C44.68 8.216 47.368 8.536 50.248 9.17599C53.128 9.816 55.784 10.84 58.216 12.248C60.712 13.592 62.76 15.352 64.36 17.528C65.96 19.64 66.76 22.232 66.76 25.304C66.76 27.032 66.312 28.568 65.416 29.912C64.52 31.256 63.4 32.408 62.056 33.368C60.712 34.328 59.208 35.096 57.544 35.672C55.944 36.184 54.408 36.472 52.936 36.536C54.6 36.728 56.392 37.112 58.312 37.688C60.232 38.264 61.992 39.096 63.592 40.184C65.192 41.208 66.504 42.488 67.528 44.024C68.616 45.496 69.16 47.224 69.16 49.208C69.16 53.048 68.104 56.12 65.992 58.424C63.944 60.728 61.384 62.488 58.312 63.704C55.24 64.92 51.944 65.72 48.424 66.104C44.904 66.424 41.736 66.584 38.92 66.584C36.296 66.584 33.672 66.36 31.048 65.912C28.488 65.4 25.992 64.632 23.56 63.608C21.192 62.584 18.952 61.304 16.84 59.768C14.792 58.168 12.968 56.312 11.368 54.2L16.648 50.84ZM3.976 52.856C6.472 56.696 9.192 59.864 12.136 62.36C15.08 64.792 18.216 66.712 21.544 68.12C24.936 69.528 28.552 70.488 32.392 71C36.232 71.576 40.296 71.864 44.584 71.864C47.912 71.864 51.336 71.416 54.856 70.52C58.44 69.624 61.672 68.248 64.552 66.392C67.432 64.536 69.8 62.2 71.656 59.384C73.512 56.504 74.44 53.112 74.44 49.208C74.44 47.928 74.184 46.648 73.672 45.368C73.16 44.088 72.488 42.872 71.656 41.72C70.824 40.568 69.864 39.544 68.776 38.648C67.752 37.752 66.696 37.016 65.608 36.44C66.504 36.056 67.336 35.448 68.104 34.616C68.936 33.784 69.64 32.856 70.216 31.832C70.792 30.744 71.24 29.656 71.56 28.568C71.944 27.416 72.136 26.328 72.136 25.304C72.136 22.36 71.624 19.768 70.6 17.528C69.64 15.224 68.328 13.24 66.664 11.576C65 9.912 63.048 8.536 60.808 7.44799C58.632 6.36 56.296 5.496 53.8 4.856C51.368 4.152 48.872 3.672 46.312 3.41599C43.752 3.09599 41.288 2.936 38.92 2.936C31.752 2.936 25.096 4.6 18.952 7.928C12.808 11.256 7.784 15.928 3.88 21.944L17.992 31.352C20.744 27.128 23.976 24.088 27.688 22.232C31.464 20.312 35.816 19.352 40.744 19.352C41.576 19.352 42.824 19.416 44.488 19.544C46.152 19.672 47.784 19.96 49.384 20.408C51.048 20.856 52.488 21.464 53.704 22.232C54.92 23 55.528 24.024 55.528 25.304C55.528 26.392 54.6 27.192 52.744 27.704C50.952 28.216 48.872 28.568 46.504 28.76C44.136 28.952 41.864 29.048 39.688 29.048C37.512 29.048 36.04 29.048 35.272 29.048V45.272C35.784 45.272 36.68 45.272 37.96 45.272C39.304 45.208 40.808 45.208 42.472 45.272C44.136 45.272 45.864 45.336 47.656 45.464C49.448 45.528 51.08 45.72 52.552 46.04C54.088 46.296 55.336 46.68 56.296 47.192C57.256 47.704 57.736 48.376 57.736 49.208C57.736 50.808 56.936 52.056 55.336 52.952C53.8 53.784 51.976 54.392 49.864 54.776C47.816 55.16 45.736 55.384 43.624 55.448C41.512 55.448 39.944 55.448 38.92 55.448C34.632 55.448 30.664 54.392 27.016 52.28C23.432 50.104 20.456 47.256 18.088 43.736L3.976 52.856ZM18.664 40.472L26.536 48.824C28.392 50.168 30.344 51.224 32.392 51.992C34.44 52.696 36.584 53.048 38.824 53.048L32.872 47.672V38.072C31.976 38.84 31.144 39.736 30.376 40.76C29.608 41.72 28.872 42.744 28.168 43.832L10.6 32.12L0.52 22.616C5.064 15.576 10.696 10.136 17.416 6.296C24.136 2.456 31.304 0.535997 38.92 0.535997C41.736 0.535997 44.616 0.727997 47.56 1.112C50.568 1.49599 53.48 2.136 56.296 3.032C59.176 3.928 61.864 5.112 64.36 6.584C66.856 7.992 69.032 9.752 70.888 11.864C73.576 14.552 75.752 16.952 77.416 19.064C79.144 21.176 80.456 23.128 81.352 24.92C82.312 26.712 82.952 28.44 83.272 30.104C83.656 31.704 83.848 33.304 83.848 34.904C83.848 36.824 83.432 38.68 82.6 40.472C81.768 42.2 80.712 43.768 79.432 45.176L79.816 45.464C81.608 47.256 83.112 49.336 84.328 51.704C85.544 54.008 86.152 56.376 86.152 58.808C86.152 63.096 85.16 66.808 83.176 69.944C81.192 73.016 78.632 75.544 75.496 77.528C72.424 79.576 69 81.08 65.224 82.04C61.448 83.064 57.768 83.576 54.184 83.576C50.6 83.576 47.176 83.384 43.912 83C40.648 82.616 37.48 81.944 34.408 80.984C31.4 80.024 28.52 78.712 25.768 77.048C23.016 75.448 20.392 73.4 17.896 70.904C15.4 68.6 13.256 66.584 11.464 64.856C9.672 63.128 8.104 61.56 6.76 60.152C5.48 58.68 4.328 57.336 3.304 56.12C2.344 54.84 1.448 53.528 0.616 52.184L18.664 40.472Z" fill="#7D7D7D"/>
</svg>
