<svg width="101" height="100" viewBox="0 0 101 100" fill="none" xmlns="http://www.w3.org/2000/svg">
<g clip-path="url(#clip0_157_940)">
<path d="M54.3242 22.6316V43.6842C54.3242 44.5564 55.0312 45.2631 55.9031 45.2631C56.775 45.2631 57.482 44.5564 57.482 43.6842V22.6316C57.482 21.7594 56.775 21.0527 55.9031 21.0527C55.0312 21.0527 54.3242 21.7594 54.3242 22.6316Z" fill="#86B5E8"/>
<path d="M12.6043 61.6141C13.4764 61.6141 14.1832 60.9072 14.1832 60.0352V16.3158C14.1832 13.0826 16.4381 10.368 19.4572 9.65703C19.4508 9.7707 19.4463 9.88477 19.4463 10V53.2279C19.4463 54.1002 20.1533 54.8068 21.0252 54.8068C21.8973 54.8068 22.6041 54.1 22.6041 53.2279V10C22.6041 8.54883 23.7846 7.36836 25.2357 7.36836H36.308C36.2965 7.54238 36.2885 7.71758 36.2885 7.89473C36.2885 12.248 39.8299 15.7895 44.183 15.7893H56.8146C61.168 15.7893 64.7094 12.2479 64.7094 7.89453C64.7094 7.71758 64.7014 7.54238 64.6898 7.36816H75.7621C77.2133 7.36816 78.3938 8.54863 78.3938 9.9998V16.3156C78.3938 17.1879 79.1008 17.8945 79.9727 17.8945C80.8447 17.8945 81.5516 17.1877 81.5516 16.3156V9.9998C81.5516 9.88359 81.5471 9.76855 81.5404 9.6541C84.0199 10.2312 86.0131 12.1512 86.627 14.715C86.8006 15.4396 87.4477 15.9268 88.1613 15.9268C88.283 15.9268 88.4068 15.9127 88.5305 15.883C89.3785 15.6799 89.9012 14.8277 89.6982 13.9799C88.6379 9.55078 84.765 6.43516 80.2297 6.32129C79.167 5.03301 77.559 4.21055 75.7625 4.21055H63.7945C62.4684 1.70879 59.8379 0 56.8148 0H44.1832C41.16 0 38.5297 1.70879 37.2039 4.21055H25.2359C23.4391 4.21055 21.8307 5.03359 20.768 6.32227C15.3729 6.45977 11.0254 10.8881 11.0254 16.3158V60.0352C11.0254 60.9074 11.7322 61.6141 12.6043 61.6141ZM44.1832 3.15781H56.8148C59.4268 3.15781 61.5518 5.28281 61.5518 7.89473C61.5518 10.5064 59.427 12.6316 56.8148 12.6316H44.1832C41.5713 12.6316 39.4463 10.5066 39.4463 7.89473C39.4463 5.28301 41.5713 3.15781 44.1832 3.15781Z" fill="#86B5E8"/>
<path d="M43.0957 33.1578V43.6841C43.0957 44.5564 43.8027 45.263 44.6746 45.263C45.5467 45.263 46.2535 44.5564 46.2535 43.6841V33.1578C46.2535 32.2855 45.5465 31.5789 44.6746 31.5789C43.8025 31.5789 43.0957 32.2857 43.0957 33.1578Z" fill="#86B5E8"/>
<path d="M65.5527 33.1578V39.4736C65.5527 40.3458 66.2598 41.0525 67.1316 41.0525C68.0035 41.0525 68.7105 40.3458 68.7105 39.4736V33.1578C68.7105 32.2855 68.0035 31.5789 67.1316 31.5789C66.2598 31.5789 65.5527 32.2857 65.5527 33.1578Z" fill="#86B5E8"/>
<path d="M46.2535 83.6843V58.4212C46.2535 57.5489 45.5465 56.8423 44.6746 56.8423C43.8025 56.8423 43.0957 57.5491 43.0957 58.4212V83.6843C43.0957 84.5565 43.8027 85.2632 44.6746 85.2632C45.5465 85.2632 46.2535 84.5565 46.2535 83.6843Z" fill="#86B5E8"/>
<path d="M57.482 83.6843V58.4212C57.482 57.5489 56.775 56.8423 55.9031 56.8423C55.0312 56.8423 54.3242 57.5491 54.3242 58.4212V83.6843C54.3242 84.5565 55.0312 85.2632 55.9031 85.2632C56.775 85.2632 57.482 84.5565 57.482 83.6843Z" fill="#86B5E8"/>
<path d="M68.7105 83.6842V62.6316C68.7105 61.7594 68.0035 61.0527 67.1316 61.0527C66.2598 61.0527 65.5527 61.7594 65.5527 62.6316V83.6842C65.5527 84.5564 66.2598 85.2631 67.1316 85.2631C68.0035 85.2631 68.7105 84.5564 68.7105 83.6842Z" fill="#86B5E8"/>
<path d="M35.027 83.6842V62.6316C35.027 61.7594 34.3199 61.0527 33.448 61.0527C32.576 61.0527 31.8691 61.7594 31.8691 62.6316V83.6842C31.8691 84.5564 32.5762 85.2631 33.448 85.2631C34.3199 85.2631 35.027 84.5564 35.027 83.6842Z" fill="#86B5E8"/>
<path d="M88.3947 17.8948C81.7197 17.8948 76.2894 23.325 76.2894 30C76.2894 32.7696 77.2265 35.3227 78.7968 37.3649L70.5003 45.6616C69.8472 45.4055 69.1375 45.2635 68.3947 45.2635C65.7498 45.2635 63.5152 47.0471 62.8259 49.4741H38.174C37.4847 47.0471 35.25 45.2635 32.6052 45.2635C29.4128 45.2635 26.8158 47.8608 26.8158 51.053C26.8158 51.7956 26.958 52.5053 27.2138 53.1584L15.4255 64.9469C14.5904 64.4788 13.6287 64.2108 12.605 64.2108C9.41265 64.2108 6.81558 66.8081 6.81558 70.0002C6.81558 71.0239 7.08374 71.9854 7.55171 72.8208L0.962451 79.41C0.34585 80.0266 0.34585 81.0262 0.962451 81.643C1.27065 81.9512 1.67456 82.1053 2.07886 82.1053C2.48315 82.1053 2.88706 81.9512 3.19526 81.6428L9.78472 75.0534C10.6199 75.5215 11.5816 75.7895 12.6052 75.7895C15.7976 75.7895 18.3947 73.1922 18.3947 70C18.3947 68.9766 18.1267 68.0151 17.6587 67.1795L29.146 55.6922C30.1117 56.4141 31.3093 56.842 32.6052 56.842C35.2501 56.842 37.4847 55.0584 38.174 52.6315H62.8261C63.5154 55.0584 65.7502 56.842 68.3949 56.842C71.5873 56.842 74.1843 54.2448 74.1843 51.0526C74.1843 49.7569 73.7564 48.559 73.0345 47.5934L81.03 39.5977C82.6771 40.8647 84.6576 41.7165 86.8158 41.9989V90C86.8158 93.7729 83.7462 96.8422 79.9736 96.8422H21.0263C17.2537 96.8422 14.1841 93.7729 14.1841 90V79.4737C14.1841 78.6014 13.4771 77.8948 12.6052 77.8948C11.7332 77.8948 11.0263 78.6014 11.0263 79.4737V90C11.0263 95.5139 15.5125 100 21.0263 100H79.9738C85.4876 100 89.9738 95.5139 89.9738 90V41.9991C95.9046 41.2227 100.5 36.1397 100.5 30C100.5 23.325 95.0697 17.8948 88.3947 17.8948ZM12.6052 72.6317C11.1542 72.6317 9.97358 71.4512 9.97358 70C9.97358 68.5489 11.1541 67.3684 12.6052 67.3684C14.0564 67.3684 15.2369 68.5489 15.2369 70C15.2369 71.4512 14.0562 72.6317 12.6052 72.6317ZM32.6052 53.6842C31.1541 53.6842 29.9736 52.5038 29.9736 51.0526C29.9736 49.6014 31.1541 48.4209 32.6052 48.4209C34.0564 48.4209 35.2369 49.6014 35.2369 51.0526C35.2369 52.5038 34.0564 53.6842 32.6052 53.6842ZM68.3947 53.6842C66.9435 53.6842 65.763 52.5038 65.763 51.0526C65.763 49.6014 66.9435 48.4209 68.3947 48.4209C69.8458 48.4209 71.0263 49.6014 71.0263 51.0526C71.0263 52.5038 69.8458 53.6842 68.3947 53.6842ZM88.3947 38.9475C83.4611 38.9475 79.4472 34.9338 79.4472 30.0002C79.4472 25.0666 83.4609 21.0528 88.3947 21.0528C93.3283 21.0528 97.3419 25.0665 97.3419 30.0002C97.3419 34.9336 93.3283 38.9475 88.3947 38.9475Z" fill="#86B5E8"/>
<path d="M88.3949 24.2104C85.2025 24.2104 82.6055 26.8077 82.6055 29.9999C82.6055 33.1921 85.2025 35.7894 88.3949 35.7894C91.5873 35.7894 94.1844 33.1921 94.1844 29.9999C94.1844 26.8077 91.5873 24.2104 88.3949 24.2104ZM88.3949 32.6315C86.9437 32.6315 85.7633 31.4511 85.7633 29.9999C85.7633 28.5487 86.9437 27.3683 88.3949 27.3683C89.8461 27.3683 91.0266 28.5487 91.0266 29.9999C91.0266 31.4511 89.8461 32.6315 88.3949 32.6315Z" fill="#86B5E8"/>
<path d="M21.0262 68.4211C20.1541 68.4211 19.4473 69.1278 19.4473 70V85.7895C19.4473 88.9817 22.0443 91.579 25.2367 91.579H75.7631C78.9555 91.579 81.5525 88.9817 81.5525 85.7895V46C81.5525 45.1278 80.8455 44.4211 79.9736 44.4211C79.1016 44.4211 78.3947 45.1278 78.3947 46V85.7895C78.3947 87.2407 77.2143 88.4211 75.7631 88.4211H25.2367C23.7855 88.4211 22.6051 87.2407 22.6051 85.7895V70C22.6051 69.1278 21.898 68.4211 21.0262 68.4211Z" fill="#86B5E8"/>
</g>
<defs>
<clipPath id="clip0_157_940">
<rect width="100" height="100" fill="white" transform="translate(0.5)"/>
</clipPath>
</defs>
</svg>
