<svg width="100" height="100" viewBox="0 0 100 100" fill="none" xmlns="http://www.w3.org/2000/svg">
<path d="M58.1668 82.8333L51.5002 67.8333C50.8336 66.4999 49.0002 66.4999 48.5002 67.8333L41.8336 82.8333C41.3336 83.9999 42.167 85.1667 43.3336 85.1667H56.667C57.8336 85.1665 58.6668 83.9999 58.1668 82.8333ZM45.8336 81.8333L50.0002 72.6665L54.1668 81.8331H45.8336V81.8333Z" fill="#86B5E8"/>
<path d="M59.9997 98.1667L58.3331 83.3333C58.1665 82.4999 57.4997 81.8333 56.6665 81.8333H43.3331C42.4997 81.8333 41.8331 82.4999 41.6664 83.3333L39.9998 98.1667C39.8332 99.1667 40.6664 100 41.6664 100H58.3331C59.3331 100 60.1663 99.1667 59.9997 98.1667ZM43.4997 96.6667L44.8331 85.1667H55.1665L56.4999 96.6667H43.4997Z" fill="#86B5E8"/>
<path d="M70.0009 58.1666C69.6675 57.1666 68.5009 56.6666 67.6675 57.1666L49.3341 67.1666C48.5007 67.5 48.1675 68.3332 48.5007 69.1666L55.1673 84.1666C55.6673 85.3332 57.3339 85.5 58.0007 84.5L71.3341 66.1666C71.6675 65.8332 71.6675 65.3332 71.6675 64.8332L70.0009 58.1666ZM57.0009 80.1666L52.1675 69.1666L67.1675 61L68.1675 64.8334L57.0009 80.1666Z" fill="#86B5E8"/>
<path d="M95.0002 76.5001C84.5002 70.8335 76.1668 67.6667 68.5002 66.8335H68.3336H67.5002C67.0002 66.8335 66.5002 67.1669 66.1668 67.5001L55.3334 82.5001C55 82.8335 55 83.1667 55 83.6667L56.6666 98.5001C56.8332 99.3335 57.5 100 58.3332 100H98.3332C99.3332 100 99.9998 99.3335 99.9998 98.3335V84.6669C100 81.1667 98.1668 78.0001 95.0002 76.5001ZM96.6668 96.6667H59.8336L58.3336 84.0001L68.3336 70.1667C68.3336 70.1667 83.3336 74.1667 93.5002 79.5001C95.5002 80.5001 96.6668 82.5001 96.6668 84.8335V96.6667Z" fill="#86B5E8"/>
<path d="M44.6666 82.5001L33.8332 67.5001C33.4998 67.0001 32.9998 66.8335 32.4998 66.8335H31.6664H31.4998C23.9998 67.6669 15.6664 70.8335 4.9998 76.5001C2 78.1667 0 81.3335 0 84.6667V98.3333C0 99.3335 0.666602 100 1.6666 100H41.6666C42.5 100 43.1666 99.3335 43.3332 98.5001L44.9998 83.6667C45 83.3335 45 82.8335 44.6666 82.5001ZM40.1666 96.6667H3.3334V84.6667C3.3334 82.5001 4.5 80.5001 6.5 79.3333C16.6666 73.9999 24.5 70.9999 31.6666 69.9999C31.6666 70.1665 41.6666 83.9999 41.6666 83.9999L40.1666 96.6667Z" fill="#86B5E8"/>
<path d="M50.0006 0C38.0006 0 28.334 9.6666 28.334 21.6666C28.334 33.6666 38.0006 43.3334 50.0006 43.3334C62.0006 43.3334 71.6672 33.6668 71.6672 21.6668C71.6672 9.6668 62.0006 0 50.0006 0ZM50.0006 40C39.834 40 31.6672 31.8334 31.6672 21.6666C31.6672 11.4998 39.834 3.3334 50.0006 3.3334C60.1672 3.3334 68.334 11.5 68.334 21.6668C68.334 31.8336 60.1672 40 50.0006 40Z" fill="#86B5E8"/>
<path d="M59.3342 37.8335C56.3342 39.3335 53.1676 40.0001 50.0008 40.0001C46.834 40.0001 43.6674 39.3335 40.6674 37.8335L38.334 36.8335V53.3335H61.6674V36.8335L59.3342 37.8335ZM58.3342 50.0001H41.6676V41.8335C44.3342 42.8335 47.1676 43.3335 50.001 43.3335C52.8344 43.3335 55.6676 42.8335 58.3344 41.8335V50.0001H58.3342Z" fill="#86B5E8"/>
<path d="M50.8343 67.0001L32.5009 57.0001C31.5009 56.5001 30.3343 57.0001 30.1675 58.0001L28.5009 64.6667C28.3343 65.1667 28.5009 65.6667 28.8343 66.0001L42.1677 84.3335C43.0011 85.3335 44.5011 85.1669 45.0011 84.0001L51.5011 69.1667C51.8343 68.3335 51.5009 67.5001 50.8343 67.0001ZM43.0009 80.1667L31.8343 64.8333L32.8343 60.9999L48.0009 69.1665L43.0009 80.1667Z" fill="#86B5E8"/>
<path d="M40.0006 16.6665C39.0006 16.6665 38.334 17.3331 38.334 18.3331C38.334 19.3331 39.0006 19.9997 40.0006 19.9997C42.834 19.9997 45.0006 22.1663 45.0006 24.9997V39.9997C45.0006 40.9997 45.6672 41.6663 46.6672 41.6663C47.6672 41.6663 48.3338 40.9997 48.3338 39.9997V24.9999C48.334 20.3333 44.6672 16.6665 40.0006 16.6665Z" fill="#86B5E8"/>
<path d="M59.9994 16.6665C55.3328 16.6665 51.666 20.3331 51.666 24.9999V39.9999C51.666 40.9999 52.3326 41.6665 53.3326 41.6665C54.3326 41.6665 54.9992 40.9999 54.9992 39.9999V24.9999C54.9992 22.1665 57.1658 19.9999 59.9992 19.9999C60.9992 19.9999 61.6658 19.3333 61.6658 18.3333C61.666 17.3333 60.9994 16.6665 59.9994 16.6665Z" fill="#86B5E8"/>
<path d="M56.666 28.3335H43.3326C42.3326 28.3335 41.666 29.0001 41.666 30.0001C41.666 31.0001 42.3326 31.6667 43.3326 31.6667H56.666C57.666 31.6667 58.3326 31.0001 58.3326 30.0001C58.3328 29.0001 57.666 28.3335 56.666 28.3335Z" fill="#86B5E8"/>
</svg>
