<svg width="405" height="423" viewBox="0 0 405 423" fill="none" xmlns="http://www.w3.org/2000/svg">
<path d="M282.499 51.6007L281.723 52.4136L334.964 102.968L335.74 102.156L282.499 51.6007Z" fill="#838383"/>
<path d="M335.825 96.6736L334.701 96.7415L335.04 102.265L329.491 102.198L329.479 103.321L336.237 103.401L335.825 96.6736Z" fill="#838383"/>
<path d="M287.984 51.2474L287.972 52.3701L282.424 52.3036L282.764 57.8268L281.639 57.8946L281.228 51.1669L287.984 51.2474Z" fill="#838383"/>
<path d="M308.731 83.4569C312.149 83.4569 314.92 80.6934 314.92 77.2845C314.92 73.8756 312.149 71.1122 308.731 71.1122C305.313 71.1122 302.543 73.8756 302.543 77.2845C302.543 80.6934 305.313 83.4569 308.731 83.4569Z" fill="#838383"/>
<path d="M123.626 51.6007L70.3855 102.156L71.1615 102.969L124.402 52.4136L123.626 51.6007Z" fill="#838383"/>
<path d="M69.8887 103.401L76.6463 103.321L76.6335 102.198L71.0856 102.265L71.4249 96.7415L70.3007 96.6736L69.8887 103.401Z" fill="#838383"/>
<path d="M124.898 51.1669L124.486 57.8946L123.362 57.8268L123.701 52.3036L118.153 52.3701L118.141 51.2474L124.898 51.1669Z" fill="#838383"/>
<path d="M97.3938 83.4569C100.812 83.4569 103.582 80.6934 103.582 77.2845C103.582 73.8756 100.812 71.1122 97.3938 71.1122C93.9759 71.1122 91.2051 73.8756 91.2051 77.2845C91.2051 80.6934 93.9759 83.4569 97.3938 83.4569Z" fill="#838383"/>
<path d="M249.196 127.936H155.804C154.461 127.934 153.174 127.402 152.225 126.455C151.276 125.508 150.742 124.225 150.74 122.886V5.0501C150.742 3.7112 151.276 2.42758 152.225 1.48083C153.174 0.534081 154.461 0.00152474 155.804 0H249.196C250.539 0.00152474 251.826 0.534081 252.775 1.48083C253.724 2.42758 254.258 3.7112 254.26 5.0501V122.886C254.258 124.225 253.724 125.508 252.775 126.455C251.826 127.402 250.539 127.934 249.196 127.936ZM155.804 1.12225C154.76 1.12342 153.759 1.53762 153.02 2.27398C152.282 3.01034 151.867 4.00872 151.865 5.0501V122.886C151.867 123.927 152.282 124.926 153.02 125.662C153.759 126.398 154.76 126.812 155.804 126.814H249.196C250.241 126.812 251.242 126.398 251.98 125.662C252.718 124.926 253.134 123.927 253.135 122.886V5.0501C253.134 4.00872 252.718 3.01034 251.98 2.27398C251.242 1.53762 250.241 1.12342 249.196 1.12225H155.804Z" fill="#3F3D56"/>
<path d="M194.731 56.6406H174.174C173.502 56.6399 172.859 56.3736 172.384 55.9003C171.91 55.4269 171.643 54.7851 171.642 54.1156V29.9202C171.643 29.2507 171.91 28.6089 172.384 28.1355C172.859 27.6622 173.502 27.3959 174.174 27.3951H194.731C195.402 27.3959 196.046 27.6622 196.521 28.1355C196.995 28.6089 197.262 29.2507 197.263 29.9202V54.1156C197.262 54.785 196.995 55.4269 196.521 55.9003C196.046 56.3736 195.402 56.6399 194.731 56.6406Z" fill="#2279D4"/>
<path d="M234.676 67.8631H214.119C213.447 67.8624 212.804 67.5961 212.329 67.1227C211.855 66.6493 211.588 66.0075 211.587 65.3381V41.1427C211.588 40.4732 211.855 39.8314 212.329 39.358C212.804 38.8846 213.447 38.6184 214.119 38.6176H234.676C235.348 38.6184 235.991 38.8846 236.466 39.358C236.94 39.8314 237.207 40.4732 237.208 41.1427V65.3381C237.207 66.0075 236.94 66.6493 236.466 67.1227C235.991 67.5961 235.348 67.8624 234.676 67.8631Z" fill="#CDCDCD"/>
<path d="M202.608 102.092H182.05C181.379 102.091 180.735 101.825 180.261 101.351C179.786 100.878 179.519 100.236 179.518 99.5665V75.3711C179.519 74.7017 179.786 74.0598 180.261 73.5865C180.735 73.1131 181.379 72.8468 182.05 72.8461H202.608C203.279 72.8468 203.922 73.1131 204.397 73.5865C204.872 74.0598 205.139 74.7017 205.139 75.3711V99.5665C205.139 100.236 204.872 100.878 204.397 101.351C203.922 101.825 203.279 102.091 202.608 102.092Z" fill="#FF8B18"/>
<path d="M399.937 249.1H306.544C305.201 249.098 303.914 248.566 302.965 247.619C302.016 246.672 301.482 245.389 301.48 244.05V126.214C301.482 124.875 302.016 123.592 302.965 122.645C303.914 121.698 305.201 121.166 306.544 121.164H399.937C401.279 121.166 402.566 121.698 403.515 122.645C404.465 123.592 404.999 124.875 405 126.214V244.05C404.999 245.389 404.465 246.672 403.515 247.619C402.566 248.566 401.279 249.098 399.937 249.1ZM306.544 122.286C305.5 122.287 304.499 122.702 303.76 123.438C303.022 124.174 302.607 125.173 302.606 126.214V244.05C302.607 245.091 303.022 246.09 303.76 246.826C304.499 247.562 305.5 247.977 306.544 247.978H399.937C400.981 247.977 401.982 247.562 402.72 246.826C403.458 246.09 403.874 245.091 403.875 244.05V126.214C403.874 125.173 403.458 124.174 402.72 123.438C401.982 122.702 400.981 122.287 399.937 122.286H306.544Z" fill="#3F3D56"/>
<path d="M369.275 147.256H337.206C336.609 147.256 336.037 147.02 335.615 146.599C335.193 146.178 334.956 145.607 334.956 145.012C334.956 144.416 335.193 143.846 335.615 143.425C336.037 143.004 336.609 142.767 337.206 142.767H369.275C369.871 142.767 370.444 143.004 370.866 143.425C371.288 143.846 371.525 144.416 371.525 145.012C371.525 145.607 371.288 146.178 370.866 146.599C370.444 147.02 369.871 147.256 369.275 147.256Z" fill="#2279D4"/>
<path d="M385.027 168.579H321.453C321.157 168.579 320.864 168.522 320.59 168.409C320.317 168.297 320.068 168.131 319.859 167.923C319.65 167.714 319.483 167.467 319.37 167.194C319.257 166.922 319.198 166.63 319.198 166.334C319.198 166.039 319.257 165.747 319.37 165.475C319.483 165.202 319.65 164.954 319.859 164.746C320.068 164.537 320.317 164.372 320.59 164.26C320.864 164.147 321.157 164.089 321.453 164.09H385.027C385.323 164.089 385.616 164.147 385.89 164.26C386.163 164.372 386.412 164.537 386.621 164.746C386.831 164.954 386.997 165.202 387.11 165.475C387.223 165.747 387.282 166.039 387.282 166.334C387.282 166.63 387.223 166.922 387.11 167.194C386.997 167.467 386.831 167.714 386.621 167.923C386.412 168.131 386.163 168.297 385.89 168.409C385.616 168.522 385.323 168.579 385.027 168.579Z" fill="#CDCDCD"/>
<path d="M385.027 180.362H321.453C321.157 180.363 320.864 180.305 320.59 180.193C320.317 180.08 320.068 179.915 319.859 179.706C319.65 179.498 319.483 179.25 319.37 178.978C319.257 178.705 319.198 178.413 319.198 178.118C319.198 177.823 319.257 177.531 319.37 177.258C319.483 176.986 319.65 176.738 319.859 176.53C320.068 176.321 320.317 176.156 320.59 176.043C320.864 175.931 321.157 175.873 321.453 175.874H385.027C385.323 175.873 385.616 175.931 385.89 176.043C386.163 176.156 386.412 176.321 386.621 176.53C386.831 176.738 386.997 176.986 387.11 177.258C387.223 177.531 387.282 177.823 387.282 178.118C387.282 178.413 387.223 178.705 387.11 178.978C386.997 179.25 386.831 179.498 386.621 179.706C386.412 179.915 386.163 180.08 385.89 180.193C385.616 180.305 385.323 180.363 385.027 180.362Z" fill="#CDCDCD"/>
<path d="M385.027 192.146H321.453C321.157 192.147 320.864 192.089 320.59 191.976C320.317 191.864 320.068 191.699 319.859 191.49C319.65 191.282 319.483 191.034 319.37 190.761C319.257 190.489 319.198 190.197 319.198 189.902C319.198 189.607 319.257 189.314 319.37 189.042C319.483 188.769 319.65 188.522 319.859 188.313C320.068 188.105 320.317 187.939 320.59 187.827C320.864 187.714 321.157 187.657 321.453 187.657H385.027C385.323 187.657 385.616 187.714 385.89 187.827C386.163 187.939 386.412 188.105 386.621 188.313C386.831 188.522 386.997 188.769 387.11 189.042C387.223 189.314 387.282 189.607 387.282 189.902C387.282 190.197 387.223 190.489 387.11 190.761C386.997 191.034 386.831 191.282 386.621 191.49C386.412 191.699 386.163 191.864 385.89 191.976C385.616 192.089 385.323 192.147 385.027 192.146Z" fill="#CDCDCD"/>
<path d="M385.027 203.93H321.453C321.157 203.93 320.864 203.873 320.59 203.76C320.317 203.647 320.068 203.482 319.859 203.274C319.65 203.065 319.483 202.818 319.37 202.545C319.257 202.272 319.198 201.98 319.198 201.685C319.198 201.39 319.257 201.098 319.37 200.825C319.483 200.553 319.65 200.305 319.859 200.097C320.068 199.888 320.317 199.723 320.59 199.61C320.864 199.498 321.157 199.44 321.453 199.441H385.027C385.323 199.44 385.616 199.498 385.89 199.61C386.163 199.723 386.412 199.888 386.621 200.097C386.831 200.305 386.997 200.553 387.11 200.825C387.223 201.098 387.282 201.39 387.282 201.685C387.282 201.98 387.223 202.272 387.11 202.545C386.997 202.818 386.831 203.065 386.621 203.274C386.412 203.482 386.163 203.647 385.89 203.76C385.616 203.873 385.323 203.93 385.027 203.93Z" fill="#CDCDCD"/>
<path d="M385.027 215.713H321.453C321.157 215.714 320.864 215.656 320.59 215.544C320.317 215.431 320.068 215.266 319.859 215.057C319.65 214.849 319.483 214.601 319.37 214.329C319.257 214.056 319.198 213.764 319.198 213.469C319.198 213.174 319.257 212.881 319.37 212.609C319.483 212.336 319.65 212.089 319.859 211.88C320.068 211.672 320.317 211.507 320.59 211.394C320.864 211.281 321.157 211.224 321.453 211.224H385.027C385.323 211.224 385.616 211.281 385.89 211.394C386.163 211.507 386.412 211.672 386.621 211.88C386.831 212.089 386.997 212.336 387.11 212.609C387.223 212.881 387.282 213.174 387.282 213.469C387.282 213.764 387.223 214.056 387.11 214.329C386.997 214.601 386.831 214.849 386.621 215.057C386.412 215.266 386.163 215.431 385.89 215.544C385.616 215.656 385.323 215.714 385.027 215.713Z" fill="#CDCDCD"/>
<path d="M385.027 227.497H321.453C321.157 227.497 320.864 227.44 320.59 227.327C320.317 227.214 320.068 227.049 319.859 226.841C319.65 226.632 319.483 226.385 319.37 226.112C319.257 225.84 319.198 225.547 319.198 225.252C319.198 224.957 319.257 224.665 319.37 224.392C319.483 224.12 319.65 223.872 319.859 223.664C320.068 223.455 320.317 223.29 320.59 223.178C320.864 223.065 321.157 223.007 321.453 223.008H385.027C385.323 223.007 385.616 223.065 385.89 223.178C386.163 223.29 386.412 223.455 386.621 223.664C386.831 223.872 386.997 224.12 387.11 224.392C387.223 224.665 387.282 224.957 387.282 225.252C387.282 225.547 387.223 225.84 387.11 226.112C386.997 226.385 386.831 226.632 386.621 226.841C386.412 227.049 386.163 227.214 385.89 227.327C385.616 227.44 385.323 227.497 385.027 227.497Z" fill="#CDCDCD"/>
<path d="M98.4562 249.1H5.06346C3.72101 249.098 2.43399 248.566 1.48474 247.619C0.535484 246.672 0.00152699 245.389 0 244.05V126.214C0.00152699 124.875 0.535484 123.592 1.48474 122.645C2.43399 121.698 3.72101 121.166 5.06346 121.164H98.4562C99.7986 121.166 101.086 121.698 102.035 122.645C102.984 123.592 103.518 124.875 103.52 126.214V244.05C103.518 245.389 102.984 246.672 102.035 247.619C101.086 248.566 99.7986 249.098 98.4562 249.1ZM5.06346 122.286C4.01933 122.287 3.01831 122.702 2.28 123.438C1.54169 124.174 1.12638 125.173 1.12521 126.214V244.05C1.12638 245.091 1.54169 246.09 2.28 246.826C3.01831 247.562 4.01933 247.977 5.06346 247.978H98.4562C99.5003 247.977 100.501 247.562 101.24 246.826C101.978 246.09 102.393 245.091 102.394 244.05V126.214C102.393 125.173 101.978 124.174 101.24 123.438C100.501 122.702 99.5003 122.287 98.4562 122.286H5.06346Z" fill="#3F3D56"/>
<path d="M83.6447 148.985H55.5143C54.9175 148.985 54.3451 148.749 53.923 148.328C53.501 147.907 53.2639 147.336 53.2639 146.741C53.2639 146.145 53.501 145.574 53.923 145.154C54.3451 144.733 54.9175 144.496 55.5143 144.496H83.6447C84.2415 144.496 84.8139 144.733 85.236 145.154C85.658 145.574 85.8951 146.145 85.8951 146.741C85.8951 147.336 85.658 147.907 85.236 148.328C84.8139 148.749 84.2415 148.985 83.6447 148.985Z" fill="#3F3D56"/>
<path d="M83.6447 160.769H55.5143C54.9175 160.769 54.3451 160.532 53.923 160.111C53.501 159.69 53.2639 159.119 53.2639 158.524C53.2639 157.929 53.501 157.358 53.923 156.937C54.3451 156.516 54.9175 156.28 55.5143 156.28H83.6447C84.2415 156.28 84.8139 156.516 85.236 156.937C85.658 157.358 85.8951 157.929 85.8951 158.524C85.8951 159.119 85.658 159.69 85.236 160.111C84.8139 160.532 84.2415 160.769 83.6447 160.769Z" fill="#3F3D56"/>
<path d="M41.0804 167.478H20.5227C19.8515 167.478 19.208 167.211 18.7333 166.738C18.2587 166.265 17.9917 165.623 17.991 164.953V140.758C17.9917 140.088 18.2587 139.447 18.7333 138.973C19.208 138.5 19.8515 138.234 20.5227 138.233H41.0804C41.7516 138.234 42.3951 138.5 42.8698 138.973C43.3444 139.447 43.6114 140.088 43.6121 140.758V164.953C43.6114 165.623 43.3444 166.265 42.8698 166.738C42.3951 167.211 41.7516 167.478 41.0804 167.478Z" fill="#2279D4"/>
<path d="M83.4498 184.897H19.8752C19.5793 184.897 19.2862 184.84 19.0128 184.727C18.7393 184.615 18.4907 184.449 18.2814 184.241C18.072 184.032 17.9059 183.785 17.7925 183.512C17.6792 183.24 17.6208 182.948 17.6208 182.652C17.6208 182.357 17.6792 182.065 17.7925 181.793C17.9059 181.52 18.072 181.272 18.2814 181.064C18.4907 180.856 18.7393 180.69 19.0128 180.578C19.2862 180.465 19.5793 180.407 19.8752 180.408H83.4498C83.7456 180.407 84.0387 180.465 84.3121 180.578C84.5856 180.69 84.8342 180.856 85.0436 181.064C85.2529 181.272 85.4191 181.52 85.5324 181.793C85.6457 182.065 85.7041 182.357 85.7041 182.652C85.7041 182.948 85.6457 183.24 85.5324 183.512C85.4191 183.785 85.2529 184.032 85.0436 184.241C84.8342 184.449 84.5856 184.615 84.3121 184.727C84.0387 184.84 83.7456 184.897 83.4498 184.897Z" fill="#CDCDCD"/>
<path d="M83.4498 196.681H19.8752C19.5793 196.681 19.2862 196.623 19.0128 196.511C18.7393 196.398 18.4907 196.233 18.2814 196.025C18.072 195.816 17.9059 195.568 17.7925 195.296C17.6792 195.023 17.6208 194.731 17.6208 194.436C17.6208 194.141 17.6792 193.849 17.7925 193.576C17.9059 193.304 18.072 193.056 18.2814 192.848C18.4907 192.639 18.7393 192.474 19.0128 192.361C19.2862 192.249 19.5793 192.191 19.8752 192.192H83.4498C83.7456 192.191 84.0387 192.249 84.3121 192.361C84.5856 192.474 84.8342 192.639 85.0436 192.848C85.2529 193.056 85.4191 193.304 85.5324 193.576C85.6457 193.849 85.7041 194.141 85.7041 194.436C85.7041 194.731 85.6457 195.023 85.5324 195.296C85.4191 195.568 85.2529 195.816 85.0436 196.025C84.8342 196.233 84.5856 196.398 84.3121 196.511C84.0387 196.623 83.7456 196.681 83.4498 196.681Z" fill="#CDCDCD"/>
<path d="M83.4498 208.464H19.8752C19.5793 208.465 19.2862 208.407 19.0128 208.294C18.7393 208.182 18.4907 208.017 18.2814 207.808C18.072 207.6 17.9059 207.352 17.7925 207.08C17.6792 206.807 17.6208 206.515 17.6208 206.22C17.6208 205.925 17.6792 205.632 17.7925 205.36C17.9059 205.087 18.072 204.84 18.2814 204.631C18.4907 204.423 18.7393 204.257 19.0128 204.145C19.2862 204.032 19.5793 203.975 19.8752 203.975H83.4498C83.7456 203.975 84.0387 204.032 84.3121 204.145C84.5856 204.257 84.8342 204.423 85.0436 204.631C85.2529 204.84 85.4191 205.087 85.5324 205.36C85.6457 205.632 85.7041 205.925 85.7041 206.22C85.7041 206.515 85.6457 206.807 85.5324 207.08C85.4191 207.352 85.2529 207.6 85.0436 207.808C84.8342 208.017 84.5856 208.182 84.3121 208.294C84.0387 208.407 83.7456 208.465 83.4498 208.464Z" fill="#CDCDCD"/>
<path d="M83.4498 220.248H19.8752C19.5793 220.248 19.2862 220.191 19.0128 220.078C18.7393 219.965 18.4907 219.8 18.2814 219.592C18.072 219.383 17.9059 219.136 17.7925 218.863C17.6792 218.59 17.6208 218.298 17.6208 218.003C17.6208 217.708 17.6792 217.416 17.7925 217.143C17.9059 216.871 18.072 216.623 18.2814 216.415C18.4907 216.206 18.7393 216.041 19.0128 215.928C19.2862 215.816 19.5793 215.758 19.8752 215.759H83.4498C83.7456 215.758 84.0387 215.816 84.3121 215.928C84.5856 216.041 84.8342 216.206 85.0436 216.415C85.2529 216.623 85.4191 216.871 85.5324 217.143C85.6457 217.416 85.7041 217.708 85.7041 218.003C85.7041 218.298 85.6457 218.59 85.5324 218.863C85.4191 219.136 85.2529 219.383 85.0436 219.592C84.8342 219.8 84.5856 219.965 84.3121 220.078C84.0387 220.191 83.7456 220.248 83.4498 220.248Z" fill="#CDCDCD"/>
<path d="M83.4498 232.031H19.8752C19.5793 232.032 19.2862 231.974 19.0128 231.862C18.7393 231.749 18.4907 231.584 18.2814 231.375C18.072 231.167 17.9059 230.919 17.7925 230.647C17.6792 230.374 17.6208 230.082 17.6208 229.787C17.6208 229.492 17.6792 229.2 17.7925 228.927C17.9059 228.654 18.072 228.407 18.2814 228.198C18.4907 227.99 18.7393 227.825 19.0128 227.712C19.2862 227.599 19.5793 227.542 19.8752 227.542H83.4498C83.7456 227.542 84.0387 227.599 84.3121 227.712C84.5856 227.825 84.8342 227.99 85.0436 228.198C85.2529 228.407 85.4191 228.654 85.5324 228.927C85.6457 229.2 85.7041 229.492 85.7041 229.787C85.7041 230.082 85.6457 230.374 85.5324 230.647C85.4191 230.919 85.2529 231.167 85.0436 231.375C84.8342 231.584 84.5856 231.749 84.3121 231.862C84.0387 231.974 83.7456 232.032 83.4498 232.031Z" fill="#CDCDCD"/>
<path d="M133.762 317.397V293.201C133.763 292.532 134.03 291.89 134.505 291.417C134.979 290.943 135.623 290.677 136.294 290.676H156.852C157.523 290.677 158.167 290.943 158.641 291.417C159.116 291.89 159.383 292.532 159.384 293.201V317.397C159.383 318.066 159.116 318.708 158.641 319.181C158.167 319.655 157.523 319.921 156.852 319.922H136.294C135.623 319.921 134.979 319.655 134.505 319.181C134.03 318.708 133.763 318.066 133.762 317.397Z" fill="#838383"/>
<path d="M141.168 309.34V285.144C141.168 284.475 141.435 283.833 141.91 283.36C142.385 282.886 143.028 282.62 143.699 282.619H164.257C164.928 282.62 165.572 282.886 166.047 283.36C166.521 283.833 166.788 284.475 166.789 285.144V309.34C166.788 310.009 166.521 310.651 166.047 311.124C165.572 311.598 164.928 311.864 164.257 311.865H143.699C143.028 311.864 142.385 311.598 141.91 311.124C141.435 310.651 141.168 310.009 141.168 309.34Z" fill="#2279D4"/>
<path d="M233.322 301.598C232.549 301.152 231.883 300.543 231.371 299.812C230.859 299.082 230.514 298.248 230.36 297.371C230.206 296.493 230.247 295.592 230.48 294.732C230.713 293.872 231.132 293.073 231.708 292.392L225.335 245.937L238.609 246.587L240.693 291.899C241.777 292.939 242.44 294.34 242.557 295.836C242.673 297.332 242.236 298.818 241.327 300.014C240.419 301.209 239.102 302.031 237.627 302.323C236.151 302.615 234.62 302.357 233.322 301.598V301.598Z" fill="#D58888"/>
<path d="M240.431 247.206C240.159 247.525 239.811 247.771 239.418 247.92L227.489 252.461C226.89 252.689 226.226 252.68 225.634 252.434C225.042 252.189 224.566 251.726 224.305 251.142L213.739 227.457C212.724 225.26 212.551 222.769 213.253 220.453C213.772 218.801 214.728 217.319 216.021 216.163C217.314 215.007 218.895 214.22 220.599 213.885C221.909 213.616 223.262 213.636 224.564 213.941C226.124 214.288 227.573 215.017 228.779 216.063C229.986 217.109 230.912 218.439 231.473 219.931L240.868 244.7C241.026 245.119 241.069 245.572 240.992 246.013C240.915 246.453 240.722 246.865 240.431 247.206Z" fill="#CDCDCD"/>
<path d="M178.269 414.983H170.016L167.023 383.083L178.271 383.233L178.269 414.983Z" fill="#D58888"/>
<path d="M164.121 412.631H180.038V422.626H154.099C154.099 421.314 154.358 420.014 154.862 418.801C155.365 417.589 156.104 416.487 157.034 415.559C157.965 414.63 159.07 413.894 160.286 413.392C161.501 412.889 162.805 412.631 164.121 412.631Z" fill="#2F2E41"/>
<path d="M216.642 414.983H208.389L204.462 383.233L216.643 383.233L216.642 414.983Z" fill="#D58888"/>
<path d="M202.493 412.631H218.411V422.626H192.471C192.471 421.314 192.731 420.014 193.234 418.801C193.738 417.589 194.476 416.487 195.407 415.559C196.337 414.63 197.442 413.894 198.658 413.392C199.874 412.889 201.177 412.631 202.493 412.631Z" fill="#2F2E41"/>
<path d="M217.68 403.687L204.717 402.729C203.98 402.674 203.289 402.352 202.773 401.824C202.257 401.296 201.952 400.598 201.915 399.862L199.025 340.286C198.997 339.714 198.761 339.172 198.361 338.762C197.961 338.351 197.425 338.1 196.852 338.056C196.28 338.013 195.712 338.178 195.253 338.523C194.795 338.868 194.478 339.367 194.363 339.928L182.305 398.616C182.156 399.338 181.748 399.98 181.157 400.423C180.566 400.866 179.833 401.079 179.096 401.021L167.378 400.086C166.977 400.054 166.586 399.942 166.228 399.757C165.87 399.573 165.553 399.319 165.295 399.011C165.036 398.702 164.842 398.345 164.724 397.961C164.606 397.577 164.566 397.173 164.606 396.774L175.476 288.354C175.519 287.93 175.651 287.52 175.863 287.151C176.076 286.781 176.364 286.461 176.71 286.21C177.055 285.96 177.45 285.785 177.867 285.698C178.285 285.61 178.717 285.612 179.134 285.702L220.473 294.665C221.158 294.815 221.769 295.196 222.204 295.745C222.639 296.293 222.87 296.975 222.858 297.674L220.933 400.73C220.918 401.52 220.593 402.273 220.028 402.827C219.463 403.381 218.703 403.693 217.911 403.695C217.834 403.695 217.757 403.692 217.68 403.687Z" fill="#2F2E41"/>
<path d="M206.34 197.701C215.471 197.701 222.874 190.318 222.874 181.21C222.874 172.102 215.471 164.719 206.34 164.719C197.208 164.719 189.805 172.102 189.805 181.21C189.805 190.318 197.208 197.701 206.34 197.701Z" fill="#D58888"/>
<path d="M180.685 296.714C179.095 295.293 177.833 293.544 176.986 291.589C176.138 289.634 175.725 287.519 175.775 285.39C175.775 261.688 196.345 208.734 196.99 207.082C197.053 206.684 197.596 206.512 200.443 204.594C203.293 202.674 207.401 202.379 212.655 203.717C213.189 203.853 213.675 204.133 214.061 204.526C214.447 204.919 214.717 205.41 214.843 205.945L215.82 207.353C215.905 207.711 216.073 208.043 216.31 208.323C216.548 208.604 216.847 208.825 217.186 208.969C221.423 210.749 234.89 218.959 230.301 249.853C226.038 278.552 224.308 295.431 223.762 301.355C223.698 302.059 223.389 302.717 222.888 303.216C222.387 303.714 221.726 304.022 221.021 304.085C218.944 304.271 215.379 304.517 211.132 304.517C201.289 304.517 187.788 303.193 180.685 296.714Z" fill="#CDCDCD"/>
<path d="M160.928 287.934C160.535 287.134 160.322 286.257 160.305 285.366C160.288 284.475 160.467 283.592 160.83 282.777C161.192 281.963 161.73 281.238 162.404 280.653C163.078 280.068 163.872 279.637 164.731 279.392L185.393 237.276L196.053 245.193L172.468 283.976C172.786 285.442 172.553 286.974 171.815 288.281C171.076 289.588 169.883 290.579 168.46 291.067C167.038 291.555 165.485 291.505 164.097 290.928C162.709 290.35 161.581 289.285 160.928 287.934L160.928 287.934Z" fill="#D58888"/>
<path d="M197.22 246.719C196.815 246.833 196.388 246.844 195.979 246.749L183.537 243.89C182.912 243.747 182.366 243.37 182.011 242.837C181.657 242.304 181.52 241.656 181.63 241.026L186.088 215.486C186.473 213.098 187.722 210.933 189.598 209.401C190.952 208.317 192.575 207.617 194.294 207.376C196.013 207.135 197.766 207.36 199.367 208.029C200.606 208.534 201.719 209.302 202.629 210.279C203.731 211.434 204.526 212.845 204.943 214.384C205.361 215.923 205.387 217.542 205.019 219.093L198.982 244.882C198.88 245.317 198.662 245.717 198.352 246.04C198.042 246.363 197.651 246.598 197.22 246.719Z" fill="#CDCDCD"/>
<path d="M202.468 196.11C201.663 195.291 201.069 194.29 200.737 193.193C200.404 192.096 200.342 190.934 200.557 189.808C201.133 186.8 201.472 184.832 201.536 184.116C201.756 181.667 199.273 179.684 196.817 179.369C196.722 179.357 196.642 179.348 196.576 179.343C196.638 179.404 196.705 179.467 196.764 179.522C197.231 179.959 197.812 180.504 197.674 181.065C197.59 181.403 197.281 181.643 196.727 181.797C192.885 182.87 189.927 181.885 187.416 178.698C186.71 177.792 186.225 176.735 185.999 175.611C185.099 171.209 187.496 167.458 189.665 165.086C191.453 163.13 194.353 160.756 198.009 160.552C200.852 160.394 204.233 162.026 205.245 164.966C205.722 164.261 206.357 163.676 207.101 163.258C207.844 162.84 208.675 162.6 209.527 162.558C211.468 162.516 213.379 163.046 215.019 164.082C223.037 168.662 226.482 179.574 222.544 187.909C220.066 193.153 214.698 197.056 208.534 198.096C208.149 198.162 207.758 198.195 207.366 198.195C206.451 198.193 205.546 198.008 204.705 197.65C203.863 197.292 203.102 196.768 202.468 196.11Z" fill="#2F2E41"/>
<path d="M124.932 423H256.207C256.386 423 256.557 422.929 256.683 422.803C256.81 422.677 256.881 422.507 256.881 422.329C256.881 422.15 256.81 421.98 256.683 421.854C256.557 421.728 256.386 421.657 256.207 421.657H124.932C124.754 421.657 124.583 421.728 124.456 421.854C124.33 421.98 124.259 422.15 124.259 422.329C124.259 422.507 124.33 422.677 124.456 422.803C124.583 422.929 124.754 423 124.932 423Z" fill="#3F3D56"/>
</svg>
