<svg width="100" height="100" viewBox="0 0 100 100" fill="none" xmlns="http://www.w3.org/2000/svg">
<path d="M93.5484 27.4194H90.3226V96.7743H87.0968V27.4194H83.871V96.7743H80.6452V64.5162H77.4194V96.7743H74.1936V64.5162H70.9677V96.7743H67.7419V56.4517H64.5161V96.7743H61.2903V56.4517H58.0645V96.7743H54.8387V59.6775H51.6129V96.7743H48.3871V59.6775H45.1613V96.7743H41.9355V37.0969H38.7097V96.7743H35.4839V37.0969H32.2581V96.7743H29.0323V67.742H25.8065V96.7743H22.5806V67.742H19.3548V96.7743H16.129V61.2904H12.9032V96.7743H9.67742V61.2904H6.45161V96.7743H0V100H100V96.7743H93.5484V27.4194Z" fill="#86B5E8"/>
<path d="M11.2903 56.4515C17.5145 56.4515 22.5806 51.3854 22.5806 45.1612C22.5806 38.937 17.5145 33.8708 11.2903 33.8708C5.06613 33.8708 0 38.937 0 45.1612C0 51.3854 5.06613 56.4515 11.2903 56.4515ZM14.5161 52.5418C13.5258 52.9773 12.4387 53.2257 11.2903 53.2257C10.1419 53.2257 9.05484 52.9773 8.06452 52.5418V51.6128C8.06452 49.8338 9.51129 48.387 11.2903 48.387C13.0694 48.387 14.5161 49.8338 14.5161 51.6128V52.5418ZM9.67742 43.5483C9.67742 42.6579 10.4 41.9354 11.2903 41.9354C12.1806 41.9354 12.9032 42.6579 12.9032 43.5483C12.9032 44.4386 12.1806 45.1612 11.2903 45.1612C10.4 45.1612 9.67742 44.4386 9.67742 43.5483ZM11.2903 37.0967C15.7371 37.0967 19.3548 40.7144 19.3548 45.1612C19.3548 47.0612 18.6677 48.7854 17.5645 50.1644C17.2161 48.6547 16.3339 47.3579 15.1306 46.4579C15.7484 45.6467 16.129 44.645 16.129 43.5483C16.129 40.8805 13.9581 38.7096 11.2903 38.7096C8.62258 38.7096 6.45161 40.8805 6.45161 43.5483C6.45161 44.645 6.83226 45.6467 7.45 46.4596C6.24677 47.3579 5.36452 48.6563 5.01613 50.166C3.9129 48.7854 3.22581 47.0612 3.22581 45.1612C3.22581 40.7144 6.84355 37.0967 11.2903 37.0967Z" fill="#86B5E8"/>
<path d="M37.097 32.2581C43.3212 32.2581 48.3873 27.192 48.3873 20.9678C48.3873 14.7436 43.3212 9.67749 37.097 9.67749C30.8728 9.67749 25.8066 14.7436 25.8066 20.9678C25.8066 27.192 30.8728 32.2581 37.097 32.2581ZM40.3228 28.3485C39.3324 28.7839 38.2454 29.0323 37.097 29.0323C35.9486 29.0323 34.8615 28.7839 33.8712 28.3485V27.4194C33.8712 25.6404 35.3179 24.1936 37.097 24.1936C38.876 24.1936 40.3228 25.6404 40.3228 27.4194V28.3485ZM35.4841 19.3549C35.4841 18.4646 36.2066 17.742 37.097 17.742C37.9873 17.742 38.7099 18.4646 38.7099 19.3549C38.7099 20.2452 37.9873 20.9678 37.097 20.9678C36.2066 20.9678 35.4841 20.2452 35.4841 19.3549ZM37.097 12.9033C41.5437 12.9033 45.1615 16.521 45.1615 20.9678C45.1615 22.8678 44.4744 24.592 43.3712 25.971C43.0228 24.4614 42.1405 23.1646 40.9373 22.2646C41.555 21.4533 41.9357 20.4517 41.9357 19.3549C41.9357 16.6872 39.7647 14.5162 37.097 14.5162C34.4292 14.5162 32.2583 16.6872 32.2583 19.3549C32.2583 20.4517 32.6389 21.4533 33.2566 22.2662C32.0534 23.1646 31.1712 24.463 30.8228 25.9727C29.7195 24.592 29.0324 22.8678 29.0324 20.9678C29.0324 16.521 32.6502 12.9033 37.097 12.9033Z" fill="#86B5E8"/>
<path d="M62.9036 51.6129C69.1278 51.6129 74.1939 46.5467 74.1939 40.3225C74.1939 34.0984 69.1278 29.0322 62.9036 29.0322C56.6794 29.0322 51.6133 34.0984 51.6133 40.3225C51.6133 46.5467 56.6794 51.6129 62.9036 51.6129ZM66.1294 47.7032C65.1391 48.1387 64.052 48.3871 62.9036 48.3871C61.7552 48.3871 60.6681 48.1387 59.6778 47.7032V46.7742C59.6778 44.9951 61.1246 43.5484 62.9036 43.5484C64.6826 43.5484 66.1294 44.9951 66.1294 46.7742V47.7032ZM61.2907 38.7096C61.2907 37.8193 62.0133 37.0967 62.9036 37.0967C63.7939 37.0967 64.5165 37.8193 64.5165 38.7096C64.5165 39.6 63.7939 40.3225 62.9036 40.3225C62.0133 40.3225 61.2907 39.6 61.2907 38.7096ZM62.9036 32.258C67.3504 32.258 70.9681 35.8758 70.9681 40.3225C70.9681 42.2225 70.281 43.9467 69.1778 45.3258C68.8294 43.8161 67.9472 42.5193 66.7439 41.6193C67.3617 40.808 67.7423 39.8064 67.7423 38.7096C67.7423 36.0419 65.5713 33.8709 62.9036 33.8709C60.2359 33.8709 58.0649 36.0419 58.0649 38.7096C58.0649 39.8064 58.4455 40.808 59.0633 41.6209C57.8601 42.5193 56.9778 43.8177 56.6294 45.3274C55.5262 43.9467 54.8391 42.2225 54.8391 40.3225C54.8391 35.8758 58.4568 32.258 62.9036 32.258Z" fill="#86B5E8"/>
<path d="M88.7102 22.5806C94.9344 22.5806 100.001 17.5145 100.001 11.2903C100.001 5.06613 94.9344 0 88.7102 0C82.4861 0 77.4199 5.06613 77.4199 11.2903C77.4199 17.5145 82.4861 22.5806 88.7102 22.5806ZM91.9361 18.671C90.9457 19.1065 89.8586 19.3548 88.7102 19.3548C87.5619 19.3548 86.4748 19.1065 85.4844 18.671V17.7419C85.4844 15.9629 86.9312 14.5161 88.7102 14.5161C90.4893 14.5161 91.9361 15.9629 91.9361 17.7419V18.671ZM87.0973 9.67742C87.0973 8.7871 87.8199 8.06452 88.7102 8.06452C89.6006 8.06452 90.3232 8.7871 90.3232 9.67742C90.3232 10.5677 89.6006 11.2903 88.7102 11.2903C87.8199 11.2903 87.0973 10.5677 87.0973 9.67742ZM88.7102 3.22581C93.157 3.22581 96.7748 6.84355 96.7748 11.2903C96.7748 13.1903 96.0877 14.9145 94.9844 16.2935C94.6361 14.7839 93.7538 13.4871 92.5506 12.5871C93.1683 11.7758 93.549 10.7742 93.549 9.67742C93.549 7.00968 91.378 4.83871 88.7102 4.83871C86.0425 4.83871 83.8715 7.00968 83.8715 9.67742C83.8715 10.7742 84.2522 11.7758 84.8699 12.5887C83.6667 13.4871 82.7844 14.7855 82.4361 16.2952C81.3328 14.9145 80.6457 13.1903 80.6457 11.2903C80.6457 6.84355 84.2635 3.22581 88.7102 3.22581Z" fill="#86B5E8"/>
</svg>
