<svg width="19" height="20" viewBox="0 0 19 20" fill="none" xmlns="http://www.w3.org/2000/svg">
<path fill-rule="evenodd" clip-rule="evenodd" d="M9.1743 0.985352C6.70204 0.985352 6.39177 0.996162 5.42077 1.04035C4.45166 1.08473 3.79017 1.23815 3.21136 1.46327C2.61264 1.69578 2.10476 2.0068 1.59877 2.51298C1.09241 3.01896 0.781383 3.52684 0.548115 4.12537C0.322433 4.70437 0.168817 5.36606 0.125197 6.33478C0.0817677 7.30579 0.0703888 7.61624 0.0703888 10.0885C0.0703888 12.5608 0.0813884 12.8701 0.125387 13.8411C0.169955 14.8102 0.323381 15.4717 0.548305 16.0505C0.781004 16.6492 1.09203 17.1571 1.5982 17.6631C2.104 18.1695 2.61188 18.4812 3.21022 18.7138C3.78941 18.9389 4.45109 19.0923 5.42001 19.1367C6.39102 19.1809 6.70109 19.1917 9.17317 19.1917C11.6456 19.1917 11.9549 19.1809 12.9259 19.1367C13.8951 19.0923 14.5573 18.9389 15.1365 18.7138C15.735 18.4812 16.2421 18.1695 16.7479 17.6631C17.2543 17.1571 17.5653 16.6492 17.7986 16.0507C18.0224 15.4717 18.176 14.81 18.2215 13.8413C18.2651 12.8703 18.2765 12.5608 18.2765 10.0885C18.2765 7.61624 18.2651 7.30598 18.2215 6.33497C18.176 5.36587 18.0224 4.70437 17.7986 4.12556C17.5653 3.52684 17.2543 3.01896 16.7479 2.51298C16.2416 2.00661 15.7352 1.69559 15.1359 1.46327C14.5556 1.23815 13.8937 1.08473 12.9246 1.04035C11.9536 0.996162 11.6445 0.985352 9.17146 0.985352H9.1743ZM8.35757 2.62581C8.59994 2.62543 8.87038 2.62581 9.1742 2.62581C11.6047 2.62581 11.8928 2.63453 12.8526 2.67815C13.7402 2.71874 14.2219 2.86704 14.5428 2.99164C14.9676 3.15664 15.2705 3.35387 15.5889 3.67248C15.9075 3.99109 16.1047 4.29453 16.2701 4.71935C16.3947 5.03985 16.5432 5.52156 16.5836 6.40912C16.6272 7.36875 16.6367 7.65701 16.6367 10.0864C16.6367 12.5158 16.6272 12.8041 16.5836 13.7637C16.543 14.6513 16.3947 15.133 16.2701 15.4535C16.1051 15.8783 15.9075 16.1808 15.5889 16.4992C15.2703 16.8178 14.9678 17.0151 14.5428 17.1801C14.2223 17.3052 13.7402 17.4531 12.8526 17.4937C11.893 17.5374 11.6047 17.5468 9.1742 17.5468C6.74346 17.5468 6.45539 17.5374 5.49576 17.4937C4.6082 17.4528 4.1265 17.3045 3.80542 17.1799C3.3806 17.0149 3.07717 16.8176 2.75856 16.499C2.43994 16.1804 2.24271 15.8777 2.07734 15.4527C1.95274 15.1322 1.80424 14.6505 1.76385 13.763C1.72023 12.8033 1.7115 12.5151 1.7115 10.0841C1.7115 7.65322 1.72023 7.36647 1.76385 6.40685C1.80443 5.51929 1.95274 5.03758 2.07734 4.71669C2.24233 4.29188 2.43994 3.98844 2.75856 3.66983C3.07717 3.35122 3.3806 3.15398 3.80542 2.98861C4.12631 2.86344 4.6082 2.71551 5.49576 2.67474C6.33553 2.63681 6.66097 2.62543 8.35757 2.62354V2.62581ZM14.0334 4.1371C13.4303 4.1371 12.941 4.62582 12.941 5.2291C12.941 5.83218 13.4303 6.32148 14.0334 6.32148C14.6365 6.32148 15.1258 5.83218 15.1258 5.2291C15.1258 4.62601 14.6365 4.13672 14.0334 4.13672V4.1371ZM9.17444 5.41357C6.59275 5.41357 4.49959 7.50673 4.49959 10.0884C4.49959 12.6701 6.59275 14.7623 9.17444 14.7623C11.7561 14.7623 13.8485 12.6701 13.8485 10.0884C13.8485 7.50673 11.756 5.41357 9.17425 5.41357H9.17444ZM9.17412 7.0542C10.8499 7.0542 12.2085 8.41266 12.2085 10.0886C12.2085 11.7643 10.8499 13.123 9.17412 13.123C7.49818 13.123 6.13972 11.7643 6.13972 10.0886C6.13972 8.41266 7.49818 7.0542 9.17412 7.0542V7.0542Z" fill="#232526"/>
</svg>
