<svg width="498" height="247" viewBox="0 0 498 247" fill="none" xmlns="http://www.w3.org/2000/svg">
<path d="M497.764 2.62628C497.893 1.80799 497.334 1.03989 496.516 0.91069C495.698 0.781486 494.93 1.3401 494.8 2.15839L497.764 2.62628ZM487.98 38.3676L489.35 38.9783L487.98 38.3676ZM440.423 94.1241L441.344 95.3079L440.423 94.1241ZM357.506 127.639L357.445 126.141L357.506 127.639ZM268.234 110.113L269.082 108.876L269.061 108.861L269.04 108.848L268.234 110.113ZM250.707 77.1101L249.209 77.0364L249.2 77.2304L249.24 77.4204L250.707 77.1101ZM255.5 57.5L254.182 56.7837L255.5 57.5ZM273.051 43.1848L273.643 44.5629L273.728 44.5266L273.807 44.4801L273.051 43.1848ZM306.5 44.5L307.294 43.2275L307.17 43.1502L307.034 43.0983L306.5 44.5ZM335.777 77.1101L334.292 77.3201L334.298 77.3635L334.307 77.4065L335.777 77.1101ZM305.5 148.5L306.117 149.867L306.195 149.832L306.268 149.788L305.5 148.5ZM221.702 144.807L222.176 143.384L221.702 144.807ZM102 131.5L101.826 130.01L101.723 130.022L101.624 130.048L102 131.5ZM61.5 144.807L60.9091 143.428L61.5 144.807ZM22.2494 186.317L20.9276 185.608L22.2494 186.317ZM10.9393 246.055C11.5251 246.641 12.4749 246.641 13.0607 246.055L22.6066 236.509C23.1924 235.924 23.1924 234.974 22.6066 234.388C22.0208 233.802 21.0711 233.802 20.4853 234.388L12 242.873L3.51472 234.388C2.92893 233.802 1.97919 233.802 1.3934 234.388C0.807611 234.974 0.807611 235.924 1.3934 236.509L10.9393 246.055ZM13.5011 241.981C13.502 241.152 12.8312 240.48 12.0028 240.479C11.1744 240.478 10.502 241.149 10.5011 241.977L13.5011 241.981ZM10.5313 235.937C10.5226 236.765 11.187 237.444 12.0154 237.452C12.8438 237.461 13.5224 236.797 13.5311 235.968L10.5313 235.937ZM13.6487 229.973C13.674 229.145 13.0233 228.453 12.1952 228.428C11.3672 228.403 10.6754 229.053 10.6501 229.881L13.6487 229.973ZM10.9254 223.814C10.874 224.641 11.5026 225.353 12.3294 225.404C13.1562 225.456 13.8682 224.827 13.9196 224L10.9254 223.814ZM14.4131 218.059C14.5005 217.235 13.9035 216.497 13.0797 216.409C12.2559 216.322 11.5173 216.919 11.4299 217.743L14.4131 218.059ZM12.2365 211.687C12.1037 212.505 12.6589 213.275 13.4766 213.408C14.2944 213.541 15.0649 212.986 15.1977 212.168L12.2365 211.687ZM16.335 206.351C16.5211 205.543 16.0176 204.738 15.2104 204.552C14.4031 204.366 13.5978 204.869 13.4117 205.676L16.335 206.351ZM15.0053 199.752C14.7606 200.544 15.2038 201.384 15.9952 201.628C16.7867 201.873 17.6267 201.43 17.8714 200.639L15.0053 199.752ZM19.8327 195.065C20.1378 194.295 19.7608 193.423 18.9906 193.118C18.2204 192.813 17.3487 193.19 17.0436 193.96L19.8327 195.065ZM19.5256 188.343C19.1617 189.087 19.4701 189.986 20.2144 190.349C20.9586 190.713 21.8569 190.405 22.2208 189.661L19.5256 188.343ZM24.8108 184.686C25.1954 183.952 24.9123 183.046 24.1785 182.661C23.4448 182.277 22.5382 182.56 22.1536 183.293L24.8108 184.686ZM24.5868 178.626C24.2018 179.359 24.4842 180.266 25.2177 180.651C25.9512 181.036 26.858 180.753 27.243 180.02L24.5868 178.626ZM29.7323 175.446C30.144 174.727 29.8951 173.811 29.1762 173.399C28.4573 172.987 27.5408 173.236 27.1291 173.955L29.7323 175.446ZM29.9654 169.386C29.4995 170.071 29.6771 171.004 30.3621 171.47C31.0471 171.936 31.9801 171.758 32.446 171.073L29.9654 169.386ZM35.5291 167.012C36.066 166.381 35.9897 165.435 35.3587 164.898C34.7278 164.361 33.7811 164.437 33.2443 165.068L35.5291 167.012ZM37.001 161.142C36.3946 161.707 36.3605 162.656 36.925 163.262C37.4894 163.869 38.4385 163.903 39.0449 163.338L37.001 161.142ZM43.5225 159.524C44.1608 158.996 44.25 158.05 43.7218 157.412C43.1937 156.773 42.2481 156.684 41.6099 157.212L43.5225 159.524ZM46.7988 152.979C46.152 153.496 46.0473 154.44 46.5649 155.087C47.0825 155.734 48.0265 155.839 48.6733 155.321L46.7988 152.979ZM53.9043 151.277C54.5709 150.785 54.7126 149.846 54.2208 149.18C53.7289 148.513 52.7898 148.371 52.1232 148.863L53.9043 151.277ZM57.7785 145.048C57.0653 145.469 56.8288 146.389 57.2503 147.102C57.6717 147.816 58.5916 148.052 59.3048 147.631L57.7785 145.048ZM64.5312 145.159C65.2968 144.842 65.6609 143.965 65.3444 143.199C65.028 142.434 64.1508 142.07 63.3852 142.386L64.5312 145.159ZM68.3749 140.397C67.6016 140.694 67.2156 141.562 67.5128 142.335C67.81 143.109 68.6778 143.495 69.4511 143.197L68.3749 140.397ZM74.4192 141.356C75.1993 141.077 75.6057 140.219 75.3269 139.439C75.048 138.658 74.1896 138.252 73.4095 138.531L74.4192 141.356ZM78.4828 136.781C77.6968 137.042 77.2718 137.892 77.5335 138.678C77.7953 139.464 78.6446 139.889 79.4306 139.627L78.4828 136.781ZM84.48 138.001C85.271 137.755 85.7125 136.914 85.4662 136.123C85.2199 135.332 84.3791 134.891 83.5881 135.137L84.48 138.001ZM88.7192 133.589C87.9241 133.821 87.4682 134.655 87.701 135.45C87.9337 136.245 88.7668 136.701 89.5619 136.468L88.7192 133.589ZM94.6713 135.014C95.4697 134.793 95.9375 133.966 95.7164 133.168C95.4952 132.369 94.6687 131.901 93.8703 132.123L94.6713 135.014ZM99.0364 130.725C98.2355 130.937 97.7579 131.758 97.9697 132.559C98.1815 133.36 99.0024 133.837 99.8033 133.626L99.0364 130.725ZM105.047 132.675C105.871 132.59 106.471 131.854 106.386 131.03C106.302 130.206 105.565 129.606 104.741 129.691L105.047 132.675ZM110.579 129.169C109.753 129.232 109.135 129.953 109.198 130.779C109.262 131.605 109.983 132.223 110.809 132.16L110.579 129.169ZM116.587 131.78C117.414 131.734 118.048 131.027 118.002 130.199C117.956 129.372 117.249 128.739 116.422 128.784L116.587 131.78ZM122.266 128.517C121.438 128.547 120.792 129.243 120.822 130.071C120.853 130.899 121.549 131.545 122.377 131.515L122.266 128.517ZM128.176 131.343C129.004 131.325 129.66 130.638 129.641 129.81C129.623 128.982 128.936 128.326 128.108 128.344L128.176 131.343ZM133.947 128.246C133.118 128.256 132.455 128.935 132.464 129.763C132.474 130.592 133.153 131.256 133.981 131.246L133.947 128.246ZM139.793 131.202C140.622 131.198 141.29 130.524 141.287 129.695C141.283 128.867 140.609 128.198 139.781 128.202L139.793 131.202ZM145.609 128.19C144.781 128.19 144.11 128.862 144.11 129.691C144.11 130.519 144.782 131.19 145.611 131.19L145.609 128.19ZM151.612 131.227C152.441 131.247 153.128 130.591 153.148 129.763C153.168 128.935 152.513 128.248 151.685 128.228L151.612 131.227ZM158 128.525C157.173 128.467 156.457 129.091 156.4 129.917C156.342 130.744 156.966 131.46 157.792 131.518L158 128.525ZM163.959 132.076C164.782 132.168 165.524 131.574 165.615 130.751C165.707 129.927 165.114 129.186 164.29 129.094L163.959 132.076ZM170.548 129.91C169.728 129.788 168.965 130.353 168.843 131.173C168.721 131.992 169.286 132.755 170.105 132.878L170.548 129.91ZM176.225 133.898C177.04 134.047 177.822 133.508 177.971 132.693C178.121 131.878 177.582 131.097 176.767 130.947L176.225 133.898ZM182.945 132.179C182.135 132.005 181.337 132.521 181.163 133.331C180.989 134.141 181.505 134.938 182.315 135.112L182.945 132.179ZM188.374 136.498C189.179 136.693 189.99 136.198 190.185 135.393C190.38 134.588 189.885 133.777 189.08 133.582L188.374 136.498ZM195.174 135.134C194.374 134.921 193.552 135.397 193.339 136.197C193.126 136.998 193.602 137.819 194.402 138.033L195.174 135.134ZM200.402 139.695C201.198 139.924 202.029 139.464 202.258 138.668C202.486 137.872 202.026 137.041 201.23 136.812L200.402 139.695ZM207.25 138.596C206.458 138.354 205.62 138.801 205.378 139.593C205.137 140.386 205.583 141.224 206.376 141.465L207.25 138.596ZM212.328 143.323C213.117 143.574 213.961 143.138 214.213 142.349C214.464 141.56 214.029 140.716 213.239 140.464L212.328 143.323ZM219.203 142.399C218.416 142.14 217.568 142.567 217.309 143.354C217.05 144.141 217.478 144.989 218.265 145.248L219.203 142.399ZM224.154 147.187C224.942 147.441 225.787 147.006 226.04 146.218C226.293 145.429 225.859 144.584 225.07 144.331L224.154 147.187ZM230.891 146.122C230.096 145.888 229.263 146.343 229.029 147.138C228.795 147.933 229.25 148.766 230.045 149L230.891 146.122ZM235.986 150.662C236.787 150.874 237.608 150.396 237.82 149.596C238.032 148.795 237.555 147.974 236.754 147.762L235.986 150.662ZM242.657 149.23C241.85 149.043 241.044 149.545 240.856 150.352C240.669 151.159 241.171 151.965 241.978 152.152L242.657 149.23ZM248.018 153.45C248.831 153.61 249.62 153.081 249.78 152.268C249.94 151.455 249.411 150.667 248.598 150.507L248.018 153.45ZM254.575 151.568C253.757 151.439 252.989 151.998 252.86 152.816C252.731 153.635 253.29 154.403 254.108 154.532L254.575 151.568ZM260.243 155.367C261.066 155.461 261.809 154.87 261.903 154.047C261.997 153.224 261.406 152.481 260.583 152.387L260.243 155.367ZM266.613 152.932C265.787 152.878 265.072 153.504 265.018 154.33C264.964 155.157 265.59 155.871 266.416 155.926L266.613 152.932ZM272.621 156.169C273.449 156.178 274.129 155.515 274.138 154.686C274.148 153.858 273.484 153.179 272.656 153.169L272.621 156.169ZM278.69 153.059C277.863 153.1 277.225 153.803 277.266 154.631C277.307 155.458 278.011 156.096 278.839 156.055L278.69 153.059ZM285.046 155.538C285.869 155.44 286.457 154.694 286.359 153.871C286.261 153.049 285.515 152.461 284.693 152.559L285.046 155.538ZM290.63 151.625C289.818 151.786 289.289 152.575 289.45 153.387C289.61 154.2 290.399 154.729 291.212 154.568L290.63 151.625ZM297.291 153.098C298.087 152.868 298.547 152.037 298.317 151.241C298.087 150.445 297.256 149.986 296.46 150.215L297.291 153.098ZM302.128 148.294C301.357 148.597 300.978 149.467 301.28 150.238C301.583 151.009 302.454 151.389 303.225 151.086L302.128 148.294ZM308.847 148.19C309.543 147.742 309.744 146.814 309.295 146.117C308.847 145.421 307.919 145.22 307.222 145.668L308.847 148.19ZM312.019 142.324C311.358 142.823 311.227 143.764 311.726 144.425C312.225 145.086 313.166 145.217 313.827 144.718L312.019 142.324ZM318.53 140.856C319.147 140.304 319.2 139.355 318.648 138.738C318.096 138.12 317.147 138.067 316.53 138.62L318.53 140.856ZM320.694 134.546C320.129 135.152 320.163 136.101 320.769 136.666C321.375 137.23 322.324 137.197 322.889 136.591L320.694 134.546ZM326.83 131.928C327.333 131.269 327.206 130.328 326.548 129.825C325.89 129.322 324.948 129.448 324.445 130.107L326.83 131.928ZM327.725 125.322C327.293 126.029 327.515 126.952 328.222 127.384C328.929 127.817 329.852 127.594 330.284 126.887L327.725 125.322ZM333.197 121.507C333.552 120.759 333.233 119.864 332.485 119.509C331.736 119.154 330.842 119.473 330.486 120.221L333.197 121.507ZM332.693 114.857C332.418 115.639 332.83 116.495 333.611 116.77C334.393 117.044 335.249 116.633 335.523 115.852L332.693 114.857ZM337.251 109.99C337.444 109.185 336.949 108.375 336.143 108.181C335.338 107.987 334.528 108.483 334.334 109.289L337.251 109.99ZM335.418 103.576C335.302 104.397 335.873 105.155 336.693 105.271C337.514 105.387 338.273 104.815 338.388 103.995L335.418 103.576ZM338.966 97.9284C339.009 97.101 338.373 96.3959 337.545 96.3535C336.718 96.311 336.013 96.9473 335.97 97.7746L338.966 97.9284ZM336.03 91.9391C336.054 92.7672 336.746 93.4186 337.574 93.3941C338.402 93.3696 339.053 92.6785 339.029 91.8504L336.03 91.9391ZM338.624 85.7946C338.539 84.9706 337.802 84.3714 336.978 84.4563C336.154 84.5412 335.555 85.2781 335.64 86.1021L338.624 85.7946ZM334.844 80.2933C334.982 81.11 335.757 81.6594 336.574 81.5205C337.391 81.3815 337.94 80.6068 337.801 79.7901L334.844 80.2933ZM336.705 73.9703C336.511 73.1649 335.701 72.6693 334.895 72.8633C334.09 73.0573 333.594 73.8675 333.788 74.6729L336.705 73.9703ZM332.024 69.5957C332.371 70.3481 333.262 70.6771 334.014 70.3305C334.767 69.9839 335.096 69.093 334.749 68.3406L332.024 69.5957ZM331.783 63.1984C331.308 62.5196 330.372 62.3542 329.694 62.8291C329.015 63.304 328.85 64.2392 329.324 64.918L331.783 63.1984ZM325.868 60.6999C326.436 61.3026 327.386 61.3304 327.988 60.762C328.591 60.1937 328.619 59.2443 328.051 58.6416L325.868 60.6999ZM323.808 54.6318C323.178 54.0946 322.231 54.1704 321.694 54.8011C321.157 55.4318 321.233 56.3785 321.863 56.9156L323.808 54.6318ZM317.486 53.4857C318.156 53.9732 319.094 53.8253 319.582 53.1555C320.069 52.4856 319.922 51.5475 319.252 51.06L317.486 53.4857ZM314.517 47.801C313.824 47.3463 312.894 47.5391 312.44 48.2316C311.985 48.9241 312.178 49.8541 312.87 50.3088L314.517 47.801ZM308.112 47.2741C308.815 47.7133 309.74 47.5001 310.18 46.7977C310.619 46.0953 310.406 45.1698 309.703 44.7306L308.112 47.2741ZM304.304 42.073C303.526 41.7871 302.664 42.1855 302.378 42.963C302.092 43.7405 302.491 44.6027 303.268 44.8886L304.304 42.073ZM297.861 43.0544C298.654 43.2941 299.491 42.8454 299.73 42.0524C299.97 41.2594 299.521 40.4223 298.728 40.1827L297.861 43.0544ZM292.943 38.7487C292.128 38.5973 291.345 39.1348 291.194 39.9492C291.042 40.7637 291.58 41.5467 292.394 41.6981L292.943 38.7487ZM286.88 41.1103C287.708 41.1259 288.393 40.4672 288.408 39.6389C288.424 38.8106 287.765 38.1265 286.937 38.1108L286.88 41.1103ZM280.853 38.6268C280.04 38.7864 279.51 39.5748 279.67 40.3877C279.83 41.2006 280.618 41.7302 281.431 41.5706L280.853 38.6268ZM276.244 43.2239C277 42.8846 277.338 41.9968 276.998 41.2411C276.659 40.4853 275.771 40.1477 275.016 40.487L276.244 43.2239ZM269.77 43.0405C269.026 43.4051 268.718 44.3036 269.083 45.0475C269.448 45.7914 270.346 46.0989 271.09 45.7344L269.77 43.0405ZM266.233 48.4806C266.926 48.027 267.12 47.0973 266.666 46.4041C266.213 45.711 265.283 45.5168 264.59 45.9705L266.233 48.4806ZM259.836 49.6445C259.226 50.2052 259.186 51.1541 259.747 51.7639C260.307 52.3738 261.256 52.4136 261.866 51.8529L259.836 49.6445ZM258.25 55.923C258.73 55.2476 258.571 54.3112 257.896 53.8316C257.22 53.3519 256.284 53.5107 255.804 54.1862L258.25 55.923ZM252.924 58.9142C252.481 59.614 252.689 60.5407 253.389 60.984C254.089 61.4272 255.015 61.2192 255.459 60.5193L252.924 58.9142ZM253.415 64.6836C253.616 63.8801 253.128 63.0653 252.325 62.8637C251.521 62.6622 250.706 63.1502 250.505 63.9537L253.415 64.6836ZM249.714 69.2599C249.639 70.0849 250.246 70.815 251.071 70.8908C251.896 70.9665 252.626 70.3592 252.702 69.5342L249.714 69.2599ZM252.341 74.6181C252.388 73.791 251.756 73.0824 250.929 73.0354C250.102 72.9883 249.393 73.6207 249.346 74.4477L252.341 74.6181ZM249.904 80.574C250.075 81.3845 250.871 81.9027 251.681 81.7313C252.492 81.56 253.01 80.7641 252.839 79.9536L249.904 80.574ZM254.243 86.1846C254.043 85.3808 253.229 84.8913 252.425 85.0915C251.622 85.2917 251.132 86.1056 251.332 86.9095L254.243 86.1846ZM253.194 93.2241C253.471 94.005 254.328 94.4138 255.109 94.1372C255.89 93.8606 256.298 93.0033 256.022 92.2224L253.194 93.2241ZM258.529 97.8788C258.128 97.1539 257.215 96.8913 256.49 97.2923C255.766 97.6933 255.503 98.606 255.904 99.3309L258.529 97.8788ZM259.76 104.863C260.303 105.488 261.25 105.554 261.876 105.011C262.501 104.468 262.567 103.52 262.024 102.895L259.76 104.863ZM266.501 107.077C265.843 106.574 264.902 106.699 264.398 107.357C263.895 108.015 264.02 108.956 264.678 109.46L266.501 107.077ZM269.846 112.973C270.545 113.417 271.472 113.21 271.916 112.51C272.36 111.811 272.153 110.884 271.453 110.44L269.846 112.973ZM276.354 113.318C275.626 112.923 274.715 113.193 274.32 113.922C273.925 114.65 274.195 115.56 274.924 115.955L276.354 113.318ZM280.186 118.589C280.938 118.936 281.829 118.607 282.176 117.854C282.522 117.102 282.193 116.211 281.441 115.864L280.186 118.589ZM286.684 118.085C285.912 117.785 285.043 118.168 284.743 118.941C284.443 119.713 284.827 120.582 285.599 120.882L286.684 118.085ZM291.132 122.848C291.92 123.103 292.766 122.671 293.021 121.883C293.277 121.095 292.845 120.249 292.057 119.994L291.132 122.848ZM297.532 121.608C296.731 121.394 295.909 121.87 295.696 122.67C295.482 123.471 295.957 124.293 296.758 124.506L297.532 121.608ZM302.453 125.88C303.263 126.055 304.061 125.541 304.236 124.731C304.412 123.921 303.897 123.123 303.088 122.948L302.453 125.88ZM308.705 124.035C307.889 123.895 307.113 124.443 306.973 125.259C306.833 126.076 307.382 126.851 308.198 126.992L308.705 124.035ZM313.977 127.866C314.799 127.975 315.552 127.397 315.661 126.575C315.769 125.754 315.191 125 314.37 124.892L313.977 127.866ZM320.068 125.542C319.243 125.462 318.51 126.066 318.43 126.89C318.35 127.715 318.954 128.448 319.779 128.528L320.068 125.542ZM325.593 128.999C326.419 129.054 327.134 128.428 327.188 127.601C327.243 126.775 326.617 126.06 325.79 126.006L325.593 128.999ZM331.529 126.305C330.701 126.273 330.004 126.918 329.972 127.745C329.94 128.573 330.585 129.27 331.412 129.303L331.529 126.305ZM337.233 129.459C338.061 129.472 338.743 128.811 338.756 127.982C338.768 127.154 338.107 126.472 337.279 126.459L337.233 129.459ZM343.036 126.489C342.208 126.493 341.539 127.168 341.543 127.996C341.547 128.824 342.221 129.493 343.05 129.489L343.036 126.489ZM348.862 129.412C349.69 129.394 350.347 128.709 350.329 127.88C350.312 127.052 349.626 126.395 348.798 126.413L348.862 129.412ZM354.562 126.249C353.734 126.278 353.086 126.973 353.115 127.801C353.144 128.629 353.839 129.276 354.667 129.247L354.562 126.249ZM360.441 128.983C361.268 128.928 361.893 128.213 361.837 127.386C361.781 126.56 361.066 125.935 360.24 125.99L360.441 128.983ZM365.815 125.468C364.992 125.567 364.405 126.313 364.504 127.136C364.602 127.958 365.349 128.545 366.171 128.447L365.815 125.468ZM371.863 127.622C372.68 127.483 373.229 126.708 373.09 125.891C372.951 125.074 372.176 124.525 371.36 124.664L371.863 127.622ZM376.863 123.593C376.054 123.77 375.541 124.57 375.719 125.379C375.896 126.188 376.696 126.7 377.505 126.523L376.863 123.593ZM383.087 125.168C383.888 124.955 384.364 124.133 384.15 123.332C383.937 122.532 383.115 122.056 382.315 122.269L383.087 125.168ZM387.707 120.708C386.916 120.955 386.475 121.796 386.723 122.587C386.97 123.378 387.811 123.818 388.602 123.571L387.707 120.708ZM394.043 121.748C394.823 121.469 395.229 120.611 394.95 119.831C394.671 119.051 393.812 118.644 393.032 118.923L394.043 121.748ZM398.286 116.928C397.517 117.237 397.144 118.111 397.453 118.88C397.762 119.648 398.636 120.021 399.404 119.712L398.286 116.928ZM404.683 117.476C405.44 117.139 405.78 116.252 405.443 115.495C405.106 114.739 404.219 114.398 403.462 114.736L404.683 117.476ZM408.559 112.356C407.814 112.72 407.506 113.618 407.869 114.362C408.233 115.106 409.131 115.415 409.876 115.051L408.559 112.356ZM414.979 112.448C415.71 112.06 415.988 111.151 415.599 110.42C415.21 109.688 414.302 109.411 413.57 109.8L414.979 112.448ZM418.495 107.076C417.777 107.488 417.529 108.405 417.942 109.124C418.355 109.842 419.272 110.089 419.99 109.677L418.495 107.076ZM424.908 106.744C425.612 106.309 425.831 105.384 425.395 104.679C424.959 103.975 424.035 103.757 423.33 104.192L424.908 106.744ZM428.073 101.157C427.382 101.614 427.193 102.545 427.65 103.236C428.108 103.926 429.038 104.115 429.729 103.658L428.073 101.157ZM434.452 100.424C435.128 99.9457 435.288 99.0096 434.81 98.3333C434.331 97.657 433.395 97.4967 432.719 97.9752L434.452 100.424ZM437.266 94.6528C436.605 95.1516 436.473 96.0922 436.972 96.7536C437.471 97.415 438.411 97.5468 439.073 97.048L437.266 94.6528ZM443.78 93.389C444.427 92.8723 444.533 91.9285 444.016 91.281C443.5 90.6334 442.556 90.5274 441.908 91.0441L443.78 93.389ZM446.65 87.1604C446.016 87.6936 445.934 88.6399 446.468 89.2739C447.001 89.9079 447.947 89.9895 448.581 89.4563L446.65 87.1604ZM453.277 85.3955C453.896 84.8449 453.951 83.8967 453.401 83.2778C452.85 82.6589 451.902 82.6035 451.283 83.1541L453.277 85.3955ZM455.796 79.0176C455.194 79.5866 455.167 80.536 455.736 81.1381C456.305 81.7402 457.254 81.7671 457.856 81.1981L455.796 79.0176ZM462.305 76.8566C462.888 76.2683 462.884 75.3186 462.296 74.7353C461.708 74.1521 460.758 74.1562 460.175 74.7445L462.305 76.8566ZM464.402 70.3284C463.84 70.937 463.878 71.886 464.487 72.448C465.095 73.01 466.044 72.9723 466.606 72.3636L464.402 70.3284ZM470.742 67.7108C471.28 67.0809 471.205 66.1341 470.575 65.596C469.945 65.0579 468.999 65.1324 468.46 65.7623L470.742 67.7108ZM472.327 61.0403C471.816 61.6924 471.93 62.6352 472.582 63.1461C473.235 63.6571 474.177 63.5427 474.688 62.8906L472.327 61.0403ZM478.422 57.8953C478.902 57.2203 478.744 56.2837 478.069 55.8035C477.394 55.3233 476.458 55.4812 475.977 56.1562L478.422 57.8953ZM479.383 51.107C478.937 51.8055 479.143 52.7329 479.841 53.1782C480.54 53.6236 481.467 53.4184 481.912 52.7199L479.383 51.107ZM485.127 47.3609C485.533 46.6388 485.276 45.7242 484.554 45.3183C483.832 44.9123 482.918 45.1686 482.512 45.8908L485.127 47.3609ZM485.33 40.5081C484.968 41.2535 485.279 42.1508 486.025 42.5124C486.77 42.8739 487.667 42.5627 488.029 41.8173L485.33 40.5081ZM490.564 36.06C490.864 35.2876 490.48 34.4187 489.708 34.1192C488.936 33.8197 488.067 34.203 487.767 34.9754L490.564 36.06ZM489.702 29.2491C489.469 30.0441 489.925 30.8774 490.72 31.1104C491.515 31.3433 492.348 30.8877 492.581 30.0927L489.702 29.2491ZM494.138 24.0199C494.319 23.2115 493.811 22.4094 493.003 22.2282C492.194 22.047 491.392 22.5555 491.211 23.3638L494.138 24.0199ZM492.405 17.3743C492.26 18.1898 492.803 18.969 493.618 19.1147C494.434 19.2604 495.213 18.7174 495.359 17.9018L492.405 17.3743ZM496.369 11.7763C496.496 10.9576 495.935 10.1912 495.116 10.0645C494.297 9.93786 493.531 10.4988 493.404 11.3175L496.369 11.7763ZM494.328 5.218C494.204 6.03707 494.767 6.80173 495.586 6.92594C496.405 7.05014 497.17 6.48684 497.294 5.66778L494.328 5.218ZM13.5 244.995C13.5 243.983 13.5 242.979 13.5011 241.981L10.5011 241.977C10.5 242.978 10.5 243.983 10.5 244.995H13.5ZM13.5311 235.968C13.5525 233.946 13.5884 231.949 13.6487 229.973L10.6501 229.881C10.589 231.883 10.5528 233.9 10.5313 235.937L13.5311 235.968ZM13.9196 224C14.0439 222.002 14.2048 220.023 14.4131 218.059L11.4299 217.743C11.2163 219.755 11.052 221.778 10.9254 223.814L13.9196 224ZM15.1977 212.168C15.5143 210.219 15.8898 208.281 16.335 206.351L13.4117 205.676C12.9507 207.676 12.5629 209.678 12.2365 211.687L15.1977 212.168ZM17.8714 200.639C18.4462 198.78 19.0966 196.923 19.8327 195.065L17.0436 193.96C16.2782 195.892 15.6023 197.822 15.0053 199.752L17.8714 200.639ZM22.2208 189.661C22.6493 188.784 23.0991 187.906 23.5711 187.026L20.9276 185.608C20.4377 186.521 19.9707 187.432 19.5256 188.343L22.2208 189.661ZM23.5711 187.026C23.997 186.232 24.4091 185.452 24.8108 184.686L22.1536 183.293C21.755 184.054 21.3476 184.825 20.9276 185.608L23.5711 187.026ZM27.243 180.02C28.0743 178.437 28.8899 176.917 29.7323 175.446L27.1291 173.955C26.26 175.472 25.425 177.029 24.5868 178.626L27.243 180.02ZM32.446 171.073C33.3924 169.682 34.4065 168.332 35.5291 167.012L33.2443 165.068C32.0442 166.479 30.9653 167.916 29.9654 169.386L32.446 171.073ZM39.0449 163.338C39.6522 162.773 40.2894 162.211 40.9603 161.652L39.0397 159.348C38.3272 159.941 37.6488 160.539 37.001 161.142L39.0449 163.338ZM40.9603 161.652C41.8296 160.928 42.6839 160.218 43.5225 159.524L41.6099 157.212C40.7678 157.909 39.9107 158.622 39.0397 159.348L40.9603 161.652ZM48.6733 155.321C50.5249 153.839 52.2713 152.482 53.9043 151.277L52.1232 148.863C50.4486 150.099 48.6695 151.482 46.7988 152.979L48.6733 155.321ZM59.3048 147.631C60.3272 147.026 61.2561 146.544 62.0909 146.186L60.9091 143.428C59.9241 143.851 58.8775 144.398 57.7785 145.048L59.3048 147.631ZM62.0909 146.186C62.9049 145.837 63.7182 145.495 64.5312 145.159L63.3852 142.386C62.5604 142.727 61.7351 143.074 60.9091 143.428L62.0909 146.186ZM69.4511 143.197C71.1058 142.561 72.7611 141.949 74.4192 141.356L73.4095 138.531C71.73 139.131 70.0525 139.752 68.3749 140.397L69.4511 143.197ZM79.4306 139.627C81.108 139.068 82.7904 138.528 84.48 138.001L83.5881 135.137C81.8809 135.669 80.1798 136.216 78.4828 136.781L79.4306 139.627ZM89.5619 136.468C91.2551 135.972 92.9575 135.489 94.6713 135.014L93.8703 132.123C92.1438 132.601 90.4275 133.089 88.7192 133.589L89.5619 136.468ZM99.8033 133.626C100.658 133.4 101.515 133.175 102.376 132.952L101.624 130.048C100.758 130.272 99.8957 130.498 99.0364 130.725L99.8033 133.626ZM102.174 132.99C103.131 132.878 104.088 132.773 105.047 132.675L104.741 129.691C103.769 129.79 102.797 129.897 101.826 130.01L102.174 132.99ZM110.809 132.16C112.733 132.012 114.659 131.886 116.587 131.78L116.422 128.784C114.474 128.892 112.526 129.019 110.579 129.169L110.809 132.16ZM122.377 131.515C124.31 131.443 126.244 131.387 128.176 131.343L128.108 128.344C126.164 128.388 124.216 128.444 122.266 128.517L122.377 131.515ZM133.981 131.246C135.922 131.223 137.86 131.21 139.793 131.202L139.781 128.202C137.842 128.21 135.897 128.224 133.947 128.246L133.981 131.246ZM145.611 131.19C146.583 131.189 147.553 131.189 148.521 131.189V128.189C147.553 128.189 146.582 128.189 145.609 128.19L145.611 131.19ZM148.521 131.189C149.552 131.189 150.582 131.202 151.612 131.227L151.685 128.228C150.631 128.202 149.576 128.189 148.521 128.189V131.189ZM157.792 131.518C159.849 131.66 161.904 131.848 163.959 132.076L164.29 129.094C162.197 128.862 160.1 128.671 158 128.525L157.792 131.518ZM170.105 132.878C172.148 133.182 174.188 133.524 176.225 133.898L176.767 130.947C174.699 130.567 172.625 130.22 170.548 129.91L170.105 132.878ZM182.315 135.112C184.339 135.547 186.358 136.01 188.374 136.498L189.08 133.582C187.041 133.088 184.995 132.619 182.945 132.179L182.315 135.112ZM194.402 138.033C196.408 138.567 198.408 139.122 200.402 139.695L201.23 136.812C199.219 136.234 197.2 135.674 195.174 135.134L194.402 138.033ZM206.376 141.465C208.367 142.072 210.351 142.692 212.328 143.323L213.239 140.464C211.252 139.831 209.255 139.206 207.25 138.596L206.376 141.465ZM218.265 145.248C219.254 145.574 220.242 145.902 221.227 146.23L222.176 143.384C221.188 143.055 220.197 142.726 219.203 142.399L218.265 145.248ZM221.227 146.23C222.194 146.552 223.17 146.872 224.154 147.187L225.07 144.331C224.098 144.019 223.133 143.703 222.176 143.384L221.227 146.23ZM230.045 149C232.001 149.576 233.984 150.132 235.986 150.662L236.754 147.762C234.779 147.239 232.823 146.691 230.891 146.122L230.045 149ZM241.978 152.152C243.977 152.617 245.992 153.052 248.018 153.45L248.598 150.507C246.607 150.115 244.625 149.688 242.657 149.23L241.978 152.152ZM254.108 154.532C256.147 154.853 258.194 155.134 260.243 155.367L260.583 152.387C258.579 152.158 256.575 151.883 254.575 151.568L254.108 154.532ZM266.416 155.926C268.488 156.062 270.558 156.145 272.621 156.169L272.656 153.169C270.649 153.146 268.634 153.065 266.613 152.932L266.416 155.926ZM278.839 156.055C280.921 155.952 282.991 155.782 285.046 155.538L284.693 152.559C282.71 152.794 280.707 152.959 278.69 153.059L278.839 156.055ZM291.212 154.568C293.262 154.163 295.29 153.675 297.291 153.098L296.46 150.215C294.545 150.768 292.6 151.236 290.63 151.625L291.212 154.568ZM303.225 151.086C304.197 150.704 305.161 150.298 306.117 149.867L304.883 147.133C303.974 147.543 303.055 147.93 302.128 148.294L303.225 151.086ZM306.268 149.788C307.147 149.264 308.006 148.732 308.847 148.19L307.222 145.668C306.411 146.19 305.581 146.705 304.732 147.212L306.268 149.788ZM313.827 144.718C315.482 143.468 317.049 142.18 318.53 140.856L316.53 138.62C315.112 139.887 313.61 141.123 312.019 142.324L313.827 144.718ZM322.889 136.591C324.3 135.076 325.613 133.521 326.83 131.928L324.445 130.107C323.289 131.621 322.04 133.101 320.694 134.546L322.889 136.591ZM330.284 126.887C331.359 125.131 332.328 123.337 333.197 121.507L330.486 120.221C329.663 121.955 328.744 123.656 327.725 125.322L330.284 126.887ZM335.523 115.852C336.199 113.929 336.774 111.974 337.251 109.99L334.334 109.289C333.88 111.175 333.334 113.032 332.693 114.857L335.523 115.852ZM338.388 103.995C338.67 101.996 338.862 99.9727 338.966 97.9284L335.97 97.7746C335.87 99.7334 335.687 101.668 335.418 103.576L338.388 103.995ZM339.029 91.8504C338.969 89.8478 338.833 87.8283 338.624 85.7946L335.64 86.1021C335.842 88.0661 335.973 90.0125 336.03 91.9391L339.029 91.8504ZM337.801 79.7901C337.633 78.8007 337.448 77.8084 337.248 76.8137L334.307 77.4065C334.501 78.3721 334.68 79.3344 334.844 80.2933L337.801 79.7901ZM337.262 76.9002C337.121 75.8976 336.934 74.9214 336.705 73.9703L333.788 74.6729C333.995 75.5305 334.164 76.4124 334.292 77.3201L337.262 76.9002ZM334.749 68.3406C333.91 66.5196 332.91 64.8102 331.783 63.1984L329.324 64.918C330.358 66.3957 331.266 67.9505 332.024 69.5957L334.749 68.3406ZM328.051 58.6416C326.719 57.2293 325.294 55.8972 323.808 54.6318L321.863 56.9156C323.279 58.1215 324.622 59.3788 325.868 60.6999L328.051 58.6416ZM319.252 51.06C317.698 49.929 316.109 48.8466 314.517 47.801L312.87 50.3088C314.435 51.3358 315.981 52.3904 317.486 53.4857L319.252 51.06ZM309.703 44.7306C308.895 44.2248 308.088 43.7227 307.294 43.2275L305.706 45.7725C306.504 46.2707 307.305 46.769 308.112 47.2741L309.703 44.7306ZM307.034 43.0983C306.134 42.7555 305.223 42.4112 304.304 42.073L303.268 44.8886C304.172 45.221 305.071 45.5606 305.966 45.9017L307.034 43.0983ZM298.728 40.1827C296.833 39.6101 294.902 39.1129 292.943 38.7487L292.394 41.6981C294.221 42.0378 296.044 42.5055 297.861 43.0544L298.728 40.1827ZM286.937 38.1108C284.928 38.0728 282.897 38.2254 280.853 38.6268L281.431 41.5706C283.246 41.2142 285.063 41.0759 286.88 41.1103L286.937 38.1108ZM275.016 40.487C274.107 40.8951 273.2 41.3611 272.295 41.8894L273.807 44.4801C274.622 44.0048 275.434 43.5877 276.244 43.2239L275.016 40.487ZM272.459 41.8066C271.572 42.1879 270.672 42.5982 269.77 43.0405L271.09 45.7344C271.944 45.316 272.798 44.9263 273.643 44.5629L272.459 41.8066ZM264.59 45.9705C262.936 47.0532 261.329 48.2713 259.836 49.6445L261.866 51.8529C263.222 50.6061 264.695 49.4869 266.233 48.4806L264.59 45.9705ZM255.804 54.1862C255.219 55.0104 254.676 55.8756 254.182 56.7837L256.818 58.2163C257.252 57.4174 257.731 56.6536 258.25 55.923L255.804 54.1862ZM254.182 56.7837C253.714 57.6452 253.299 58.3217 252.924 58.9142L255.459 60.5193C255.855 59.8933 256.307 59.1561 256.818 58.2163L254.182 56.7837ZM250.505 63.9537C250.178 65.2571 249.929 66.9189 249.714 69.2599L252.702 69.5342C252.911 67.253 253.143 65.7676 253.415 64.6836L250.505 63.9537ZM249.346 74.4477C249.3 75.2546 249.255 76.1159 249.209 77.0364L252.206 77.1838C252.251 76.2696 252.296 75.4161 252.341 74.6181L249.346 74.4477ZM249.24 77.4204C249.352 77.9523 249.463 78.4807 249.574 79.0064C249.684 79.5318 249.794 80.0547 249.904 80.574L252.839 79.9536C252.73 79.4366 252.62 78.9156 252.51 78.3898C252.399 77.8643 252.288 77.334 252.175 76.7999L249.24 77.4204ZM251.332 86.9095C251.872 89.0757 252.472 91.1847 253.194 93.2241L256.022 92.2224C255.341 90.3013 254.768 88.2905 254.243 86.1846L251.332 86.9095ZM255.904 99.3309C256.972 101.262 258.235 103.109 259.76 104.863L262.024 102.895C260.648 101.311 259.503 99.6394 258.529 97.8788L255.904 99.3309ZM264.678 109.46C265.539 110.118 266.454 110.758 267.428 111.378L269.04 108.848C268.136 108.272 267.292 107.682 266.501 107.077L264.678 109.46ZM267.386 111.35C268.199 111.907 269.019 112.448 269.846 112.973L271.453 110.44C270.656 109.934 269.865 109.412 269.082 108.876L267.386 111.35ZM274.924 115.955C276.653 116.894 278.408 117.77 280.186 118.589L281.441 115.864C279.721 115.072 278.025 114.224 276.354 113.318L274.924 115.955ZM285.599 120.882C287.424 121.59 289.27 122.245 291.132 122.848L292.057 119.994C290.246 119.407 288.455 118.772 286.684 118.085L285.599 120.882ZM296.758 124.506C298.643 125.01 300.542 125.466 302.453 125.88L303.088 122.948C301.221 122.544 299.369 122.098 297.532 121.608L296.758 124.506ZM308.198 126.992C310.117 127.321 312.044 127.611 313.977 127.866L314.37 124.892C312.473 124.642 310.584 124.357 308.705 124.035L308.198 126.992ZM319.779 128.528C321.714 128.715 323.653 128.871 325.593 128.999L325.79 126.006C323.879 125.88 321.971 125.726 320.068 125.542L319.779 128.528ZM331.412 129.303C333.355 129.378 335.296 129.429 337.233 129.459L337.279 126.459C335.364 126.43 333.446 126.379 331.529 126.305L331.412 129.303ZM343.05 129.489C344.995 129.48 346.933 129.453 348.862 129.412L348.798 126.413C346.884 126.454 344.963 126.48 343.036 126.489L343.05 129.489ZM354.667 129.247C355.636 129.214 356.603 129.177 357.566 129.138L357.445 126.141C356.487 126.179 355.526 126.216 354.562 126.249L354.667 129.247ZM357.566 129.138C358.525 129.1 359.484 129.048 360.441 128.983L360.24 125.99C359.309 126.053 358.377 126.103 357.445 126.141L357.566 129.138ZM366.171 128.447C368.073 128.219 369.971 127.944 371.863 127.622L371.36 124.664C369.515 124.978 367.666 125.247 365.815 125.468L366.171 128.447ZM377.505 126.523C379.373 126.114 381.234 125.661 383.087 125.168L382.315 122.269C380.504 122.751 378.686 123.193 376.863 123.593L377.505 126.523ZM388.602 123.571C390.425 123.001 392.24 122.393 394.043 121.748L393.032 118.923C391.267 119.555 389.491 120.15 387.707 120.708L388.602 123.571ZM399.404 119.712C401.177 119 402.937 118.254 404.683 117.476L403.462 114.736C401.749 115.499 400.023 116.23 398.286 116.928L399.404 119.712ZM409.876 115.051C411.592 114.213 413.293 113.344 414.979 112.448L413.57 109.8C411.915 110.68 410.244 111.532 408.559 112.356L409.876 115.051ZM419.99 109.677C421.648 108.724 423.287 107.746 424.908 106.744L423.33 104.192C421.737 105.178 420.125 106.139 418.495 107.076L419.99 109.677ZM429.729 103.658C431.325 102.601 432.899 101.523 434.452 100.424L432.719 97.9752C431.191 99.056 429.642 100.117 428.073 101.157L429.729 103.658ZM439.073 97.048C439.836 96.4724 440.593 95.8923 441.344 95.3079L439.502 92.9403C438.763 93.5154 438.018 94.0863 437.266 94.6528L439.073 97.048ZM441.344 95.3079C442.157 94.6758 442.969 94.0361 443.78 93.389L441.908 91.0441C441.107 91.6834 440.305 92.3155 439.502 92.9403L441.344 95.3079ZM448.581 89.4563C450.157 88.131 451.724 86.7772 453.277 85.3955L451.283 83.1541C449.751 84.5166 448.206 85.8522 446.65 87.1604L448.581 89.4563ZM457.856 81.1981C459.359 79.7779 460.844 78.3306 462.305 76.8566L460.175 74.7445C458.737 76.1943 457.276 77.6188 455.796 79.0176L457.856 81.1981ZM466.606 72.3636C468.014 70.8389 469.394 69.2878 470.742 67.7108L468.46 65.7623C467.14 67.3086 465.785 68.8308 464.402 70.3284L466.606 72.3636ZM474.688 62.8906C475.973 61.2514 477.219 59.5862 478.422 57.8953L475.977 56.1562C474.802 57.8078 473.584 59.436 472.327 61.0403L474.688 62.8906ZM481.912 52.7199C483.035 50.9594 484.108 49.1729 485.127 47.3609L482.512 45.8908C481.521 47.6525 480.477 49.3914 479.383 51.107L481.912 52.7199ZM488.029 41.8173C488.485 40.8774 488.925 39.931 489.35 38.9783L486.61 37.7568C486.199 38.6795 485.772 39.5967 485.33 40.5081L488.029 41.8173ZM489.35 38.9783C489.781 38.0121 490.185 37.039 490.564 36.06L487.767 34.9754C487.405 35.9104 487.02 36.8378 486.61 37.7568L489.35 38.9783ZM492.581 30.0927C493.17 28.0827 493.682 26.0558 494.138 24.0199L491.211 23.3638C490.766 25.3473 490.27 27.3107 489.702 29.2491L492.581 30.0927ZM495.359 17.9018C495.723 15.8613 496.053 13.8161 496.369 11.7763L493.404 11.3175C493.091 13.3455 492.764 15.3655 492.405 17.3743L495.359 17.9018ZM497.294 5.66778C497.449 4.65098 497.604 3.63714 497.764 2.62628L494.8 2.15839C494.639 3.17756 494.483 4.19797 494.328 5.218L497.294 5.66778Z" fill="#CECECE"/>
</svg>
