<svg width="78" height="100" viewBox="0 0 78 100" fill="none" xmlns="http://www.w3.org/2000/svg">
<path d="M70.3897 6.91145H57.061C56.3365 4.90497 54.3068 3.45572 51.9205 3.45572H46.2837C44.573 1.30346 41.8631 0 38.9921 0C36.1213 0 33.4112 1.30346 31.7002 3.45572H26.0637C23.6775 3.45572 21.6477 4.90497 20.9232 6.91145H7.59451C3.58462 6.91145 0.322266 9.9635 0.322266 13.7149V93.1965C0.322266 96.9479 3.58462 100 7.59451 100H70.3897C74.3996 100 77.662 96.9479 77.662 93.1965V13.7149C77.662 9.9635 74.3996 6.91145 70.3897 6.91145ZM26.0637 18.7905H51.9205C53.5419 18.7905 54.9984 18.1207 55.9932 17.0626H66.8113V89.8488H11.1729V17.0626H21.991C22.9858 18.1207 24.4423 18.7905 26.0637 18.7905ZM26.0637 6.69546H32.629C33.2454 6.69546 33.8154 6.38899 34.1255 5.8905C35.1581 4.23067 36.9774 3.23974 38.9921 3.23974C41.0071 3.23974 42.8261 4.23067 43.8585 5.89028C44.1686 6.38877 44.7388 6.69546 45.355 6.69546H51.9205C53.0026 6.69546 53.8829 7.51901 53.8829 8.53132V13.7149C53.8829 14.7272 53.0026 15.5508 51.9205 15.5508H26.0637C24.9816 15.5508 24.1013 14.7272 24.1013 13.7149V8.53132C24.1013 7.51901 24.9816 6.69546 26.0637 6.69546ZM74.199 93.1965C74.199 95.1616 72.4901 96.7603 70.3897 96.7603H7.59451C5.4941 96.7603 3.78524 95.1616 3.78524 93.1965V13.7149C3.78524 11.7499 5.4941 10.1512 7.59451 10.1512H20.6384V13.7149C20.6384 13.7512 20.6404 13.7868 20.6414 13.8229H9.44142C8.48495 13.8229 7.70994 14.5482 7.70994 15.4428V91.4687C7.70994 92.3633 8.48495 93.0886 9.44142 93.0886H68.5428C69.4993 93.0886 70.2743 92.3633 70.2743 91.4687V15.4428C70.2743 14.5482 69.4993 13.8229 68.5428 13.8229H57.3429C57.3438 13.7868 57.3459 13.7512 57.3459 13.7149V10.1512H70.3897C72.4901 10.1512 74.199 11.7499 74.199 13.7149V93.1965Z" fill="#86B5E8"/>
<path d="M38.9932 10.1511C39.4501 10.1511 39.8959 9.97833 40.2168 9.67596C40.54 9.37574 40.7247 8.95673 40.7247 8.53125C40.7247 8.10576 40.54 7.68675 40.2168 7.38654C39.8959 7.08416 39.4503 6.91138 38.9932 6.91138C38.5361 6.91138 38.0905 7.08416 37.7696 7.38654C37.4464 7.68675 37.2617 8.1036 37.2617 8.53125C37.2617 8.95889 37.4464 9.37574 37.7696 9.67596C38.0905 9.97833 38.5361 10.1511 38.9932 10.1511Z" fill="#86B5E8"/>
<path d="M27.9112 34.3413H59.3088C60.2652 34.3413 61.0402 33.616 61.0402 32.7214C61.0402 31.8268 60.2652 31.1016 59.3088 31.1016H27.9112C26.9547 31.1016 26.1797 31.8268 26.1797 32.7214C26.1797 33.616 26.9547 34.3413 27.9112 34.3413Z" fill="#86B5E8"/>
<path d="M27.9112 51.6199H59.3088C60.2652 51.6199 61.0402 50.8946 61.0402 50C61.0402 49.1054 60.2652 48.3801 59.3088 48.3801H27.9112C26.9547 48.3801 26.1797 49.1054 26.1797 50C26.1797 50.8946 26.9547 51.6199 27.9112 51.6199Z" fill="#86B5E8"/>
<path d="M27.9112 68.8984H33.4519C34.4084 68.8984 35.1834 68.1732 35.1834 67.2786C35.1834 66.384 34.4084 65.6587 33.4519 65.6587H27.9112C26.9547 65.6587 26.1797 66.384 26.1797 67.2786C26.1797 68.1732 26.9547 68.8984 27.9112 68.8984Z" fill="#86B5E8"/>
<path d="M27.9112 42.9805H59.3088C60.2652 42.9805 61.0402 42.2552 61.0402 41.3606C61.0402 40.466 60.2652 39.7407 59.3088 39.7407H27.9112C26.9547 39.7407 26.1797 40.466 26.1797 41.3606C26.1797 42.2552 26.9547 42.9805 27.9112 42.9805Z" fill="#86B5E8"/>
<path d="M27.9112 60.2593H35.2988C36.2553 60.2593 37.0303 59.534 37.0303 58.6394C37.0303 57.7448 36.2553 57.0195 35.2988 57.0195H27.9112C26.9547 57.0195 26.1797 57.7448 26.1797 58.6394C26.1797 59.534 26.9547 60.2593 27.9112 60.2593Z" fill="#86B5E8"/>
<path d="M27.9112 77.5378H35.2988C36.2553 77.5378 37.0303 76.8126 37.0303 75.918C37.0303 75.0234 36.2553 74.2981 35.2988 74.2981H27.9112C26.9547 74.2981 26.1797 75.0234 26.1797 75.918C26.1797 76.8126 26.9547 77.5378 27.9112 77.5378Z" fill="#86B5E8"/>
<path d="M18.6768 34.3413H20.5237C21.4802 34.3413 22.2552 33.616 22.2552 32.7214C22.2552 31.8268 21.4802 31.1016 20.5237 31.1016H18.6768C17.7203 31.1016 16.9453 31.8268 16.9453 32.7214C16.9453 33.616 17.7203 34.3413 18.6768 34.3413Z" fill="#86B5E8"/>
<path d="M18.6768 51.6199H20.5237C21.4802 51.6199 22.2552 50.8946 22.2552 50C22.2552 49.1054 21.4802 48.3801 20.5237 48.3801H18.6768C17.7203 48.3801 16.9453 49.1054 16.9453 50C16.9453 50.8946 17.7203 51.6199 18.6768 51.6199Z" fill="#86B5E8"/>
<path d="M18.6768 68.8984H20.5237C21.4802 68.8984 22.2552 68.1732 22.2552 67.2786C22.2552 66.384 21.4802 65.6587 20.5237 65.6587H18.6768C17.7203 65.6587 16.9453 66.384 16.9453 67.2786C16.9453 68.1732 17.7203 68.8984 18.6768 68.8984Z" fill="#86B5E8"/>
<path d="M18.6768 42.9805H20.5237C21.4802 42.9805 22.2552 42.2552 22.2552 41.3606C22.2552 40.466 21.4802 39.7407 20.5237 39.7407H18.6768C17.7203 39.7407 16.9453 40.466 16.9453 41.3606C16.9453 42.2552 17.7203 42.9805 18.6768 42.9805Z" fill="#86B5E8"/>
<path d="M18.6768 60.2593H20.5237C21.4802 60.2593 22.2552 59.534 22.2552 58.6394C22.2552 57.7448 21.4802 57.0195 20.5237 57.0195H18.6768C17.7203 57.0195 16.9453 57.7448 16.9453 58.6394C16.9453 59.534 17.7203 60.2593 18.6768 60.2593Z" fill="#86B5E8"/>
<path d="M18.6768 77.5378H20.5237C21.4802 77.5378 22.2552 76.8126 22.2552 75.918C22.2552 75.0234 21.4802 74.2981 20.5237 74.2981H18.6768C17.7203 74.2981 16.9453 75.0234 16.9453 75.918C16.9453 76.8126 17.7203 77.5378 18.6768 77.5378Z" fill="#86B5E8"/>
<path d="M50.0735 57.0195C44.0269 57.0195 39.1074 61.6219 39.1074 67.2787C39.1074 72.9355 44.0269 77.5379 50.0735 77.5379C52.5167 77.5379 54.7755 76.7858 56.6005 75.5169C56.6176 75.5057 56.6363 75.4979 56.6531 75.4861C56.6993 75.4537 56.7429 75.4193 56.7847 75.3837C59.3706 73.5053 61.0396 70.5718 61.0396 67.2787C61.0396 61.6219 56.1201 57.0195 50.0735 57.0195ZM48.342 60.45V65.6588H42.7742C43.4264 63.0873 45.5933 61.0601 48.342 60.45ZM42.7742 68.8986H49.2077L53.0676 73.7133C52.1497 74.0884 51.1375 74.2981 50.0735 74.2981C46.5323 74.2981 43.5583 71.9904 42.7742 68.8986ZM55.8366 71.7677L51.805 66.7388V60.45C55.1098 61.1835 57.5766 63.9658 57.5766 67.2787C57.5766 68.9845 56.9221 70.55 55.8366 71.7677Z" fill="#86B5E8"/>
</svg>
