<svg width="449" height="373" viewBox="0 0 449 373" fill="none" xmlns="http://www.w3.org/2000/svg">
<path d="M72.9054 3.3567C73.6547 3.00335 73.9757 2.10948 73.6223 1.36019C73.2689 0.610903 72.3751 0.28994 71.6258 0.643297L72.9054 3.3567ZM14.1584 54.5261L15.5123 55.1719L14.1584 54.5261ZM2.93427 120.554L4.42189 120.362L2.93427 120.554ZM38.2952 186.418L37.1887 187.43L38.2952 186.418ZM156.298 221.243L156.336 222.742L156.298 221.243ZM210.928 207.165L211.561 208.525L210.928 207.165ZM244.303 184.606L245.394 185.636L245.464 185.561L245.523 185.478L244.303 184.606ZM250 127.5L248.939 128.561L250 127.5ZM219.5 120.5L219.819 121.966L220.065 121.912L220.28 121.781L219.5 120.5ZM188 144.5L186.858 143.527L186.758 143.645L186.684 143.78L188 144.5ZM174.5 177.624L173.036 177.297L174.5 177.624ZM188 243.5L186.765 244.351L188 243.5ZM374.622 288.177L375.196 286.791L374.622 288.177ZM435.939 372.061C436.525 372.646 437.475 372.646 438.061 372.061L447.607 362.515C448.192 361.929 448.192 360.979 447.607 360.393C447.021 359.808 446.071 359.808 445.485 360.393L437 368.879L428.515 360.393C427.929 359.808 426.979 359.808 426.393 360.393C425.808 360.979 425.808 361.929 426.393 362.515L435.939 372.061ZM69.0311 1.88543C68.286 2.24758 67.9756 3.14517 68.3377 3.89024C68.6999 4.63532 69.5975 4.94574 70.3425 4.58359L69.0311 1.88543ZM65.2671 7.13182C66.0024 6.75012 66.289 5.84465 65.9073 5.10939C65.5256 4.37414 64.6201 4.08753 63.8849 4.46923L65.2671 7.13182ZM58.8084 7.2016C58.0851 7.6056 57.8264 8.51941 58.2304 9.24265C58.6344 9.96589 59.5482 10.2247 60.2714 9.82068L58.8084 7.2016ZM55.3729 12.6684C56.0815 12.2393 56.308 11.3169 55.8789 10.6083C55.4497 9.89973 54.5274 9.6732 53.8188 10.1024L55.3729 12.6684ZM48.9365 13.1916C48.2457 13.6488 48.0562 14.5794 48.5134 15.2703C48.9705 15.9612 49.9012 16.1506 50.5921 15.6935L48.9365 13.1916ZM45.9519 18.9136C46.6215 18.4258 46.7688 17.4876 46.281 16.818C45.7932 16.1484 44.855 16.0011 44.1854 16.4889L45.9519 18.9136ZM39.589 20.0139C38.9446 20.5346 38.8444 21.4791 39.3651 22.1234C39.8858 22.7678 40.8302 22.868 41.4746 22.3473L39.589 20.0139ZM37.1885 26.0063C37.8034 25.4512 37.8519 24.5027 37.2968 23.8878C36.7416 23.2728 35.7931 23.2244 35.1782 23.7795L37.1885 26.0063ZM30.9848 27.7917C30.4034 28.3819 30.4105 29.3316 31.0006 29.913C31.5907 30.4944 32.5405 30.4873 33.1219 29.8972L30.9848 27.7917ZM29.298 34.0226C29.8422 33.398 29.7769 32.4505 29.1523 31.9063C28.5276 31.3622 27.5801 31.4274 27.036 32.0521L29.298 34.0226ZM23.358 36.5507C22.854 37.2082 22.9785 38.1497 23.636 38.6537C24.2934 39.1577 25.235 39.0332 25.739 38.3758L23.358 36.5507ZM22.4597 42.9433C22.9216 42.2556 22.7386 41.3237 22.051 40.8617C21.3633 40.3998 20.4313 40.5828 19.9694 41.2704L22.4597 42.9433ZM16.8803 46.1876C16.461 46.9021 16.7003 47.8212 17.4147 48.2405C18.1292 48.6598 19.0483 48.4205 19.4676 47.706L16.8803 46.1876ZM16.7608 52.6443C17.138 51.9067 16.8458 51.003 16.1082 50.6258C15.3706 50.2486 14.4669 50.5408 14.0898 51.2784L16.7608 52.6443ZM11.5987 56.4755C11.2573 57.2304 11.5925 58.119 12.3473 58.4604C13.1021 58.8018 13.9908 58.4666 14.3322 57.7118L11.5987 56.4755ZM12.1325 62.8582C12.4419 62.0897 12.0698 61.2159 11.3013 60.9065C10.5329 60.597 9.65905 60.9692 9.34964 61.7377L12.1325 62.8582ZM7.3268 67.0948C7.0513 67.8761 7.4613 68.7328 8.24258 69.0083C9.02385 69.2838 9.88054 68.8738 10.156 68.0925L7.3268 67.0948ZM8.41596 73.4066C8.6557 72.6136 8.20722 71.7764 7.41424 71.5367C6.62126 71.297 5.78407 71.7454 5.54433 72.5384L8.41596 73.4066ZM4.0146 78.0608C3.81235 78.8642 4.29964 79.6794 5.103 79.8816C5.90636 80.0839 6.72157 79.5966 6.92382 78.7932L4.0146 78.0608ZM5.69036 84.2431C5.85358 83.431 5.32748 82.6402 4.51529 82.477C3.7031 82.3138 2.91238 82.8399 2.74916 83.6521L5.69036 84.2431ZM1.75823 89.2998C1.63533 90.1191 2.19984 90.8829 3.0191 91.0058C3.83836 91.1287 4.60213 90.5642 4.72503 89.7449L1.75823 89.2998ZM4.03518 95.2869C4.11678 94.4625 3.51463 93.728 2.69023 93.6464C1.86584 93.5648 1.13137 94.1669 1.04977 94.9913L4.03518 95.2869ZM0.629523 100.712C0.589823 101.539 1.22844 102.242 2.05592 102.282C2.88339 102.322 3.58638 101.683 3.62608 100.856L0.629523 100.712ZM3.50048 106.438C3.49804 105.609 2.82449 104.94 1.99607 104.942C1.16764 104.944 0.49805 105.618 0.500489 106.446L3.50048 106.438ZM0.662927 112.181C0.70734 113.008 1.41395 113.643 2.24119 113.598C3.06842 113.554 3.70303 112.847 3.65861 112.02L0.662927 112.181ZM4.098 117.587C4.01218 116.763 3.27465 116.164 2.45068 116.25C1.62671 116.336 1.02832 117.074 1.11414 117.897L4.098 117.587ZM1.91977 123.935C2.0567 124.752 2.83005 125.303 3.64708 125.166C4.46411 125.029 5.01543 124.256 4.8785 123.439L1.91977 123.935ZM6.13285 129.529C5.93609 128.725 5.12422 128.232 4.3195 128.428C3.51478 128.625 3.02194 129.437 3.2187 130.242L6.13285 129.529ZM4.97007 136.436C5.2234 137.224 6.06816 137.658 6.85691 137.405C7.64565 137.152 8.0797 136.307 7.82637 135.518L4.97007 136.436ZM9.93096 141.381C9.62542 140.611 8.7535 140.235 7.98348 140.54C7.21345 140.846 6.83691 141.718 7.14245 142.488L9.93096 141.381ZM9.69834 148.381C10.0511 149.13 10.9447 149.452 11.6943 149.099C12.4439 148.746 12.7655 147.853 12.4127 147.103L9.69834 148.381ZM15.2344 152.675C14.8396 151.947 13.9292 151.676 13.2009 152.071C12.4726 152.466 12.2022 153.376 12.597 154.105L15.2344 152.675ZM15.7966 159.655C16.2283 160.362 17.1514 160.586 17.8585 160.154C18.5656 159.722 18.7888 158.799 18.3571 158.092L15.7966 159.655ZM21.7445 163.359C21.2807 162.672 20.3483 162.492 19.6619 162.955C18.9754 163.419 18.7948 164.351 19.2586 165.038L21.7445 163.359ZM22.9466 170.26C23.4379 170.927 24.3769 171.069 25.0439 170.578C25.7109 170.086 25.8533 169.147 25.362 168.48L22.9466 170.26ZM29.1765 173.464C28.6615 172.815 27.718 172.707 27.0691 173.222C26.4201 173.737 26.3115 174.68 26.8265 175.329L29.1765 173.464ZM30.8709 180.262C31.4059 180.894 32.3523 180.973 32.9848 180.438C33.6173 179.903 33.6964 178.957 33.1614 178.324L30.8709 180.262ZM37.2899 183.07C36.738 182.452 35.7898 182.399 35.172 182.951C34.5542 183.503 34.5008 184.451 35.0527 185.069L37.2899 183.07ZM39.2137 189.556C39.7968 190.145 40.7466 190.149 41.335 189.566C41.9234 188.983 41.9277 188.033 41.3445 187.444L39.2137 189.556ZM45.463 191.293C44.8369 190.75 43.8896 190.818 43.3471 191.444C42.8047 192.07 42.8725 193.018 43.4986 193.56L45.463 191.293ZM48.0618 197.235C48.7248 197.732 49.6649 197.597 50.1616 196.934C50.6583 196.271 50.5235 195.331 49.8604 194.834L48.0618 197.235ZM54.4939 198.07C53.7997 197.618 52.8704 197.814 52.4183 198.508C51.9661 199.203 52.1623 200.132 52.8564 200.584L54.4939 198.07ZM57.8489 203.623C58.569 204.033 59.4848 203.781 59.8944 203.061C60.3039 202.341 60.0522 201.425 59.332 201.015L57.8489 203.623ZM64.3344 203.678C63.5929 203.309 62.6924 203.611 62.3231 204.352C61.9538 205.094 62.2555 205.994 62.9971 206.363L64.3344 203.678ZM68.2807 208.828C69.0399 209.16 69.9241 208.813 70.2557 208.054C70.5872 207.295 70.2405 206.411 69.4813 206.079L68.2807 208.828ZM74.7395 208.231C73.9659 207.934 73.0986 208.321 72.8022 209.095C72.5059 209.869 72.8928 210.736 73.6665 211.032L74.7395 208.231ZM79.1416 212.997C79.927 213.26 80.7773 212.837 81.0409 212.052C81.3045 211.266 80.8815 210.416 80.0961 210.153L79.1416 212.997ZM85.5291 211.859C84.7342 211.625 83.9007 212.081 83.6676 212.876C83.4344 213.671 83.8898 214.504 84.6848 214.737L85.5291 211.859ZM90.2841 216.271C91.0868 216.476 91.9036 215.991 92.1085 215.189C92.3134 214.386 91.8288 213.569 91.0261 213.364L90.2841 216.271ZM96.5767 214.684C95.7678 214.505 94.9672 215.016 94.7886 215.825C94.61 216.634 95.1211 217.435 95.93 217.613L96.5767 214.684ZM101.609 218.776C102.423 218.93 103.208 218.395 103.362 217.581C103.516 216.767 102.981 215.983 102.167 215.829L101.609 218.776ZM107.794 216.811C106.976 216.68 106.206 217.236 106.075 218.054C105.944 218.872 106.501 219.642 107.319 219.773L107.794 216.811ZM113.05 220.614C113.871 220.723 114.626 220.147 114.735 219.325C114.845 218.504 114.268 217.75 113.447 217.64L113.05 220.614ZM119.122 218.326C118.298 218.236 117.558 218.832 117.469 219.655C117.379 220.479 117.975 221.219 118.798 221.308L119.122 218.326ZM124.559 221.865C125.384 221.935 126.11 221.323 126.181 220.497C126.251 219.672 125.639 218.946 124.813 218.876L124.559 221.865ZM130.519 219.297C129.692 219.245 128.98 219.873 128.928 220.7C128.876 221.527 129.504 222.239 130.331 222.291L130.519 219.297ZM136.106 222.593C136.933 222.628 137.632 221.985 137.667 221.157C137.702 220.33 137.059 219.63 136.231 219.596L136.106 222.593ZM141.954 219.777C141.125 219.759 140.439 220.416 140.421 221.244C140.403 222.073 141.06 222.759 141.888 222.777L141.954 219.777ZM147.669 222.846C148.498 222.847 149.171 222.177 149.173 221.349C149.175 220.521 148.505 219.847 147.676 219.846L147.669 222.846ZM153.402 219.804C152.573 219.818 151.913 220.501 151.927 221.329C151.941 222.157 152.623 222.818 153.452 222.804L153.402 219.804ZM159.214 222.633C160.041 222.592 160.678 221.888 160.637 221.061C160.596 220.233 159.892 219.596 159.064 219.637L159.214 222.633ZM164.658 219.222C163.834 219.303 163.232 220.037 163.313 220.862C163.395 221.686 164.129 222.289 164.953 222.207L164.658 219.222ZM170.666 221.502C171.485 221.38 172.051 220.617 171.929 219.798C171.808 218.978 171.045 218.413 170.226 218.534L170.666 221.502ZM175.754 217.578C174.941 217.738 174.413 218.528 174.573 219.34C174.734 220.153 175.523 220.682 176.336 220.521L175.754 217.578ZM181.952 219.274C182.756 219.076 183.248 218.263 183.049 217.459C182.851 216.655 182.039 216.163 181.234 216.361L181.952 219.274ZM186.658 214.898C185.863 215.131 185.407 215.964 185.64 216.759C185.873 217.554 186.707 218.01 187.502 217.777L186.658 214.898ZM192.979 216.049C193.764 215.784 194.186 214.933 193.921 214.148C193.656 213.363 192.805 212.941 192.02 213.206L192.979 216.049ZM197.318 211.307C196.543 211.6 196.153 212.466 196.447 213.241C196.74 214.016 197.606 214.406 198.381 214.112L197.318 211.307ZM203.706 211.993C204.471 211.674 204.833 210.796 204.514 210.031C204.196 209.266 203.317 208.905 202.553 209.223L203.706 211.993ZM207.728 206.979C206.973 207.319 206.636 208.207 206.976 208.963C207.316 209.718 208.204 210.055 208.959 209.715L207.728 206.979ZM214.637 207.073C215.383 206.715 215.698 205.819 215.34 205.072C214.982 204.325 214.086 204.01 213.339 204.368L214.637 207.073ZM219.334 201.367C218.601 201.752 218.319 202.659 218.705 203.393C219.09 204.126 219.997 204.408 220.73 204.022L219.334 201.367ZM226.701 200.677C227.411 200.251 227.641 199.33 227.215 198.619C226.789 197.909 225.867 197.679 225.157 198.105L226.701 200.677ZM230.729 194.482C230.053 194.96 229.892 195.896 230.37 196.573C230.848 197.249 231.784 197.41 232.46 196.932L230.729 194.482ZM237.913 192.729C238.547 192.196 238.629 191.25 238.096 190.616C237.563 189.981 236.617 189.899 235.983 190.432L237.913 192.729ZM240.885 185.959C240.296 186.541 240.29 187.49 240.872 188.08C241.454 188.669 242.403 188.675 242.993 188.093L240.885 185.959ZM247.293 183.038C247.783 182.37 247.639 181.431 246.971 180.941C246.303 180.451 245.364 180.595 244.874 181.263L247.293 183.038ZM248.458 176.38C247.973 177.051 248.123 177.989 248.794 178.474C249.466 178.96 250.403 178.809 250.889 178.138L248.458 176.38ZM254.38 173.083C254.831 172.387 254.633 171.458 253.937 171.008C253.242 170.558 252.313 170.756 251.863 171.451L254.38 173.083ZM254.845 166.346C254.468 167.083 254.759 167.987 255.497 168.364C256.234 168.742 257.138 168.45 257.516 167.713L254.845 166.346ZM259.961 161.91C260.218 161.122 259.788 160.276 259.001 160.019C258.213 159.761 257.366 160.192 257.109 160.979L259.961 161.91ZM258.342 155.364C258.25 156.187 258.844 156.929 259.667 157.02C260.491 157.111 261.232 156.518 261.323 155.694L258.342 155.364ZM261.694 149.082C261.782 148.258 261.185 147.519 260.362 147.432C259.538 147.344 258.799 147.941 258.711 148.764L261.694 149.082ZM258.958 142.128C259.135 142.938 259.934 143.45 260.743 143.273C261.553 143.096 262.065 142.297 261.888 141.488L258.958 142.128ZM258.375 134.595C257.878 133.931 256.938 133.796 256.275 134.292C255.612 134.788 255.476 135.728 255.973 136.392L258.375 134.595ZM251.411 131.095C251.98 131.697 252.93 131.722 253.531 131.153C254.133 130.583 254.158 129.634 253.589 129.032L251.411 131.095ZM248.903 124.473C248.266 123.943 247.32 124.03 246.79 124.667C246.261 125.304 246.348 126.25 246.985 126.78L248.903 124.473ZM242.629 123.753C243.347 124.167 244.264 123.921 244.678 123.203C245.092 122.485 244.845 121.568 244.127 121.154L242.629 123.753ZM238.871 118.679C238.095 118.39 237.231 118.785 236.942 119.562C236.653 120.338 237.048 121.202 237.825 121.491L238.871 118.679ZM232.726 120.091C233.542 120.235 234.32 119.691 234.465 118.875C234.609 118.059 234.064 117.281 233.248 117.137L232.726 120.091ZM227.374 116.737C226.546 116.777 225.908 117.481 225.948 118.308C225.989 119.136 226.692 119.774 227.519 119.734L227.374 116.737ZM222.524 120.703C223.301 120.416 223.699 119.554 223.412 118.777C223.125 118 222.262 117.602 221.485 117.889L222.524 120.703ZM215.788 119.958C215.001 120.216 214.572 121.063 214.83 121.85C215.087 122.638 215.935 123.067 216.722 122.809L215.788 119.958ZM210.822 125.387C211.548 124.989 211.814 124.077 211.415 123.351C211.017 122.625 210.105 122.359 209.379 122.757L210.822 125.387ZM203.567 126.553C202.907 127.053 202.778 127.994 203.278 128.654C203.779 129.315 204.72 129.444 205.38 128.943L203.567 126.553ZM200.383 133.199C200.986 132.631 201.014 131.682 200.446 131.079C199.878 130.476 198.929 130.448 198.326 131.016L200.383 133.199ZM193.535 135.886C192.974 136.495 193.012 137.444 193.621 138.005C194.23 138.567 195.179 138.528 195.741 137.919L193.535 135.886ZM191.321 142.919C191.86 142.29 191.788 141.343 191.159 140.804C190.53 140.264 189.583 140.337 189.044 140.965L191.321 142.919ZM185.254 146.427C184.865 147.158 185.142 148.067 185.873 148.456C186.604 148.846 187.512 148.569 187.902 147.838L185.254 146.427ZM185.179 153.116C185.548 152.375 185.245 151.474 184.504 151.105C183.762 150.737 182.862 151.039 182.493 151.781L185.179 153.116ZM179.903 157.235C179.562 157.99 179.898 158.878 180.653 159.219C181.408 159.559 182.297 159.223 182.637 158.468L179.903 157.235ZM180.332 163.91C180.636 163.139 180.258 162.268 179.488 161.964C178.717 161.66 177.846 162.038 177.542 162.808L180.332 163.91ZM175.472 168.511C175.212 169.297 175.639 170.146 176.426 170.405C177.212 170.665 178.061 170.238 178.32 169.451L175.472 168.511ZM176.654 175.094C176.863 174.292 176.381 173.474 175.58 173.265C174.778 173.057 173.959 173.538 173.751 174.34L176.654 175.094ZM172.465 180.182C172.323 180.998 172.87 181.775 173.686 181.917C174.502 182.058 175.279 181.512 175.42 180.695L172.465 180.182ZM174.702 186.266C174.774 185.44 174.163 184.713 173.338 184.641C172.512 184.569 171.785 185.18 171.713 186.005L174.702 186.266ZM171.427 191.855C171.416 192.684 172.079 193.364 172.908 193.374C173.736 193.384 174.416 192.721 174.426 191.893L171.427 191.855ZM174.548 197.534C174.503 196.707 173.796 196.073 172.969 196.118C172.141 196.163 171.508 196.871 171.553 197.698L174.548 197.534ZM172.055 203.514C172.151 204.336 172.897 204.925 173.72 204.828C174.542 204.732 175.131 203.986 175.034 203.164L172.055 203.514ZM175.862 208.759C175.717 207.943 174.938 207.4 174.122 207.546C173.306 207.691 172.763 208.47 172.909 209.286L175.862 208.759ZM174.099 214.994C174.292 215.8 175.101 216.297 175.907 216.104C176.713 215.911 177.21 215.102 177.017 214.296L174.099 214.994ZM178.493 219.757C178.253 218.964 177.416 218.515 176.623 218.755C175.83 218.994 175.382 219.831 175.621 220.624L178.493 219.757ZM177.475 226.157C177.763 226.934 178.625 227.331 179.402 227.044C180.179 226.757 180.577 225.895 180.29 225.118L177.475 226.157ZM182.413 230.352C182.077 229.595 181.191 229.253 180.434 229.589C179.676 229.925 179.335 230.812 179.671 231.569L182.413 230.352ZM182.221 236.829C182.609 237.561 183.516 237.841 184.249 237.454C184.981 237.067 185.261 236.159 184.874 235.427L182.221 236.829ZM187.69 240.304C187.248 239.603 186.322 239.393 185.621 239.834C184.92 240.276 184.71 241.202 185.151 241.903L187.69 240.304ZM188.701 246.965C189.217 247.613 190.161 247.721 190.809 247.205C191.457 246.689 191.565 245.746 191.049 245.097L188.701 246.965ZM195.16 249.588C194.56 249.017 193.61 249.041 193.039 249.641C192.468 250.241 192.492 251.191 193.092 251.762L195.16 249.588ZM198.089 255.909C198.76 256.395 199.698 256.245 200.184 255.574C200.67 254.903 200.519 253.965 199.848 253.48L198.089 255.909ZM205.011 256.75C204.286 256.349 203.373 256.612 202.973 257.337C202.572 258.062 202.834 258.975 203.559 259.376L205.011 256.75ZM209.368 262.189C210.131 262.511 211.011 262.153 211.333 261.39C211.655 260.627 211.298 259.747 210.535 259.425L209.368 262.189ZM216.317 261.559C215.528 261.306 214.684 261.74 214.431 262.529C214.178 263.318 214.612 264.163 215.401 264.416L216.317 261.559ZM221.573 266.14C222.379 266.334 223.189 265.838 223.383 265.033C223.577 264.228 223.082 263.417 222.277 263.223L221.573 266.14ZM228.354 264.49C227.538 264.344 226.759 264.888 226.614 265.703C226.469 266.519 227.012 267.298 227.828 267.443L228.354 264.49ZM234.127 268.402C234.949 268.507 235.7 267.926 235.805 267.105C235.911 266.283 235.33 265.531 234.508 265.426L234.127 268.402ZM240.712 266.092C239.887 266.02 239.159 266.63 239.086 267.455C239.013 268.28 239.623 269.008 240.448 269.081L240.712 266.092ZM246.778 269.536C247.605 269.583 248.313 268.951 248.36 268.124C248.408 267.297 247.775 266.588 246.948 266.541L246.778 269.536ZM253.206 266.819C252.378 266.791 251.684 267.441 251.657 268.269C251.63 269.097 252.279 269.79 253.107 269.817L253.206 266.819ZM259.432 269.966C260.26 269.978 260.942 269.317 260.954 268.489C260.967 267.66 260.306 266.979 259.477 266.966L259.432 269.966ZM265.759 267.022C264.931 267.019 264.257 267.688 264.254 268.517C264.251 269.345 264.92 270.019 265.749 270.022L265.759 267.022ZM272.057 270.022C272.885 270.02 273.555 269.347 273.553 268.519C273.551 267.69 272.878 267.02 272.049 267.022L272.057 270.022ZM278.348 267.004C277.519 267.006 276.849 267.679 276.851 268.508C276.853 269.336 277.526 270.006 278.355 270.004L278.348 267.004ZM284.487 270.014C285.316 270.021 285.993 269.356 286.001 268.527C286.009 267.699 285.343 267.021 284.515 267.014L284.487 270.014ZM290.542 267.129C289.714 267.104 289.023 267.756 288.999 268.584C288.975 269.412 289.626 270.103 290.454 270.127L290.542 267.129ZM296.41 270.37C297.238 270.413 297.943 269.778 297.987 268.95C298.03 268.123 297.394 267.417 296.567 267.374L296.41 270.37ZM302.587 267.765C301.761 267.701 301.039 268.318 300.975 269.144C300.911 269.97 301.528 270.692 302.354 270.756L302.587 267.765ZM308.281 271.301C309.105 271.389 309.843 270.792 309.931 269.968C310.019 269.144 309.422 268.405 308.598 268.318L308.281 271.301ZM314.593 269.045C313.772 268.933 313.016 269.507 312.903 270.328C312.791 271.149 313.365 271.905 314.186 272.018L314.593 269.045ZM320.065 272.916C320.881 273.054 321.656 272.504 321.794 271.687C321.932 270.87 321.381 270.096 320.565 269.958L320.065 272.916ZM326.505 271.06C325.693 270.896 324.902 271.421 324.738 272.233C324.574 273.045 325.099 273.837 325.911 274.001L326.505 271.06ZM331.721 275.272C332.527 275.462 333.335 274.962 333.524 274.156C333.714 273.35 333.214 272.542 332.408 272.352L331.721 275.272ZM338.265 273.826C337.465 273.612 336.642 274.087 336.428 274.887C336.214 275.688 336.689 276.51 337.489 276.724L338.265 273.826ZM343.216 278.346C344.009 278.583 344.845 278.131 345.082 277.337C345.318 276.543 344.867 275.708 344.073 275.471L343.216 278.346ZM349.831 277.27C349.043 277.013 348.196 277.443 347.939 278.231C347.682 279.018 348.113 279.865 348.9 280.122L349.831 277.27ZM354.545 282.036C355.327 282.311 356.183 281.9 356.457 281.118C356.732 280.336 356.321 279.48 355.539 279.206L354.545 282.036ZM361.202 281.259C360.426 280.969 359.562 281.363 359.272 282.14C358.983 282.916 359.377 283.78 360.153 284.069L361.202 281.259ZM365.73 286.204C366.501 286.507 367.371 286.126 367.674 285.355C367.976 284.584 367.596 283.714 366.824 283.411L365.73 286.204ZM372.412 285.647C371.645 285.334 370.77 285.702 370.457 286.469C370.144 287.237 370.513 288.112 371.28 288.425L372.412 285.647ZM376.817 290.752C377.574 291.089 378.46 290.748 378.797 289.991C379.134 289.234 378.793 288.348 378.036 288.011L376.817 290.752ZM383.615 290.669C382.876 290.293 381.973 290.587 381.598 291.325C381.222 292.064 381.516 292.967 382.254 293.343L383.615 290.669ZM387.544 296.212C388.262 296.626 389.179 296.38 389.593 295.663C390.007 294.945 389.762 294.028 389.044 293.614L387.544 296.212ZM394.314 296.848C393.62 296.395 392.69 296.591 392.238 297.286C391.786 297.98 391.982 298.909 392.676 299.361L394.314 296.848ZM397.627 302.783C398.295 303.273 399.234 303.128 399.723 302.46C400.213 301.791 400.068 300.853 399.4 300.363L397.627 302.783ZM404.283 304.155C403.643 303.629 402.698 303.721 402.171 304.36C401.645 305 401.737 305.945 402.377 306.472L404.283 304.155ZM406.909 310.424C407.517 310.987 408.466 310.95 409.029 310.341C409.591 309.733 409.554 308.784 408.945 308.221L406.909 310.424ZM413.365 312.556C412.791 311.958 411.841 311.939 411.244 312.513C410.647 313.087 410.628 314.037 411.202 314.634L413.365 312.556ZM415.23 319.091C415.767 319.722 416.714 319.799 417.345 319.263C417.976 318.726 418.053 317.78 417.517 317.148L415.23 319.091ZM421.377 321.991C420.881 321.328 419.941 321.191 419.277 321.687C418.613 322.182 418.477 323.122 418.972 323.786L421.377 321.991ZM422.403 328.709C422.854 329.404 423.783 329.602 424.478 329.151C425.173 328.7 425.371 327.771 424.92 327.076L422.403 328.709ZM428.119 332.39C427.716 331.666 426.803 331.406 426.079 331.808C425.355 332.211 425.094 333.125 425.497 333.849L428.119 332.39ZM428.225 339.186C428.575 339.936 429.468 340.26 430.219 339.91C430.969 339.559 431.294 338.667 430.943 337.916L428.225 339.186ZM433.363 343.635C433.069 342.86 432.203 342.471 431.428 342.766C430.654 343.06 430.265 343.927 430.559 344.701L433.363 343.635ZM432.472 350.371C432.707 351.166 433.541 351.62 434.336 351.385C435.13 351.151 435.584 350.316 435.35 349.522L432.472 350.371ZM436.874 355.55C436.703 354.739 435.907 354.221 435.096 354.391C434.286 354.562 433.767 355.358 433.938 356.169L436.874 355.55ZM434.933 362.062C435.037 362.883 435.788 363.465 436.609 363.361C437.431 363.257 438.013 362.506 437.909 361.684L434.933 362.062ZM438.434 367.887C438.399 367.059 437.699 366.416 436.872 366.452C436.044 366.487 435.401 367.186 435.437 368.014L438.434 367.887ZM71.6258 0.643297C70.7523 1.05525 69.8874 1.46922 69.0311 1.88543L70.3425 4.58359C71.1879 4.17268 72.0422 3.76379 72.9054 3.3567L71.6258 0.643297ZM63.8849 4.46923C62.1554 5.36709 60.4633 6.27715 58.8084 7.2016L60.2714 9.82068C61.8981 8.91198 63.5632 8.01641 65.2671 7.13182L63.8849 4.46923ZM53.8188 10.1024C52.1508 11.1126 50.5236 12.1414 48.9365 13.1916L50.5921 15.6935C52.1441 14.6664 53.7374 13.6589 55.3729 12.6684L53.8188 10.1024ZM44.1854 16.4889C42.6099 17.6366 41.078 18.8106 39.589 20.0139L41.4746 22.3473C42.9232 21.1767 44.4153 20.0331 45.9519 18.9136L44.1854 16.4889ZM35.1782 23.7795C33.7356 25.0818 32.338 26.4181 30.9848 27.7917L33.1219 29.8972C34.4331 28.5662 35.7883 27.2703 37.1885 26.0063L35.1782 23.7795ZM27.036 32.0521C25.7659 33.51 24.5401 35.0085 23.358 36.5507L25.739 38.3758C26.8827 36.8836 28.0688 35.4337 29.298 34.0226L27.036 32.0521ZM19.9694 41.2704C18.8988 42.8642 17.8693 44.5023 16.8803 46.1876L19.4676 47.706C20.4262 46.0726 21.4233 44.4861 22.4597 42.9433L19.9694 41.2704ZM14.0898 51.2784C13.6522 52.1341 13.2238 53.0013 12.8045 53.8803L15.5123 55.1719C15.9198 54.3175 16.3359 53.4751 16.7608 52.6443L14.0898 51.2784ZM12.8045 53.8803C12.3928 54.7435 11.9909 55.6086 11.5987 56.4755L14.3322 57.7118C14.7158 56.8635 15.1092 56.0169 15.5123 55.1719L12.8045 53.8803ZM9.34964 61.7377C8.63371 63.5158 7.95918 65.3015 7.3268 67.0948L10.156 68.0925C10.7736 66.3411 11.4327 64.5963 12.1325 62.8582L9.34964 61.7377ZM5.54433 72.5384C4.99004 74.3718 4.47987 76.2127 4.0146 78.0608L6.92382 78.7932C7.37748 76.9912 7.87509 75.1956 8.41596 73.4066L5.54433 72.5384ZM2.74916 83.6521C2.37225 85.5277 2.04168 87.4103 1.75823 89.2998L4.72503 89.7449C5.00108 87.9047 5.32309 86.0707 5.69036 84.2431L2.74916 83.6521ZM1.04977 94.9913C0.861646 96.8917 0.721311 98.7986 0.629523 100.712L3.62608 100.856C3.71542 98.9933 3.85203 97.137 4.03518 95.2869L1.04977 94.9913ZM0.500489 106.446C0.506097 108.352 0.560004 110.264 0.662927 112.181L3.65861 112.02C3.55841 110.153 3.50594 108.293 3.50048 106.438L0.500489 106.446ZM1.11414 117.897C1.21291 118.846 1.32372 119.796 1.44665 120.747L4.42189 120.362C4.30214 119.436 4.1942 118.51 4.098 117.587L1.11414 117.897ZM1.44665 120.747C1.5849 121.816 1.7428 122.879 1.91977 123.935L4.8785 123.439C4.70769 122.42 4.55531 121.394 4.42189 120.362L1.44665 120.747ZM3.2187 130.242C3.73004 132.333 4.31541 134.397 4.97007 136.436L7.82637 135.518C7.19283 133.546 6.62689 131.55 6.13285 129.529L3.2187 130.242ZM7.14245 142.488C7.93151 144.476 8.78507 146.44 9.69834 148.381L12.4127 147.103C11.5249 145.217 10.6962 143.31 9.93096 141.381L7.14245 142.488ZM12.597 154.105C13.6115 155.976 14.6795 157.826 15.7966 159.655L18.3571 158.092C17.2655 156.304 16.2232 154.499 15.2344 152.675L12.597 154.105ZM19.2586 165.038C20.4463 166.796 21.6771 168.536 22.9466 170.26L25.362 168.48C24.1153 166.788 22.9081 165.081 21.7445 163.359L19.2586 165.038ZM26.8265 175.329C28.1427 176.988 29.4921 178.632 30.8709 180.262L33.1614 178.324C31.8015 176.716 30.472 175.097 29.1765 173.464L26.8265 175.329ZM35.0527 185.069C35.7587 185.859 36.4709 186.646 37.1887 187.43L39.4017 185.405C38.6917 184.629 37.9876 183.851 37.2899 183.07L35.0527 185.069ZM37.1887 187.43C37.8497 188.153 38.5248 188.861 39.2137 189.556L41.3445 187.444C40.6833 186.777 40.0355 186.097 39.4017 185.405L37.1887 187.43ZM43.4986 193.56C44.9712 194.836 46.4936 196.06 48.0618 197.235L49.8604 194.834C48.3471 193.7 46.8801 192.52 45.463 191.293L43.4986 193.56ZM52.8564 200.584C54.4814 201.642 56.1468 202.655 57.8489 203.623L59.332 201.015C57.6803 200.076 56.0664 199.095 54.4939 198.07L52.8564 200.584ZM62.9971 206.363C64.7277 207.225 66.4901 208.046 68.2807 208.828L69.4813 206.079C67.7349 205.316 66.0183 204.517 64.3344 203.678L62.9971 206.363ZM73.6665 211.032C75.4686 211.723 77.2947 212.377 79.1416 212.997L80.0961 210.153C78.2874 209.546 76.5009 208.905 74.7395 208.231L73.6665 211.032ZM84.6848 214.737C86.535 215.28 88.4024 215.791 90.2841 216.271L91.0261 213.364C89.1774 212.892 87.3441 212.391 85.5291 211.859L84.6848 214.737ZM95.93 217.613C97.8129 218.029 99.707 218.416 101.609 218.776L102.167 215.829C100.294 215.474 98.4291 215.093 96.5767 214.684L95.93 217.613ZM107.319 219.773C109.225 220.078 111.136 220.358 113.05 220.614L113.447 217.64C111.558 217.388 109.673 217.112 107.794 216.811L107.319 219.773ZM118.798 221.308C120.719 221.517 122.64 221.702 124.559 221.865L124.813 218.876C122.917 218.715 121.019 218.532 119.122 218.326L118.798 221.308ZM130.331 222.291C132.262 222.413 134.188 222.513 136.106 222.593L136.231 219.596C134.334 219.516 132.429 219.417 130.519 219.297L130.331 222.291ZM141.888 222.777C143.828 222.819 145.756 222.841 147.669 222.846L147.676 219.846C145.782 219.841 143.873 219.819 141.954 219.777L141.888 222.777ZM153.452 222.804C154.418 222.788 155.38 222.767 156.336 222.742L156.259 219.743C155.311 219.768 154.359 219.788 153.402 219.804L153.452 222.804ZM156.336 222.742C157.302 222.717 158.261 222.681 159.214 222.633L159.064 219.637C158.135 219.684 157.2 219.719 156.259 219.743L156.336 222.742ZM164.953 222.207C166.88 222.017 168.783 221.781 170.666 221.502L170.226 218.534C168.391 218.806 166.536 219.036 164.658 219.222L164.953 222.207ZM176.336 220.521C178.226 220.147 180.097 219.731 181.952 219.274L181.234 216.361C179.423 216.807 177.598 217.213 175.754 217.578L176.336 220.521ZM187.502 217.777C189.34 217.238 191.165 216.661 192.979 216.049L192.02 213.206C190.242 213.806 188.456 214.371 186.658 214.898L187.502 217.777ZM198.381 214.112C200.163 213.437 201.937 212.73 203.706 211.993L202.553 209.223C200.812 209.949 199.068 210.644 197.318 211.307L198.381 214.112ZM208.959 209.715C209.827 209.325 210.694 208.928 211.561 208.525L210.296 205.805C209.44 206.203 208.584 206.594 207.728 206.979L208.959 209.715ZM211.561 208.525C212.61 208.037 213.634 207.554 214.637 207.073L213.339 204.368C212.349 204.843 211.335 205.321 210.296 205.805L211.561 208.525ZM220.73 204.022C222.806 202.931 224.789 201.825 226.701 200.677L225.157 198.105C223.3 199.219 221.367 200.298 219.334 201.367L220.73 204.022ZM232.46 196.932C234.324 195.616 236.132 194.225 237.913 192.729L235.983 190.432C234.268 191.873 232.526 193.213 230.729 194.482L232.46 196.932ZM242.993 188.093C243.794 187.303 244.593 186.485 245.394 185.636L243.211 183.577C242.434 184.401 241.66 185.194 240.885 185.959L242.993 188.093ZM245.523 185.478C246.105 184.664 246.696 183.851 247.293 183.038L244.874 181.263C244.273 182.082 243.674 182.906 243.082 183.735L245.523 185.478ZM250.889 178.138C252.09 176.478 253.27 174.796 254.38 173.083L251.863 171.451C250.792 173.104 249.644 174.74 248.458 176.38L250.889 178.138ZM257.516 167.713C258.473 165.843 259.307 163.914 259.961 161.91L257.109 160.979C256.512 162.808 255.744 164.591 254.845 166.346L257.516 167.713ZM261.323 155.694C261.439 154.65 261.5 153.585 261.5 152.5H258.5C258.5 153.473 258.445 154.427 258.342 155.364L261.323 155.694ZM261.5 152.5C261.5 151.228 261.585 150.112 261.694 149.082L258.711 148.764C258.594 149.863 258.5 151.09 258.5 152.5H261.5ZM261.888 141.488C261.441 139.439 260.388 137.285 258.375 134.595L255.973 136.392C257.832 138.877 258.632 140.639 258.958 142.128L261.888 141.488ZM253.589 129.032C252.815 128.215 251.974 127.353 251.061 126.439L248.939 128.561C249.836 129.458 250.658 130.301 251.411 131.095L253.589 129.032ZM251.061 126.439C250.373 125.751 249.652 125.095 248.903 124.473L246.985 126.78C247.665 127.345 248.318 127.94 248.939 128.561L251.061 126.439ZM244.127 121.154C242.434 120.178 240.668 119.348 238.871 118.679L237.825 121.491C239.464 122.101 241.08 122.86 242.629 123.753L244.127 121.154ZM233.248 117.137C231.265 116.786 229.287 116.644 227.374 116.737L227.519 119.734C229.187 119.653 230.94 119.775 232.726 120.091L233.248 117.137ZM221.485 117.889C220.52 118.245 219.594 118.687 218.72 119.219L220.28 121.781C220.979 121.356 221.729 120.997 222.524 120.703L221.485 117.889ZM219.181 119.034C218.022 119.287 216.891 119.596 215.788 119.958L216.722 122.809C217.731 122.478 218.763 122.196 219.819 121.966L219.181 119.034ZM209.379 122.757C207.338 123.877 205.405 125.16 203.567 126.553L205.38 128.943C207.117 127.626 208.927 126.427 210.822 125.387L209.379 122.757ZM198.326 131.016C196.652 132.593 195.058 134.234 193.535 135.886L195.741 137.919C197.229 136.305 198.772 134.717 200.383 133.199L198.326 131.016ZM189.044 140.965C188.3 141.832 187.571 142.69 186.858 143.527L189.142 145.473C189.857 144.632 190.582 143.78 191.321 142.919L189.044 140.965ZM186.684 143.78C186.199 144.668 185.722 145.55 185.254 146.427L187.902 147.838C188.364 146.971 188.835 146.099 189.316 145.22L186.684 143.78ZM182.493 151.781C181.584 153.608 180.72 155.423 179.903 157.235L182.637 158.468C183.437 156.695 184.285 154.914 185.179 153.116L182.493 151.781ZM177.542 162.808C176.795 164.7 176.103 166.598 175.472 168.511L178.32 169.451C178.933 167.596 179.604 165.752 180.332 163.91L177.542 162.808ZM173.751 174.34C173.496 175.319 173.258 176.305 173.036 177.297L175.964 177.952C176.178 176.993 176.408 176.041 176.654 175.094L173.751 174.34ZM173.036 177.297C172.824 178.245 172.634 179.207 172.465 180.182L175.42 180.695C175.582 179.766 175.763 178.851 175.964 177.952L173.036 177.297ZM171.713 186.005C171.546 187.923 171.451 189.877 171.427 191.855L174.426 191.893C174.45 189.985 174.542 188.106 174.702 186.266L171.713 186.005ZM171.553 197.698C171.658 199.625 171.826 201.566 172.055 203.514L175.034 203.164C174.813 201.277 174.65 199.397 174.548 197.534L171.553 197.698ZM172.909 209.286C173.249 211.194 173.646 213.099 174.099 214.994L177.017 214.296C176.577 212.458 176.192 210.61 175.862 208.759L172.909 209.286ZM175.621 220.624C176.185 222.49 176.803 224.337 177.475 226.157L180.29 225.118C179.639 223.356 179.039 221.566 178.493 219.757L175.621 220.624ZM179.671 231.569C180.466 233.362 181.317 235.119 182.221 236.829L184.874 235.427C184.002 233.779 183.182 232.085 182.413 230.352L179.671 231.569ZM185.151 241.903C185.675 242.734 186.213 243.551 186.765 244.351L189.235 242.649C188.707 241.883 188.192 241.101 187.69 240.304L185.151 241.903ZM186.765 244.351C187.387 245.253 188.033 246.124 188.701 246.965L191.049 245.097C190.423 244.31 189.818 243.494 189.235 242.649L186.765 244.351ZM193.092 251.762C194.672 253.264 196.341 254.644 198.089 255.909L199.848 253.48C198.204 252.289 196.639 250.995 195.16 249.588L193.092 251.762ZM203.559 259.376C205.431 260.411 207.371 261.345 209.368 262.189L210.535 259.425C208.628 258.62 206.784 257.731 205.011 256.75L203.559 259.376ZM215.401 264.416C217.415 265.062 219.475 265.634 221.573 266.14L222.277 263.223C220.244 262.733 218.255 262.181 216.317 261.559L215.401 264.416ZM227.828 267.443C229.9 267.813 232.002 268.13 234.127 268.402L234.508 265.426C232.427 265.16 230.374 264.85 228.354 264.49L227.828 267.443ZM240.448 269.081C242.544 269.266 244.656 269.415 246.778 269.536L246.948 266.541C244.854 266.422 242.773 266.274 240.712 266.092L240.448 269.081ZM253.107 269.817C255.212 269.886 257.323 269.934 259.432 269.966L259.477 266.966C257.383 266.934 255.29 266.887 253.206 266.819L253.107 269.817ZM265.749 270.022C267.859 270.029 269.964 270.027 272.057 270.022L272.049 267.022C269.96 267.027 267.861 267.029 265.759 267.022L265.749 270.022ZM278.355 270.004C279.408 270.002 280.457 270 281.5 270V267C280.454 267 279.402 267.002 278.348 267.004L278.355 270.004ZM281.5 270C282.506 270 283.501 270.005 284.487 270.014L284.515 267.014C283.519 267.005 282.515 267 281.5 267V270ZM290.454 270.127C292.477 270.187 294.46 270.268 296.41 270.37L296.567 267.374C294.594 267.27 292.587 267.189 290.542 267.129L290.454 270.127ZM302.354 270.756C304.36 270.913 306.334 271.094 308.281 271.301L308.598 268.318C306.623 268.108 304.621 267.924 302.587 267.765L302.354 270.756ZM314.186 272.018C316.166 272.289 318.123 272.588 320.065 272.916L320.565 269.958C318.592 269.624 316.604 269.32 314.593 269.045L314.186 272.018ZM325.911 274.001C327.855 274.394 329.789 274.817 331.721 275.272L332.408 272.352C330.446 271.89 328.481 271.46 326.505 271.06L325.911 274.001ZM337.489 276.724C339.391 277.234 341.298 277.774 343.216 278.346L344.073 275.471C342.129 274.891 340.196 274.343 338.265 273.826L337.489 276.724ZM348.9 280.122C350.764 280.73 352.644 281.368 354.545 282.036L355.539 279.206C353.618 278.531 351.717 277.886 349.831 277.27L348.9 280.122ZM360.153 284.069C361.986 284.754 363.843 285.465 365.73 286.204L366.824 283.411C364.924 282.666 363.052 281.949 361.202 281.259L360.153 284.069ZM371.28 288.425C372.195 288.798 373.117 289.177 374.047 289.562L375.196 286.791C374.261 286.403 373.333 286.022 372.412 285.647L371.28 288.425ZM374.047 289.562C374.979 289.948 375.902 290.345 376.817 290.752L378.036 288.011C377.098 287.594 376.151 287.187 375.196 286.791L374.047 289.562ZM382.254 293.343C384.054 294.258 385.818 295.215 387.544 296.212L389.044 293.614C387.272 292.591 385.461 291.608 383.615 290.669L382.254 293.343ZM392.676 299.361C394.368 300.463 396.019 301.605 397.627 302.783L399.4 300.363C397.747 299.152 396.051 297.979 394.314 296.848L392.676 299.361ZM402.377 306.472C403.935 307.754 405.446 309.072 406.909 310.424L408.945 308.221C407.44 306.83 405.885 305.473 404.283 304.155L402.377 306.472ZM411.202 314.634C412.598 316.087 413.942 317.574 415.23 319.091L417.517 317.148C416.188 315.584 414.803 314.053 413.365 312.556L411.202 314.634ZM418.972 323.786C420.176 325.399 421.32 327.041 422.403 328.709L424.92 327.076C423.801 325.352 422.619 323.656 421.377 321.991L418.972 323.786ZM425.497 333.849C426.474 335.604 427.384 337.384 428.225 339.186L430.943 337.916C430.071 336.05 429.129 334.207 428.119 332.39L425.497 333.849ZM430.559 344.701C431.271 346.573 431.91 348.464 432.472 350.371L435.35 349.522C434.765 347.541 434.102 345.577 433.363 343.635L430.559 344.701ZM433.938 356.169C434.35 358.121 434.682 360.086 434.933 362.062L437.909 361.684C437.648 359.627 437.302 357.581 436.874 355.55L433.938 356.169ZM435.437 368.014C435.479 369.008 435.5 370.003 435.5 371H438.5C438.5 369.961 438.478 368.923 438.434 367.887L435.437 368.014Z" fill="#CECECE"/>
</svg>
