<svg width="519" height="456" viewBox="0 0 519 456" fill="none" xmlns="http://www.w3.org/2000/svg">
<circle cx="124" cy="85" r="67" fill="#FF8B18"/>
<path d="M83.53 77.575C84.64 77.575 85.61 77.79 86.44 78.22C87.28 78.64 87.925 79.25 88.375 80.05C88.835 80.84 89.065 81.765 89.065 82.825C89.065 83.885 88.835 84.805 88.375 85.585C87.925 86.365 87.28 86.965 86.44 87.385C85.61 87.795 84.64 88 83.53 88H80.125V77.575H83.53ZM83.53 86.605C84.75 86.605 85.685 86.275 86.335 85.615C86.985 84.955 87.31 84.025 87.31 82.825C87.31 81.615 86.985 80.67 86.335 79.99C85.685 79.31 84.75 78.97 83.53 78.97H81.835V86.605H83.53ZM98.3348 83.665C98.3348 83.975 98.3148 84.255 98.2748 84.505H91.9598C92.0098 85.165 92.2548 85.695 92.6948 86.095C93.1348 86.495 93.6748 86.695 94.3148 86.695C95.2348 86.695 95.8848 86.31 96.2648 85.54H98.1098C97.8598 86.3 97.4048 86.925 96.7448 87.415C96.0948 87.895 95.2848 88.135 94.3148 88.135C93.5248 88.135 92.8148 87.96 92.1848 87.61C91.5648 87.25 91.0748 86.75 90.7148 86.11C90.3648 85.46 90.1898 84.71 90.1898 83.86C90.1898 83.01 90.3598 82.265 90.6998 81.625C91.0498 80.975 91.5348 80.475 92.1548 80.125C92.7848 79.775 93.5048 79.6 94.3148 79.6C95.0948 79.6 95.7898 79.77 96.3998 80.11C97.0098 80.45 97.4848 80.93 97.8248 81.55C98.1648 82.16 98.3348 82.865 98.3348 83.665ZM96.5498 83.125C96.5398 82.495 96.3148 81.99 95.8748 81.61C95.4348 81.23 94.8898 81.04 94.2398 81.04C93.6498 81.04 93.1448 81.23 92.7248 81.61C92.3048 81.98 92.0548 82.485 91.9748 83.125H96.5498ZM103.018 88.135C102.368 88.135 101.783 88.02 101.263 87.79C100.753 87.55 100.348 87.23 100.048 86.83C99.7476 86.42 99.5876 85.965 99.5676 85.465H101.338C101.368 85.815 101.533 86.11 101.833 86.35C102.143 86.58 102.528 86.695 102.988 86.695C103.468 86.695 103.838 86.605 104.098 86.425C104.368 86.235 104.503 85.995 104.503 85.705C104.503 85.395 104.353 85.165 104.053 85.015C103.763 84.865 103.298 84.7 102.658 84.52C102.038 84.35 101.533 84.185 101.143 84.025C100.753 83.865 100.413 83.62 100.123 83.29C99.8426 82.96 99.7026 82.525 99.7026 81.985C99.7026 81.545 99.8326 81.145 100.093 80.785C100.353 80.415 100.723 80.125 101.203 79.915C101.693 79.705 102.253 79.6 102.883 79.6C103.823 79.6 104.578 79.84 105.148 80.32C105.728 80.79 106.038 81.435 106.078 82.255H104.368C104.338 81.885 104.188 81.59 103.918 81.37C103.648 81.15 103.283 81.04 102.823 81.04C102.373 81.04 102.028 81.125 101.788 81.295C101.548 81.465 101.428 81.69 101.428 81.97C101.428 82.19 101.508 82.375 101.668 82.525C101.828 82.675 102.023 82.795 102.253 82.885C102.483 82.965 102.823 83.07 103.273 83.2C103.873 83.36 104.363 83.525 104.743 83.695C105.133 83.855 105.468 84.095 105.748 84.415C106.028 84.735 106.173 85.16 106.183 85.69C106.183 86.16 106.053 86.58 105.793 86.95C105.533 87.32 105.163 87.61 104.683 87.82C104.213 88.03 103.658 88.135 103.018 88.135ZM107.46 83.86C107.46 83.01 107.63 82.265 107.97 81.625C108.32 80.975 108.8 80.475 109.41 80.125C110.02 79.775 110.72 79.6 111.51 79.6C112.51 79.6 113.335 79.84 113.985 80.32C114.645 80.79 115.09 81.465 115.32 82.345H113.475C113.325 81.935 113.085 81.615 112.755 81.385C112.425 81.155 112.01 81.04 111.51 81.04C110.81 81.04 110.25 81.29 109.83 81.79C109.42 82.28 109.215 82.97 109.215 83.86C109.215 84.75 109.42 85.445 109.83 85.945C110.25 86.445 110.81 86.695 111.51 86.695C112.5 86.695 113.155 86.26 113.475 85.39H115.32C115.08 86.23 114.63 86.9 113.97 87.4C113.31 87.89 112.49 88.135 111.51 88.135C110.72 88.135 110.02 87.96 109.41 87.61C108.8 87.25 108.32 86.75 107.97 86.11C107.63 85.46 107.46 84.71 107.46 83.86ZM118.734 80.935C118.984 80.515 119.314 80.19 119.724 79.96C120.144 79.72 120.639 79.6 121.209 79.6V81.37H120.774C120.104 81.37 119.594 81.54 119.244 81.88C118.904 82.22 118.734 82.81 118.734 83.65V88H117.024V79.735H118.734V80.935ZM123.651 78.64C123.341 78.64 123.081 78.535 122.871 78.325C122.661 78.115 122.556 77.855 122.556 77.545C122.556 77.235 122.661 76.975 122.871 76.765C123.081 76.555 123.341 76.45 123.651 76.45C123.951 76.45 124.206 76.555 124.416 76.765C124.626 76.975 124.731 77.235 124.731 77.545C124.731 77.855 124.626 78.115 124.416 78.325C124.206 78.535 123.951 78.64 123.651 78.64ZM124.491 79.735V88H122.781V79.735H124.491ZM128.446 80.95C128.736 80.57 129.131 80.25 129.631 79.99C130.131 79.73 130.696 79.6 131.326 79.6C132.046 79.6 132.701 79.78 133.291 80.14C133.891 80.49 134.361 80.985 134.701 81.625C135.041 82.265 135.211 83 135.211 83.83C135.211 84.66 135.041 85.405 134.701 86.065C134.361 86.715 133.891 87.225 133.291 87.595C132.701 87.955 132.046 88.135 131.326 88.135C130.696 88.135 130.136 88.01 129.646 87.76C129.156 87.5 128.756 87.18 128.446 86.8V91.93H126.736V79.735H128.446V80.95ZM133.471 83.83C133.471 83.26 133.351 82.77 133.111 82.36C132.881 81.94 132.571 81.625 132.181 81.415C131.801 81.195 131.391 81.085 130.951 81.085C130.521 81.085 130.111 81.195 129.721 81.415C129.341 81.635 129.031 81.955 128.791 82.375C128.561 82.795 128.446 83.29 128.446 83.86C128.446 84.43 128.561 84.93 128.791 85.36C129.031 85.78 129.341 86.1 129.721 86.32C130.111 86.54 130.521 86.65 130.951 86.65C131.391 86.65 131.801 86.54 132.181 86.32C132.571 86.09 132.881 85.76 133.111 85.33C133.351 84.9 133.471 84.4 133.471 83.83ZM138.897 81.13V85.705C138.897 86.015 138.967 86.24 139.107 86.38C139.257 86.51 139.507 86.575 139.857 86.575H140.907V88H139.557C138.787 88 138.197 87.82 137.787 87.46C137.377 87.1 137.172 86.515 137.172 85.705V81.13H136.197V79.735H137.172V77.68H138.897V79.735H140.907V81.13H138.897ZM143.353 78.64C143.043 78.64 142.783 78.535 142.573 78.325C142.363 78.115 142.258 77.855 142.258 77.545C142.258 77.235 142.363 76.975 142.573 76.765C142.783 76.555 143.043 76.45 143.353 76.45C143.653 76.45 143.908 76.555 144.118 76.765C144.328 76.975 144.433 77.235 144.433 77.545C144.433 77.855 144.328 78.115 144.118 78.325C143.908 78.535 143.653 78.64 143.353 78.64ZM144.193 79.735V88H142.483V79.735H144.193ZM149.633 86.47L151.973 79.735H153.788L150.638 88H148.598L145.463 79.735H147.293L149.633 86.47ZM162.656 83.665C162.656 83.975 162.636 84.255 162.596 84.505H156.281C156.331 85.165 156.576 85.695 157.016 86.095C157.456 86.495 157.996 86.695 158.636 86.695C159.556 86.695 160.206 86.31 160.586 85.54H162.431C162.181 86.3 161.726 86.925 161.066 87.415C160.416 87.895 159.606 88.135 158.636 88.135C157.846 88.135 157.136 87.96 156.506 87.61C155.886 87.25 155.396 86.75 155.036 86.11C154.686 85.46 154.511 84.71 154.511 83.86C154.511 83.01 154.681 82.265 155.021 81.625C155.371 80.975 155.856 80.475 156.476 80.125C157.106 79.775 157.826 79.6 158.636 79.6C159.416 79.6 160.111 79.77 160.721 80.11C161.331 80.45 161.806 80.93 162.146 81.55C162.486 82.16 162.656 82.865 162.656 83.665ZM160.871 83.125C160.861 82.495 160.636 81.99 160.196 81.61C159.756 81.23 159.211 81.04 158.561 81.04C157.971 81.04 157.466 81.23 157.046 81.61C156.626 81.98 156.376 82.485 156.296 83.125H160.871Z" fill="white"/>
<ellipse cx="179.5" cy="177" rx="26.5" ry="27" fill="#CACACA"/>
<ellipse cx="304" cy="261.5" rx="27" ry="26.5" fill="#CACACA"/>
<ellipse cx="255" cy="339.5" rx="26" ry="25.5" fill="#CACACA"/>
<circle cx="101.5" cy="351.5" r="26.5" fill="#CACACA"/>
<circle cx="71" cy="173" r="7" fill="#CACACA"/>
<circle cx="246.5" cy="221.5" r="7.5" fill="#CACACA"/>
<ellipse cx="270" cy="221.5" rx="7" ry="7.5" fill="#CACACA"/>
<circle cx="258" cy="255" r="7" fill="#CACACA"/>
<ellipse cx="67.5" cy="390" rx="7.5" ry="7" fill="#CACACA"/>
<ellipse cx="7" cy="400.5" rx="7" ry="7.5" fill="#CACACA"/>
<circle cx="479" cy="123" r="7" fill="#CACACA"/>
<circle cx="512" cy="152" r="7" fill="#CACACA"/>
<circle cx="213" cy="11" r="7" fill="#CACACA"/>
<ellipse cx="258" cy="35.5" rx="7" ry="7.5" fill="#CACACA"/>
<ellipse cx="265.5" cy="296" rx="7.5" ry="7" fill="#CACACA"/>
<ellipse cx="297.5" cy="339" rx="7.5" ry="7" fill="#CACACA"/>
<circle cx="178" cy="14" r="14" fill="#CACACA"/>
<circle cx="478.5" cy="156.5" r="14.5" fill="#CACACA"/>
<circle cx="322.5" cy="310.5" r="14.5" fill="#CACACA"/>
<ellipse cx="225" cy="156.5" rx="14" ry="14.5" fill="#CACACA"/>
<ellipse cx="228.5" cy="192" rx="14.5" ry="14" fill="#CACACA"/>
<ellipse cx="397.5" cy="203" rx="66.5" ry="67" fill="#2279D4"/>
<circle cx="187" cy="400" r="56" fill="#4BAF50"/>
<path d="M364.415 199.68C364.415 200.21 364.29 200.71 364.04 201.18C363.79 201.65 363.39 202.035 362.84 202.335C362.29 202.625 361.585 202.77 360.725 202.77H358.835V207H357.125V196.575H360.725C361.525 196.575 362.2 196.715 362.75 196.995C363.31 197.265 363.725 197.635 363.995 198.105C364.275 198.575 364.415 199.1 364.415 199.68ZM360.725 201.375C361.375 201.375 361.86 201.23 362.18 200.94C362.5 200.64 362.66 200.22 362.66 199.68C362.66 198.54 362.015 197.97 360.725 197.97H358.835V201.375H360.725ZM367.756 199.935C368.006 199.515 368.336 199.19 368.746 198.96C369.166 198.72 369.661 198.6 370.231 198.6V200.37H369.796C369.126 200.37 368.616 200.54 368.266 200.88C367.926 201.22 367.756 201.81 367.756 202.65V207H366.046V198.735H367.756V199.935ZM379.378 202.665C379.378 202.975 379.358 203.255 379.318 203.505H373.003C373.053 204.165 373.298 204.695 373.738 205.095C374.178 205.495 374.718 205.695 375.358 205.695C376.278 205.695 376.928 205.31 377.308 204.54H379.153C378.903 205.3 378.448 205.925 377.788 206.415C377.138 206.895 376.328 207.135 375.358 207.135C374.568 207.135 373.858 206.96 373.228 206.61C372.608 206.25 372.118 205.75 371.758 205.11C371.408 204.46 371.233 203.71 371.233 202.86C371.233 202.01 371.403 201.265 371.743 200.625C372.093 199.975 372.578 199.475 373.198 199.125C373.828 198.775 374.548 198.6 375.358 198.6C376.138 198.6 376.833 198.77 377.443 199.11C378.053 199.45 378.528 199.93 378.868 200.55C379.208 201.16 379.378 201.865 379.378 202.665ZM377.593 202.125C377.583 201.495 377.358 200.99 376.918 200.61C376.478 200.23 375.933 200.04 375.283 200.04C374.693 200.04 374.188 200.23 373.768 200.61C373.348 200.98 373.098 201.485 373.018 202.125H377.593ZM380.491 202.83C380.491 202 380.661 201.265 381.001 200.625C381.351 199.985 381.821 199.49 382.411 199.14C383.011 198.78 383.676 198.6 384.406 198.6C384.946 198.6 385.476 198.72 385.996 198.96C386.526 199.19 386.946 199.5 387.256 199.89V195.9H388.981V207H387.256V205.755C386.976 206.155 386.586 206.485 386.086 206.745C385.596 207.005 385.031 207.135 384.391 207.135C383.671 207.135 383.011 206.955 382.411 206.595C381.821 206.225 381.351 205.715 381.001 205.065C380.661 204.405 380.491 203.66 380.491 202.83ZM387.256 202.86C387.256 202.29 387.136 201.795 386.896 201.375C386.666 200.955 386.361 200.635 385.981 200.415C385.601 200.195 385.191 200.085 384.751 200.085C384.311 200.085 383.901 200.195 383.521 200.415C383.141 200.625 382.831 200.94 382.591 201.36C382.361 201.77 382.246 202.26 382.246 202.83C382.246 203.4 382.361 203.9 382.591 204.33C382.831 204.76 383.141 205.09 383.521 205.32C383.911 205.54 384.321 205.65 384.751 205.65C385.191 205.65 385.601 205.54 385.981 205.32C386.361 205.1 386.666 204.78 386.896 204.36C387.136 203.93 387.256 203.43 387.256 202.86ZM398.802 202.665C398.802 202.975 398.782 203.255 398.742 203.505H392.427C392.477 204.165 392.722 204.695 393.162 205.095C393.602 205.495 394.142 205.695 394.782 205.695C395.702 205.695 396.352 205.31 396.732 204.54H398.577C398.327 205.3 397.872 205.925 397.212 206.415C396.562 206.895 395.752 207.135 394.782 207.135C393.992 207.135 393.282 206.96 392.652 206.61C392.032 206.25 391.542 205.75 391.182 205.11C390.832 204.46 390.657 203.71 390.657 202.86C390.657 202.01 390.827 201.265 391.167 200.625C391.517 199.975 392.002 199.475 392.622 199.125C393.252 198.775 393.972 198.6 394.782 198.6C395.562 198.6 396.257 198.77 396.867 199.11C397.477 199.45 397.952 199.93 398.292 200.55C398.632 201.16 398.802 201.865 398.802 202.665ZM397.017 202.125C397.007 201.495 396.782 200.99 396.342 200.61C395.902 200.23 395.357 200.04 394.707 200.04C394.117 200.04 393.612 200.23 393.192 200.61C392.772 200.98 392.522 201.485 392.442 202.125H397.017ZM399.914 202.86C399.914 202.01 400.084 201.265 400.424 200.625C400.774 199.975 401.254 199.475 401.864 199.125C402.474 198.775 403.174 198.6 403.964 198.6C404.964 198.6 405.789 198.84 406.439 199.32C407.099 199.79 407.544 200.465 407.774 201.345H405.929C405.779 200.935 405.539 200.615 405.209 200.385C404.879 200.155 404.464 200.04 403.964 200.04C403.264 200.04 402.704 200.29 402.284 200.79C401.874 201.28 401.669 201.97 401.669 202.86C401.669 203.75 401.874 204.445 402.284 204.945C402.704 205.445 403.264 205.695 403.964 205.695C404.954 205.695 405.609 205.26 405.929 204.39H407.774C407.534 205.23 407.084 205.9 406.424 206.4C405.764 206.89 404.944 207.135 403.964 207.135C403.174 207.135 402.474 206.96 401.864 206.61C401.254 206.25 400.774 205.75 400.424 205.11C400.084 204.46 399.914 203.71 399.914 202.86ZM411.474 200.13V204.705C411.474 205.015 411.544 205.24 411.684 205.38C411.834 205.51 412.084 205.575 412.434 205.575H413.484V207H412.134C411.364 207 410.774 206.82 410.364 206.46C409.954 206.1 409.749 205.515 409.749 204.705V200.13H408.774V198.735H409.749V196.68H411.474V198.735H413.484V200.13H411.474ZM415.93 197.64C415.62 197.64 415.36 197.535 415.15 197.325C414.94 197.115 414.835 196.855 414.835 196.545C414.835 196.235 414.94 195.975 415.15 195.765C415.36 195.555 415.62 195.45 415.93 195.45C416.23 195.45 416.485 195.555 416.695 195.765C416.905 195.975 417.01 196.235 417.01 196.545C417.01 196.855 416.905 197.115 416.695 197.325C416.485 197.535 416.23 197.64 415.93 197.64ZM416.77 198.735V207H415.06V198.735H416.77ZM422.21 205.47L424.55 198.735H426.365L423.215 207H421.175L418.04 198.735H419.87L422.21 205.47ZM435.232 202.665C435.232 202.975 435.212 203.255 435.172 203.505H428.857C428.907 204.165 429.152 204.695 429.592 205.095C430.032 205.495 430.572 205.695 431.212 205.695C432.132 205.695 432.782 205.31 433.162 204.54H435.007C434.757 205.3 434.302 205.925 433.642 206.415C432.992 206.895 432.182 207.135 431.212 207.135C430.422 207.135 429.712 206.96 429.082 206.61C428.462 206.25 427.972 205.75 427.612 205.11C427.262 204.46 427.087 203.71 427.087 202.86C427.087 202.01 427.257 201.265 427.597 200.625C427.947 199.975 428.432 199.475 429.052 199.125C429.682 198.775 430.402 198.6 431.212 198.6C431.992 198.6 432.687 198.77 433.297 199.11C433.907 199.45 434.382 199.93 434.722 200.55C435.062 201.16 435.232 201.865 435.232 202.665ZM433.447 202.125C433.437 201.495 433.212 200.99 432.772 200.61C432.332 200.23 431.787 200.04 431.137 200.04C430.547 200.04 430.042 200.23 429.622 200.61C429.202 200.98 428.952 201.485 428.872 202.125H433.447Z" fill="white"/>
<path d="M160.555 397.765C160.555 396.745 160.79 395.83 161.26 395.02C161.74 394.21 162.385 393.58 163.195 393.13C164.015 392.67 164.91 392.44 165.88 392.44C166.99 392.44 167.975 392.715 168.835 393.265C169.705 393.805 170.335 394.575 170.725 395.575H168.67C168.4 395.025 168.025 394.615 167.545 394.345C167.065 394.075 166.51 393.94 165.88 393.94C165.19 393.94 164.575 394.095 164.035 394.405C163.495 394.715 163.07 395.16 162.76 395.74C162.46 396.32 162.31 396.995 162.31 397.765C162.31 398.535 162.46 399.21 162.76 399.79C163.07 400.37 163.495 400.82 164.035 401.14C164.575 401.45 165.19 401.605 165.88 401.605C166.51 401.605 167.065 401.47 167.545 401.2C168.025 400.93 168.4 400.52 168.67 399.97H170.725C170.335 400.97 169.705 401.74 168.835 402.28C167.975 402.82 166.99 403.09 165.88 403.09C164.9 403.09 164.005 402.865 163.195 402.415C162.385 401.955 161.74 401.32 161.26 400.51C160.79 399.7 160.555 398.785 160.555 397.765ZM172.157 398.83C172.157 398 172.327 397.265 172.667 396.625C173.017 395.985 173.487 395.49 174.077 395.14C174.677 394.78 175.337 394.6 176.057 394.6C176.707 394.6 177.272 394.73 177.752 394.99C178.242 395.24 178.632 395.555 178.922 395.935V394.735H180.647V403H178.922V401.77C178.632 402.16 178.237 402.485 177.737 402.745C177.237 403.005 176.667 403.135 176.027 403.135C175.317 403.135 174.667 402.955 174.077 402.595C173.487 402.225 173.017 401.715 172.667 401.065C172.327 400.405 172.157 399.66 172.157 398.83ZM178.922 398.86C178.922 398.29 178.802 397.795 178.562 397.375C178.332 396.955 178.027 396.635 177.647 396.415C177.267 396.195 176.857 396.085 176.417 396.085C175.977 396.085 175.567 396.195 175.187 396.415C174.807 396.625 174.497 396.94 174.257 397.36C174.027 397.77 173.912 398.26 173.912 398.83C173.912 399.4 174.027 399.9 174.257 400.33C174.497 400.76 174.807 401.09 175.187 401.32C175.577 401.54 175.987 401.65 176.417 401.65C176.857 401.65 177.267 401.54 177.647 401.32C178.027 401.1 178.332 400.78 178.562 400.36C178.802 399.93 178.922 399.43 178.922 398.86ZM185.893 403.135C185.243 403.135 184.658 403.02 184.138 402.79C183.628 402.55 183.223 402.23 182.923 401.83C182.623 401.42 182.463 400.965 182.443 400.465H184.213C184.243 400.815 184.408 401.11 184.708 401.35C185.018 401.58 185.403 401.695 185.863 401.695C186.343 401.695 186.713 401.605 186.973 401.425C187.243 401.235 187.378 400.995 187.378 400.705C187.378 400.395 187.228 400.165 186.928 400.015C186.638 399.865 186.173 399.7 185.533 399.52C184.913 399.35 184.408 399.185 184.018 399.025C183.628 398.865 183.288 398.62 182.998 398.29C182.718 397.96 182.578 397.525 182.578 396.985C182.578 396.545 182.708 396.145 182.968 395.785C183.228 395.415 183.598 395.125 184.078 394.915C184.568 394.705 185.128 394.6 185.758 394.6C186.698 394.6 187.453 394.84 188.023 395.32C188.603 395.79 188.913 396.435 188.953 397.255H187.243C187.213 396.885 187.063 396.59 186.793 396.37C186.523 396.15 186.158 396.04 185.698 396.04C185.248 396.04 184.903 396.125 184.663 396.295C184.423 396.465 184.303 396.69 184.303 396.97C184.303 397.19 184.383 397.375 184.543 397.525C184.703 397.675 184.898 397.795 185.128 397.885C185.358 397.965 185.698 398.07 186.148 398.2C186.748 398.36 187.238 398.525 187.618 398.695C188.008 398.855 188.343 399.095 188.623 399.415C188.903 399.735 189.048 400.16 189.058 400.69C189.058 401.16 188.928 401.58 188.668 401.95C188.408 402.32 188.038 402.61 187.558 402.82C187.088 403.03 186.533 403.135 185.893 403.135ZM198.39 394.735V403H196.68V402.025C196.41 402.365 196.055 402.635 195.615 402.835C195.185 403.025 194.725 403.12 194.235 403.12C193.585 403.12 193 402.985 192.48 402.715C191.97 402.445 191.565 402.045 191.265 401.515C190.975 400.985 190.83 400.345 190.83 399.595V394.735H192.525V399.34C192.525 400.08 192.71 400.65 193.08 401.05C193.45 401.44 193.955 401.635 194.595 401.635C195.235 401.635 195.74 401.44 196.11 401.05C196.49 400.65 196.68 400.08 196.68 399.34V394.735H198.39ZM200.076 398.83C200.076 398 200.246 397.265 200.586 396.625C200.936 395.985 201.406 395.49 201.996 395.14C202.596 394.78 203.256 394.6 203.976 394.6C204.626 394.6 205.191 394.73 205.671 394.99C206.161 395.24 206.551 395.555 206.841 395.935V394.735H208.566V403H206.841V401.77C206.551 402.16 206.156 402.485 205.656 402.745C205.156 403.005 204.586 403.135 203.946 403.135C203.236 403.135 202.586 402.955 201.996 402.595C201.406 402.225 200.936 401.715 200.586 401.065C200.246 400.405 200.076 399.66 200.076 398.83ZM206.841 398.86C206.841 398.29 206.721 397.795 206.481 397.375C206.251 396.955 205.946 396.635 205.566 396.415C205.186 396.195 204.776 396.085 204.336 396.085C203.896 396.085 203.486 396.195 203.106 396.415C202.726 396.625 202.416 396.94 202.176 397.36C201.946 397.77 201.831 398.26 201.831 398.83C201.831 399.4 201.946 399.9 202.176 400.33C202.416 400.76 202.726 401.09 203.106 401.32C203.496 401.54 203.906 401.65 204.336 401.65C204.776 401.65 205.186 401.54 205.566 401.32C205.946 401.1 206.251 400.78 206.481 400.36C206.721 399.93 206.841 399.43 206.841 398.86ZM212.523 391.9V403H210.813V391.9H212.523Z" fill="white"/>
</svg>
