<svg width="539" height="377" viewBox="0 0 539 377" fill="none" xmlns="http://www.w3.org/2000/svg">
<g clip-path="url(#clip0_180_521)">
<path d="M63.0093 367.523L72.0269 367.522L76.3167 332.762L63.008 332.762L63.0093 367.523Z" fill="#FFB8B8"/>
<path d="M60.7098 376.258L89.7857 376.257V375.889C89.7855 372.89 88.5931 370.013 86.4707 367.892C84.3484 365.771 81.4699 364.58 78.4685 364.579H78.4678L60.7092 364.58L60.7098 376.258Z" fill="#2F2E41"/>
<path d="M23.2108 345.367L29.0639 352.222L58.3071 332.92L49.668 322.803L23.2108 345.367Z" fill="#FFB8B8"/>
<path d="M15.0685 349.289L33.9422 371.393L34.2219 371.155C36.505 369.207 37.9207 366.434 38.1576 363.443C38.3944 360.453 37.4331 357.491 35.4851 355.209L35.4846 355.209L23.9572 341.708L15.0685 349.289Z" fill="#2F2E41"/>
<path d="M127.037 196.576L129.844 222.447L16.374 220.83L65.8587 140.248L106.262 138.797L127.037 196.576Z" fill="#2F2E41"/>
<path opacity="0.28" d="M127.037 196.576L129.844 222.447L16.374 220.83L65.8587 140.248L106.262 138.797L127.037 196.576Z" fill="black"/>
<path d="M104.724 201.017L108.73 224.69V245.849L76.4319 256.385C76.4319 256.385 80.213 338.573 75.1722 343.807L75.2961 356.444L61.2061 357.084L61.0911 348.191L55.1176 281.716L51.5992 232.911L57.3035 195.908L104.724 201.017Z" fill="#2F2E41"/>
<path d="M79.7012 221.395L108.73 245.849C108.73 245.849 110.429 289.97 106.115 295.144C102.409 299.588 54.2136 337.921 54.2136 337.921C54.2136 337.921 45.6479 345.773 40.8476 345.899C36.0474 346.024 30.4643 335.962 30.4643 335.962L41.5814 327.52C41.5814 327.52 70.3821 300.653 78.9336 289.97C82.3851 285.658 82.3851 285.227 82.3851 285.227L81.2063 267.296L69.3418 234.018L79.7012 221.395Z" fill="#2F2E41"/>
<path d="M110.521 104.258L123.037 103.102L134.389 104.992L158.428 105L160.476 122.412L138.539 127.319L133.193 124.7L110.908 133.185L110.521 104.258Z" fill="#2F2E41"/>
<path d="M95.5723 104.203C95.5723 104.203 69.0104 101.716 62.9702 106.459C56.93 111.202 43.9867 205.2 43.9867 205.2L95.5723 208.109L104.82 201.75L102.195 154.823L95.5723 104.203Z" fill="#CCCCCC"/>
<path d="M87.4644 103.617L116.765 104.26L144.082 227.621L122.509 232.365L87.4644 103.617Z" fill="#2F2E41"/>
<path d="M66.6355 102.575L43.5555 109.794L44.8665 160.479L16.374 221.077L49.8691 224.603L76.3448 159.169L66.6355 102.575Z" fill="#2F2E41"/>
<path d="M28.5767 227.232C27.7676 226.52 27.1245 225.64 26.6927 224.653C26.2609 223.666 26.0509 222.596 26.0776 221.519C26.1042 220.442 26.3668 219.384 26.8469 218.419C27.327 217.454 28.0128 216.607 28.8561 215.936L24.213 199.748L33.3682 194.528L39.604 217.481C40.6381 218.972 41.0891 220.79 40.8717 222.59C40.6542 224.391 39.7833 226.05 38.4241 227.252C37.0648 228.454 35.3116 229.116 33.4967 229.112C31.6818 229.108 29.9312 228.44 28.5767 227.232V227.232Z" fill="#FFB8B8"/>
<path d="M56.9299 111.202L43.2733 110.018C43.2733 110.018 31.013 122.833 28.2238 132.756C25.4345 142.678 22.4144 173.723 22.4144 173.723L23.6743 219.139L39.6377 208.305L40.7083 169.242L56.9299 111.202Z" fill="#2F2E41"/>
<path d="M60.2243 88.3744C55.096 78.9987 58.5438 67.2434 67.9251 62.1182C77.3065 56.9929 89.0689 60.4386 94.1972 69.8143C99.3255 79.19 95.8777 90.9453 86.4964 96.0705C77.115 101.196 65.3526 97.7501 60.2243 88.3744Z" fill="#FFB8B8"/>
<path d="M79.3691 71.0173C81.9091 70.4308 84.5458 71.0808 87.1183 71.5021C89.6909 71.9235 92.5259 72.0623 94.702 70.6279C96.3091 69.5685 97.2971 67.8159 98.2249 66.13C98.6121 65.528 98.8701 64.8522 98.9827 64.1454C99.092 62.8986 98.2984 61.7611 97.4556 60.8353C93.5412 56.535 87.8208 54.1814 82.0521 53.4338C77.2946 52.7252 72.4339 53.3184 67.9869 55.1503C63.6078 57.0698 59.8435 60.5849 58.1218 65.0433C57.3288 67.3252 56.8336 69.6997 56.6484 72.1081C56.3883 73.8802 56.3549 75.6781 56.5491 77.4585C56.781 78.7784 57.1281 80.0755 57.5866 81.3348L60.4386 89.9411C60.6436 90.7544 61.0266 91.5121 61.56 92.1596C61.834 92.4767 62.2035 92.6966 62.6131 92.7863C63.0227 92.8759 63.4503 92.8306 63.8319 92.657C63.6037 91.7222 63.5689 90.7507 63.7297 89.802C63.8189 89.3292 64.0478 88.8939 64.3867 88.5523C64.7257 88.2106 65.1593 87.9782 65.6317 87.885C66.6828 87.7736 67.5808 88.5879 68.578 88.9387C69.0344 89.0739 69.5129 89.1179 69.9863 89.0683C70.4597 89.0187 70.9187 88.8763 71.3371 88.6494C71.7554 88.4225 72.125 88.1155 72.4246 87.7459C72.7242 87.3762 72.9481 86.9512 73.0834 86.4951C73.1107 86.4032 73.1343 86.3103 73.1542 86.2164C73.3116 85.2324 73.0473 84.1791 73.4204 83.2551C73.8577 82.1725 75.0171 81.6053 75.8881 80.8274C76.6829 80.0944 77.2518 79.1498 77.5279 78.1047C77.8039 77.0597 77.7758 75.9576 77.4466 74.928C77.2134 74.2118 76.5549 73.8861 76.6866 73.0633C76.8595 71.9838 78.4519 71.2291 79.3691 71.0173Z" fill="#2F2E41"/>
<path d="M294.595 152.8H539V0H294.595V152.8Z" fill="white"/>
<path d="M294.595 152.8H539V0H294.595V152.8ZM537.884 151.685H295.711V1.11533H537.884V151.685Z" fill="#3F3D56"/>
<path d="M324.448 364.435H463.949V211.634H324.448V364.435Z" fill="white"/>
<path d="M324.448 364.435H463.949V211.634H324.448V364.435ZM462.833 363.319H325.564V212.75H462.833V363.319Z" fill="#3F3D56"/>
<path d="M343.42 350.003H372.436V351.179H343.42V350.003Z" fill="#3F3D56"/>
<path d="M343.42 353.53H372.436V354.705H343.42V353.53Z" fill="#3F3D56"/>
<path d="M343.42 357.057H372.436V358.232H343.42V357.057Z" fill="#3F3D56"/>
<path d="M394.198 238.96V251.228C386.915 251.228 379.794 253.387 373.738 257.431C367.682 261.476 362.961 267.224 360.174 273.949C357.386 280.675 356.657 288.075 358.078 295.215C359.499 302.354 363.007 308.913 368.157 314.06L359.477 322.735C352.609 315.872 347.933 307.128 346.038 297.608C344.143 288.089 345.116 278.221 348.832 269.254C352.549 260.287 358.843 252.623 366.918 247.23C374.993 241.838 384.487 238.96 394.198 238.96Z" fill="#D0CECE"/>
<path d="M359.477 322.735L368.157 314.06C374.453 320.354 382.819 324.154 391.704 324.756C400.589 325.358 409.391 322.721 416.48 317.334L423.91 327.105C414.457 334.286 402.72 337.8 390.873 336.996C379.027 336.193 367.873 331.126 359.477 322.735Z" fill="#575A89"/>
<path d="M431.027 288.034C431.027 283.201 430.074 278.415 428.223 273.949C426.372 269.484 423.66 265.426 420.24 262.009C416.82 258.591 412.76 255.88 408.292 254.03C403.824 252.18 399.035 251.228 394.198 251.228V238.96C404.478 238.96 414.498 242.184 422.847 248.177C431.195 254.171 437.452 262.631 440.733 272.367C444.015 282.103 444.157 292.622 441.138 302.443C438.12 312.263 432.094 320.889 423.91 327.105L416.48 317.334C421.004 313.905 424.672 309.475 427.196 304.391C429.719 299.308 431.031 293.709 431.027 288.034V288.034Z" fill="#2279D4"/>
<path d="M117.988 269.632H257.488V116.831H117.988V269.632Z" fill="white"/>
<path d="M117.988 269.632H257.488V116.831H117.988V269.632ZM256.372 268.516H119.104V117.946H256.372V268.516Z" fill="#3F3D56"/>
<path d="M212.29 210.24H237.4V250.392H212.29V210.24Z" fill="#575A89"/>
<path d="M176.02 182.914H201.13V250.392H176.02V182.914Z" fill="#D0CECE"/>
<path d="M139.75 151.127H164.86V250.392H139.75V151.127Z" fill="#2279D4"/>
<path d="M131.38 251.508H244.096V134.955H242.98V250.392H131.38V251.508Z" fill="#3F3D56"/>
<path d="M158.555 120.899C154.31 120.899 150.87 117.46 150.87 113.218C150.87 108.976 154.31 105.537 158.555 105.537C162.8 105.537 166.241 108.976 166.241 113.218C166.241 117.46 162.8 120.899 158.555 120.899Z" fill="#FFB8B8"/>
<path d="M0.640453 377H120.405C120.575 377 120.738 376.933 120.858 376.813C120.978 376.693 121.046 376.53 121.046 376.36C121.046 376.19 120.978 376.027 120.858 375.907C120.738 375.787 120.575 375.72 120.405 375.72H0.640453C0.470594 375.72 0.307701 375.787 0.187593 375.907C0.0674842 376.027 -1.3113e-06 376.19 -1.3113e-06 376.36C-1.3113e-06 376.53 0.0674842 376.693 0.187593 376.813C0.307701 376.933 0.470594 377 0.640453 377Z" fill="#CCCCCC"/>
<path d="M328.537 120.844H505.058C505.205 120.844 505.345 120.786 505.449 120.682C505.552 120.579 505.61 120.438 505.61 120.292V35.7364C505.61 35.59 505.552 35.4496 505.449 35.346C505.345 35.2425 505.205 35.1843 505.058 35.1843C504.911 35.1843 504.771 35.2425 504.667 35.346C504.564 35.4496 504.506 35.59 504.506 35.7364V119.74H328.537C328.464 119.739 328.392 119.754 328.325 119.781C328.258 119.809 328.197 119.849 328.145 119.901C328.094 119.952 328.053 120.013 328.025 120.08C327.997 120.147 327.983 120.219 327.983 120.292C327.983 120.364 327.997 120.436 328.025 120.504C328.053 120.571 328.094 120.632 328.145 120.683C328.197 120.734 328.258 120.775 328.325 120.802C328.392 120.83 328.464 120.844 328.537 120.844V120.844Z" fill="#3F3D56"/>
<path d="M467.343 114.771H483.398C483.833 114.77 484.25 114.598 484.557 114.29C484.865 113.983 485.038 113.567 485.038 113.132V91.0132C485.038 90.5787 484.865 90.1621 484.557 89.8549C484.25 89.5477 483.833 89.3749 483.398 89.3744H467.343C466.908 89.3749 466.492 89.5477 466.184 89.8549C465.877 90.1621 465.704 90.5787 465.703 91.0132V113.132C465.704 113.567 465.877 113.983 466.184 114.29C466.492 114.598 466.908 114.77 467.343 114.771V114.771Z" fill="#2279D4"/>
<path d="M438.064 114.771H454.12C454.554 114.77 454.971 114.598 455.279 114.29C455.586 113.983 455.759 113.567 455.76 113.132V70.0335C455.759 69.5991 455.586 69.1825 455.279 68.8753C454.971 68.5681 454.554 68.3953 454.12 68.3948H438.064C437.63 68.3953 437.213 68.5681 436.905 68.8753C436.598 69.1825 436.425 69.5991 436.425 70.0335V113.132C436.425 113.567 436.598 113.983 436.905 114.29C437.213 114.598 437.63 114.77 438.064 114.771V114.771Z" fill="#2279D4"/>
<path d="M408.786 114.771H424.841C425.276 114.77 425.692 114.598 426 114.29C426.307 113.983 426.48 113.567 426.481 113.132V91.0132C426.48 90.5787 426.307 90.1621 426 89.8549C425.692 89.5477 425.276 89.3749 424.841 89.3744H408.786C408.351 89.3749 407.934 89.5477 407.627 89.8549C407.319 90.1621 407.146 90.5787 407.146 91.0132V113.132C407.146 113.567 407.319 113.983 407.627 114.29C407.934 114.598 408.351 114.77 408.786 114.771V114.771Z" fill="#2279D4"/>
<path d="M379.507 114.771H395.562C395.987 114.78 396.398 114.62 396.705 114.327C397.013 114.034 397.191 113.631 397.202 113.206V61.6778C397.191 61.2533 397.013 60.8502 396.705 60.5569C396.398 60.2637 395.987 60.1041 395.562 60.1133H379.507C379.082 60.1041 378.671 60.2637 378.363 60.5569C378.056 60.8502 377.878 61.2533 377.867 61.6778V113.206C377.878 113.631 378.056 114.034 378.363 114.327C378.671 114.62 379.082 114.78 379.507 114.771V114.771Z" fill="#2279D4"/>
<path d="M350.228 114.771H366.283C366.718 114.77 367.135 114.598 367.442 114.29C367.75 113.983 367.923 113.567 367.923 113.132V46.8454C367.923 46.4109 367.75 45.9944 367.442 45.6872C367.135 45.38 366.718 45.2071 366.283 45.2067H350.228C349.793 45.2071 349.377 45.38 349.069 45.6872C348.762 45.9944 348.589 46.4109 348.588 46.8454V113.132C348.589 113.567 348.762 113.983 349.069 114.29C349.377 114.598 349.793 114.77 350.228 114.771V114.771Z" fill="#2279D4"/>
<path d="M475.371 82.7493C473.54 82.7493 472.056 81.2662 472.056 79.4367C472.056 77.6072 473.54 76.1241 475.371 76.1241C477.201 76.1241 478.685 77.6072 478.685 79.4367C478.685 81.2662 477.201 82.7493 475.371 82.7493Z" fill="#3F3D56"/>
<path d="M446.092 61.2175C444.261 61.2175 442.777 59.7344 442.777 57.9049C442.777 56.0754 444.261 54.5923 446.092 54.5923C447.923 54.5923 449.407 56.0754 449.407 57.9049C449.407 59.7344 447.923 61.2175 446.092 61.2175Z" fill="#3F3D56"/>
<path d="M416.813 82.7493C414.983 82.7493 413.499 81.2662 413.499 79.4367C413.499 77.6072 414.983 76.1241 416.813 76.1241C418.644 76.1241 420.128 77.6072 420.128 79.4367C420.128 81.2662 418.644 82.7493 416.813 82.7493Z" fill="#3F3D56"/>
<path d="M387.534 50.7277C385.704 50.7277 384.22 49.2446 384.22 47.4151C384.22 45.5856 385.704 44.1025 387.534 44.1025C389.365 44.1025 390.849 45.5856 390.849 47.4151C390.849 49.2446 389.365 50.7277 387.534 50.7277Z" fill="#3F3D56"/>
<path d="M358.256 38.5816C356.425 38.5816 354.941 37.0985 354.941 35.269C354.941 33.4395 356.425 31.9564 358.256 31.9564C360.086 31.9564 361.57 33.4395 361.57 35.269C361.57 37.0985 360.086 38.5816 358.256 38.5816Z" fill="#3F3D56"/>
<path d="M416.744 80.1787L446.092 58.2096L475.04 79.8785L475.702 78.9946L446.092 56.8297L416.883 78.6944L387.857 46.9502L387.741 46.9028L358.462 35.1128L358.049 36.1375L387.212 47.8802L416.744 80.1787Z" fill="#3F3D56"/>
</g>
<defs>
<clipPath id="clip0_180_521">
<rect width="539" height="377" fill="white" transform="matrix(-1 0 0 1 539 0)"/>
</clipPath>
</defs>
</svg>
