<svg width="526" height="260" viewBox="0 0 526 260" fill="none" xmlns="http://www.w3.org/2000/svg">
<path d="M0.518424 2.23438C0.388981 1.41613 0.94737 0.647868 1.76562 0.518424C2.58387 0.388981 3.35213 0.94737 3.48158 1.76562L0.518424 2.23438ZM10.7772 39.962L9.40756 40.5737L9.40756 40.5737L10.7772 39.962ZM61.0561 98.7976L61.9762 97.613L61.9762 97.613L61.0561 98.7976ZM148.719 134.164L148.659 135.663L148.719 134.164ZM243.101 115.67L242.254 114.431L242.274 114.417L242.296 114.404L243.101 115.67ZM261.63 80.8441L263.128 80.7703L263.138 80.9646L263.098 81.1549L261.63 80.8441ZM256.563 60.151L257.881 59.4337L257.881 59.4337L256.563 60.151ZM238.008 45.0452L237.416 46.4237L237.332 46.3875L237.252 46.3412L238.008 45.0452ZM202.644 46.4331L201.851 45.1598L201.975 45.0828L202.111 45.031L202.644 46.4331ZM171.691 80.8441L173.177 81.0544L173.17 81.098L173.162 81.1411L171.691 80.8441ZM203.701 156.176L203.086 157.544L203.008 157.509L202.934 157.465L203.701 156.176ZM292.296 152.28L292.769 153.703L292.296 152.28ZM418.849 138.238L419.023 136.748L419.125 136.76L419.225 136.785L418.849 138.238ZM461.667 152.28L462.257 150.901L462.257 150.901L461.667 152.28ZM503.164 196.082L501.843 196.792L501.843 196.792L503.164 196.082ZM515.061 259.061C514.475 259.646 513.525 259.646 512.939 259.061L503.393 249.515C502.808 248.929 502.808 247.979 503.393 247.393C503.979 246.808 504.929 246.808 505.515 247.393L514 255.879L522.485 247.393C523.071 246.808 524.021 246.808 524.607 247.393C525.192 247.979 525.192 248.929 524.607 249.515L515.061 259.061ZM512.499 254.819C512.498 253.991 513.169 253.319 513.997 253.318C514.826 253.317 515.498 253.988 515.499 254.816L512.499 254.819ZM515.467 248.442C515.476 249.27 514.811 249.949 513.983 249.957C513.154 249.966 512.476 249.302 512.467 248.473L515.467 248.442ZM512.343 242.145C512.317 241.317 512.968 240.625 513.796 240.6C514.624 240.574 515.316 241.225 515.341 242.053L512.343 242.145ZM515.05 235.653C515.102 236.479 514.473 237.191 513.646 237.243C512.82 237.294 512.108 236.666 512.056 235.839L515.05 235.653ZM511.534 229.566C511.446 228.742 512.043 228.003 512.867 227.916C513.691 227.828 514.429 228.425 514.517 229.249L511.534 229.566ZM513.665 222.863C513.798 223.681 513.243 224.451 512.425 224.584C511.607 224.718 510.837 224.163 510.704 223.345L513.665 222.863ZM509.5 217.201C509.313 216.394 509.817 215.588 510.624 215.402C511.431 215.215 512.236 215.718 512.423 216.525L509.5 217.201ZM510.74 210.28C510.985 211.071 510.542 211.911 509.751 212.157C508.959 212.402 508.119 211.959 507.874 211.168L510.74 210.28ZM505.798 205.281C505.493 204.511 505.869 203.639 506.639 203.334C507.409 203.028 508.281 203.405 508.587 204.175L505.798 205.281ZM505.966 198.254C506.33 198.998 506.022 199.897 505.278 200.261C504.534 200.626 503.636 200.318 503.271 199.574L505.966 198.254ZM500.532 194.323C500.147 193.59 500.43 192.683 501.163 192.298C501.896 191.912 502.803 192.195 503.188 192.928L500.532 194.323ZM500.615 188.002C501.001 188.735 500.719 189.642 499.986 190.027C499.253 190.413 498.346 190.131 497.96 189.398L500.615 188.002ZM495.327 184.568C494.914 183.85 495.162 182.933 495.881 182.521C496.599 182.108 497.516 182.356 497.928 183.075L495.327 184.568ZM494.933 178.259C495.399 178.943 495.223 179.877 494.538 180.343C493.853 180.81 492.92 180.633 492.454 179.948L494.933 178.259ZM489.189 175.657C488.651 175.026 488.727 174.079 489.357 173.542C489.987 173.004 490.934 173.08 491.472 173.71L489.189 175.657ZM487.508 169.576C488.115 170.14 488.15 171.089 487.586 171.696C487.022 172.303 486.073 172.338 485.466 171.774L487.508 169.576ZM480.729 167.746C480.09 167.218 480 166.273 480.528 165.634C481.055 164.995 482.001 164.905 482.639 165.433L480.729 167.746ZM477.154 160.966C477.801 161.483 477.907 162.427 477.39 163.074C476.873 163.721 475.929 163.827 475.282 163.31L477.154 160.966ZM469.748 159.041C469.081 158.549 468.939 157.61 469.43 156.943C469.921 156.276 470.86 156.134 471.527 156.625L469.748 159.041ZM465.556 152.604C466.269 153.025 466.507 153.944 466.086 154.658C465.665 155.372 464.745 155.609 464.032 155.188L465.556 152.604ZM458.496 152.574C457.73 152.258 457.365 151.381 457.681 150.616C457.997 149.85 458.874 149.485 459.64 149.801L458.496 152.574ZM454.366 147.703C455.14 147.999 455.526 148.867 455.229 149.64C454.933 150.414 454.065 150.8 453.292 150.504L454.366 147.703ZM448.037 148.56C447.257 148.282 446.85 147.423 447.128 146.643C447.407 145.863 448.265 145.456 449.045 145.734L448.037 148.56ZM443.683 143.888C444.469 144.149 444.895 144.998 444.634 145.785C444.372 146.571 443.523 146.996 442.737 146.735L443.683 143.888ZM437.397 145.019C436.606 144.773 436.164 143.933 436.41 143.141C436.656 142.35 437.496 141.908 438.287 142.154L437.397 145.019ZM432.864 140.521C433.659 140.753 434.116 141.586 433.883 142.381C433.651 143.176 432.818 143.633 432.023 143.4L432.864 140.521ZM426.62 141.866C425.822 141.645 425.353 140.819 425.574 140.02C425.795 139.222 426.621 138.753 427.42 138.974L426.62 141.866ZM421.959 137.5C422.76 137.711 423.238 138.532 423.027 139.333C422.815 140.134 421.995 140.612 421.194 140.401L421.959 137.5ZM415.636 139.395C414.812 139.311 414.212 138.574 414.297 137.75C414.381 136.926 415.118 136.326 415.942 136.411L415.636 139.395ZM409.772 135.86C410.598 135.924 411.216 136.645 411.153 137.471C411.089 138.297 410.368 138.915 409.542 138.851L409.772 135.86ZM403.432 138.45C402.605 138.405 401.971 137.697 402.016 136.87C402.062 136.043 402.769 135.409 403.597 135.455L403.432 138.45ZM397.42 135.172C398.248 135.203 398.894 135.899 398.863 136.727C398.833 137.555 398.137 138.201 397.309 138.17L397.42 135.172ZM391.177 137.99C390.349 137.971 389.692 137.284 389.711 136.456C389.73 135.628 390.416 134.972 391.244 134.99L391.177 137.99ZM385.073 134.887C385.901 134.897 386.565 135.576 386.555 136.404C386.546 137.233 385.866 137.896 385.038 137.887L385.073 134.887ZM378.893 137.84C378.064 137.837 377.396 137.162 377.399 136.334C377.403 135.505 378.077 134.837 378.905 134.84L378.893 137.84ZM372.744 134.827C373.572 134.828 374.243 135.5 374.243 136.328C374.242 137.157 373.571 137.828 372.742 137.827L372.744 134.827ZM366.862 137.856C366.034 137.873 365.349 137.216 365.331 136.387C365.314 135.559 365.972 134.874 366.8 134.857L366.862 137.856ZM361.079 135.088C361.906 135.039 362.616 135.669 362.666 136.496C362.716 137.323 362.085 138.034 361.258 138.083L361.079 135.088ZM355.663 138.522C354.838 138.601 354.105 137.997 354.026 137.173C353.946 136.348 354.55 135.615 355.375 135.536L355.663 138.522ZM349.694 136.181C350.515 136.074 351.268 136.653 351.375 137.474C351.482 138.296 350.903 139.049 350.081 139.156L349.694 136.181ZM344.519 139.969C343.701 140.101 342.931 139.545 342.799 138.727C342.667 137.909 343.223 137.139 344.041 137.007L344.519 139.969ZM338.418 137.997C339.232 137.842 340.017 138.377 340.172 139.19C340.327 140.004 339.793 140.789 338.979 140.944L338.418 137.997ZM333.462 142.067C332.652 142.242 331.854 141.727 331.679 140.918C331.503 140.108 332.018 139.31 332.827 139.135L333.462 142.067ZM327.269 140.404C328.075 140.21 328.885 140.707 329.078 141.512C329.271 142.318 328.775 143.127 327.969 143.321L327.269 140.404ZM322.501 144.692C321.699 144.901 320.88 144.421 320.671 143.619C320.461 142.817 320.941 141.998 321.743 141.789L322.501 144.692ZM316.247 143.276C317.045 143.053 317.872 143.518 318.096 144.316C318.319 145.114 317.853 145.942 317.055 146.165L316.247 143.276ZM311.63 147.727C310.836 147.962 310.002 147.508 309.766 146.714C309.531 145.92 309.985 145.085 310.779 144.85L311.63 147.727ZM305.337 146.499C306.128 146.254 306.968 146.697 307.213 147.488C307.458 148.279 307.015 149.12 306.224 149.364L305.337 146.499ZM300.833 151.064C300.044 151.317 299.2 150.883 298.947 150.094C298.694 149.305 299.128 148.461 299.917 148.208L300.833 151.064ZM294.516 149.964C295.303 149.705 296.151 150.133 296.41 150.92C296.67 151.707 296.242 152.555 295.455 152.814L294.516 149.964ZM290.063 154.589C289.274 154.843 288.429 154.409 288.175 153.621C287.921 152.832 288.355 151.987 289.143 151.733L290.063 154.589ZM283.761 153.404C284.554 153.167 285.39 153.619 285.627 154.412C285.864 155.206 285.413 156.042 284.619 156.279L283.761 153.404ZM279.137 157.849C278.338 158.068 277.513 157.597 277.294 156.798C277.075 155.999 277.546 155.174 278.345 154.955L279.137 157.849ZM272.896 156.373C273.701 156.175 274.514 156.666 274.712 157.471C274.91 158.275 274.419 159.088 273.614 159.286L272.896 156.373ZM268.051 160.576C267.242 160.751 266.443 160.237 266.268 159.428C266.092 158.618 266.606 157.819 267.416 157.644L268.051 160.576ZM261.904 158.751C262.719 158.601 263.501 159.139 263.652 159.954C263.802 160.769 263.264 161.551 262.449 161.702L261.904 158.751ZM256.808 162.645C255.989 162.768 255.225 162.203 255.103 161.384C254.98 160.564 255.545 159.801 256.365 159.678L256.808 162.645ZM250.801 160.405C251.624 160.314 252.366 160.907 252.457 161.73C252.548 162.554 251.955 163.295 251.132 163.387L250.801 160.405ZM245.424 163.902C244.598 163.959 243.882 163.335 243.825 162.509C243.768 161.682 244.392 160.966 245.218 160.909L245.424 163.902ZM239.626 161.166C240.454 161.148 241.14 161.804 241.159 162.632C241.177 163.46 240.521 164.147 239.692 164.165L239.626 161.166ZM233.947 164.147C233.119 164.122 232.468 163.431 232.492 162.603C232.516 161.775 233.208 161.124 234.036 161.148L233.947 164.147ZM228.464 160.826C229.289 160.898 229.9 161.625 229.828 162.451C229.756 163.276 229.028 163.887 228.203 163.815L228.464 160.826ZM222.481 163.135C221.662 163.011 221.098 162.246 221.223 161.427C221.347 160.608 222.111 160.045 222.931 160.169L222.481 163.135ZM217.464 159.146C218.272 159.327 218.78 160.13 218.599 160.938C218.418 161.746 217.616 162.255 216.807 162.073L217.464 159.146ZM211.217 160.596C210.425 160.354 209.98 159.515 210.222 158.723C210.465 157.931 211.304 157.485 212.096 157.728L211.217 160.596ZM206.866 155.89C207.636 156.197 208.011 157.07 207.704 157.839C207.397 158.609 206.524 158.984 205.754 158.676L206.866 155.89ZM200.213 155.782C199.517 155.334 199.315 154.406 199.763 153.709C200.211 153.013 201.139 152.811 201.836 153.259L200.213 155.782ZM196.763 149.729C197.424 150.228 197.556 151.168 197.058 151.83C196.559 152.492 195.619 152.624 194.957 152.125L196.763 149.729ZM189.993 148.058C189.375 147.506 189.321 146.558 189.873 145.94C190.425 145.322 191.373 145.268 191.991 145.819L189.993 148.058ZM187.585 141.518C188.15 142.123 188.118 143.073 187.512 143.638C186.907 144.204 185.958 144.171 185.392 143.566L187.585 141.518ZM181.231 138.654C180.727 137.996 180.852 137.055 181.51 136.551C182.168 136.047 183.109 136.172 183.613 136.83L181.231 138.654ZM180.14 131.776C180.573 132.482 180.351 133.406 179.645 133.839C178.939 134.272 178.015 134.05 177.582 133.344L180.14 131.776ZM174.506 127.675C174.15 126.927 174.468 126.032 175.216 125.676C175.964 125.32 176.859 125.638 177.215 126.386L174.506 127.675ZM174.876 120.718C175.151 121.499 174.741 122.356 173.96 122.631C173.179 122.907 172.322 122.496 172.047 121.715L174.876 120.718ZM170.221 115.536C170.026 114.731 170.522 113.92 171.327 113.726C172.132 113.532 172.943 114.027 173.137 114.833L170.221 115.536ZM171.988 108.795C172.104 109.615 171.533 110.374 170.713 110.49C169.893 110.606 169.134 110.035 169.018 109.215L171.988 108.795ZM168.406 102.818C168.363 101.991 168.999 101.285 169.827 101.243C170.654 101.2 171.359 101.836 171.402 102.663L168.406 102.818ZM171.338 96.4963C171.314 97.3244 170.623 97.9758 169.795 97.9514C168.966 97.9269 168.315 97.2358 168.34 96.4077L171.338 96.4963ZM168.767 90.0204C168.852 89.1964 169.589 88.5973 170.413 88.6823C171.237 88.7674 171.836 89.5043 171.751 90.3284L168.767 90.0204ZM172.594 84.1909C172.454 85.0075 171.679 85.5567 170.863 85.4175C170.046 85.2783 169.497 84.5035 169.636 83.6868L172.594 84.1909ZM170.795 77.5472C170.989 76.7419 171.8 76.2467 172.605 76.4411C173.41 76.6355 173.906 77.446 173.711 78.2512L170.795 77.5472ZM175.583 72.8755C175.236 73.6276 174.345 73.9558 173.593 73.6085C172.841 73.2612 172.512 72.3699 172.86 71.6178L175.583 72.8755ZM175.991 66.2029C176.467 65.5247 177.402 65.3604 178.08 65.8361C178.759 66.3117 178.923 67.2471 178.447 67.9254L175.991 66.2029ZM182.11 63.4652C181.541 64.0672 180.592 64.0939 179.99 63.5249C179.388 62.9558 179.361 62.0064 179.93 61.4044L182.11 63.4652ZM184.409 57.1808C185.04 56.6443 185.987 56.7211 186.523 57.3524C187.06 57.9836 186.983 58.9302 186.351 59.4667L184.409 57.1808ZM190.983 55.8449C190.312 56.3317 189.374 56.1829 188.888 55.5126C188.401 54.8423 188.55 53.9042 189.22 53.4175L190.983 55.8449ZM194.22 49.9825C194.913 49.5284 195.843 49.7221 196.297 50.415C196.751 51.1079 196.558 52.0377 195.865 52.4917L194.22 49.9825ZM200.894 49.29C200.191 49.7287 199.266 49.5146 198.827 48.8119C198.389 48.1091 198.603 47.1838 199.306 46.7451L200.894 49.29ZM204.997 43.9494C205.775 43.6639 206.637 44.0629 206.922 44.8406C207.208 45.6183 206.809 46.4801 206.031 46.7656L204.997 43.9494ZM211.753 44.8284C210.96 45.0676 210.123 44.6186 209.884 43.8254C209.645 43.0323 210.094 42.1954 210.887 41.9562L211.753 44.8284ZM216.994 40.4454C217.809 40.2943 218.592 40.832 218.743 41.6466C218.894 42.4611 218.356 43.2439 217.542 43.395L216.994 40.4454ZM223.385 42.7733C222.557 42.789 221.873 42.1302 221.857 41.3019C221.841 40.4737 222.5 39.7895 223.328 39.7739L223.385 42.7733ZM229.741 40.3165C230.554 40.4758 231.084 41.264 230.925 42.0769C230.765 42.8899 229.977 43.4198 229.164 43.2605L229.741 40.3165ZM234.667 45.011C233.911 44.6723 233.573 43.7848 233.912 43.0288C234.25 42.2728 235.138 41.9345 235.894 42.2733L234.667 45.011ZM241.437 44.9662C242.181 45.3302 242.489 46.2286 242.125 46.9728C241.761 47.7169 240.863 48.0251 240.118 47.6611L241.437 44.9662ZM245.262 50.5632C244.568 50.1102 244.373 49.1807 244.826 48.4871C245.279 47.7935 246.209 47.5985 246.902 48.0515L245.262 50.5632ZM251.918 51.9191C252.528 52.4792 252.569 53.4281 252.009 54.0385C251.449 54.6489 250.5 54.6898 249.889 54.1297L251.918 51.9191ZM253.725 58.4387C253.245 57.7637 253.403 56.8271 254.078 56.3469C254.753 55.8666 255.69 56.0244 256.17 56.6994L253.725 58.4387ZM259.213 61.6858C259.657 62.3853 259.45 63.3121 258.75 63.756C258.051 64.1998 257.124 63.9926 256.68 63.2931L259.213 61.6858ZM258.851 67.71C258.649 66.9066 259.136 66.0915 259.94 65.8895C260.743 65.6875 261.558 66.175 261.76 66.9784L258.851 67.71ZM262.594 72.5663C262.67 73.3913 262.063 74.1215 261.238 74.1975C260.413 74.2734 259.683 73.6661 259.607 72.8412L262.594 72.5663ZM259.989 78.2095C259.942 77.3824 260.574 76.6737 261.401 76.6266C262.228 76.5794 262.937 77.2117 262.984 78.0388L259.989 78.2095ZM262.396 84.484C262.224 85.2944 261.428 85.8123 260.617 85.6407C259.807 85.4691 259.289 84.6729 259.461 83.8625L262.396 84.484ZM257.974 90.4429C258.175 89.6391 258.989 89.1501 259.793 89.3507C260.597 89.5512 261.086 90.3654 260.885 91.1692L257.974 90.4429ZM258.918 97.8272C258.641 98.6079 257.783 99.0161 257.002 98.7389C256.222 98.4617 255.814 97.6042 256.091 96.8235L258.918 97.8272ZM253.433 102.805C253.835 102.08 254.748 101.819 255.472 102.22C256.197 102.622 256.458 103.535 256.057 104.26L253.433 102.805ZM251.99 110.081C251.446 110.706 250.498 110.771 249.873 110.227C249.249 109.683 249.183 108.735 249.728 108.111L251.99 110.081ZM244.984 112.532C245.642 112.03 246.583 112.156 247.086 112.814C247.589 113.473 247.463 114.414 246.804 114.917L244.984 112.532ZM241.348 118.619C240.648 119.062 239.722 118.854 239.278 118.154C238.835 117.454 239.043 116.528 239.743 116.084L241.348 118.619ZM234.554 119.126C235.283 118.731 236.193 119.002 236.588 119.731C236.982 120.459 236.711 121.37 235.983 121.764L234.554 119.126ZM230.423 124.541C229.67 124.887 228.78 124.557 228.434 123.805C228.088 123.052 228.417 122.161 229.17 121.815L230.423 124.541ZM223.62 124.161C224.393 123.862 225.262 124.245 225.561 125.018C225.86 125.79 225.477 126.659 224.704 126.958L223.62 124.161ZM218.858 129.031C218.07 129.286 217.224 128.853 216.97 128.065C216.715 127.277 217.147 126.431 217.935 126.177L218.858 129.031ZM212.142 127.881C212.943 127.668 213.765 128.144 213.978 128.944C214.191 129.745 213.715 130.566 212.915 130.78L212.142 127.881ZM206.898 132.228C206.088 132.402 205.29 131.888 205.115 131.078C204.94 130.268 205.455 129.47 206.264 129.295L206.898 132.228ZM200.321 130.443C201.138 130.303 201.913 130.852 202.053 131.668C202.193 132.485 201.644 133.26 200.828 133.4L200.321 130.443ZM194.722 134.322C193.9 134.43 193.147 133.852 193.039 133.031C192.931 132.209 193.509 131.456 194.33 131.348L194.722 134.322ZM188.303 132.033C189.128 131.954 189.861 132.557 189.941 133.382C190.02 134.207 189.417 134.94 188.592 135.019L188.303 132.033ZM182.449 135.516C181.622 135.571 180.908 134.945 180.853 134.118C180.799 133.291 181.425 132.577 182.252 132.523L182.449 135.516ZM176.183 132.838C177.01 132.806 177.708 133.451 177.74 134.279C177.772 135.107 177.127 135.804 176.299 135.836L176.183 132.838ZM170.149 136.001C169.32 136.014 168.638 135.353 168.626 134.525C168.613 133.696 169.274 133.014 170.102 133.002L170.149 136.001ZM164.015 133.033C164.843 133.037 165.512 133.711 165.508 134.54C165.504 135.368 164.829 136.037 164.001 136.033L164.015 133.033ZM157.859 135.952C157.031 135.934 156.373 135.248 156.391 134.42C156.409 133.592 157.094 132.935 157.923 132.952L157.859 135.952ZM151.828 132.78C152.656 132.809 153.304 133.503 153.275 134.331C153.246 135.159 152.551 135.807 151.724 135.778L151.828 132.78ZM145.623 135.5C144.796 135.444 144.171 134.729 144.226 133.902C144.282 133.076 144.997 132.451 145.824 132.506L145.623 135.5ZM139.927 131.955C140.749 132.054 141.337 132.8 141.238 133.623C141.14 134.445 140.394 135.032 139.571 134.934L139.927 131.955ZM133.559 134.064C132.743 133.925 132.193 133.151 132.332 132.334C132.47 131.517 133.245 130.968 134.062 131.107L133.559 134.064ZM128.241 129.976C129.05 130.152 129.563 130.952 129.386 131.761C129.209 132.571 128.409 133.083 127.6 132.906L128.241 129.976ZM121.703 131.478C120.903 131.265 120.426 130.443 120.639 129.643C120.852 128.842 121.673 128.366 122.474 128.578L121.703 131.478ZM116.771 126.931C117.562 127.177 118.003 128.018 117.756 128.809C117.509 129.6 116.668 130.041 115.877 129.795L116.771 126.931ZM110.129 127.872C109.349 127.594 108.942 126.736 109.221 125.956C109.499 125.175 110.357 124.769 111.137 125.047L110.129 127.872ZM105.58 122.941C106.349 123.25 106.723 124.123 106.414 124.892C106.106 125.661 105.233 126.034 104.464 125.726L105.58 122.941ZM98.886 123.368C98.1289 123.031 97.788 122.145 98.1245 121.388C98.461 120.631 99.3475 120.29 100.104 120.626L98.886 123.368ZM94.7137 118.114C95.4584 118.477 95.7676 119.375 95.4046 120.12C95.0415 120.864 94.1435 121.174 93.3989 120.811L94.7137 118.114ZM88.0057 118.065C87.2739 117.677 86.9954 116.769 87.3836 116.037C87.7719 115.306 88.6799 115.027 89.4117 115.415L88.0057 118.065ZM84.2016 112.539C84.9202 112.952 85.1686 113.868 84.7564 114.587C84.3442 115.306 83.4276 115.554 82.709 115.142L84.2016 112.539ZM77.5112 112.048C76.8061 111.613 76.5872 110.689 77.0222 109.984C77.4572 109.279 78.3814 109.06 79.0864 109.495L77.5112 112.048ZM74.0692 106.29C74.7603 106.747 74.9502 107.677 74.4933 108.368C74.0365 109.059 73.1059 109.249 72.4148 108.792L74.0692 106.29ZM67.4226 105.381C66.7459 104.903 66.5847 103.967 67.0625 103.29C67.5404 102.613 68.4763 102.452 69.1531 102.93L67.4226 105.381ZM64.3415 99.4216C65.0034 99.9198 65.1361 100.86 64.6379 101.522C64.1397 102.184 63.1993 102.317 62.5374 101.818L64.3415 99.4216ZM57.9289 98.2496C57.28 97.7347 57.1714 96.7911 57.6863 96.1422C58.2013 95.4933 59.1448 95.3847 59.7937 95.8996L57.9289 98.2496ZM55.4845 92.4034C56.122 92.9325 56.21 93.8781 55.6809 94.5156C55.1519 95.1532 54.2063 95.2411 53.5687 94.7121L55.4845 92.4034ZM49.2871 91.0751C48.6621 90.5314 48.5962 89.5839 49.1399 88.9589C49.6836 88.3339 50.6311 88.2679 51.2561 88.8117L49.2871 91.0751ZM47.1173 85.1208C47.7286 85.6799 47.7709 86.6287 47.2118 87.24C46.6527 87.8513 45.7039 87.8936 45.0926 87.3345L47.1173 85.1208ZM40.9943 83.4859C40.3981 82.9107 40.3811 81.9611 40.9563 81.3649C41.5315 80.7688 42.4811 80.7517 43.0773 81.3269L40.9943 83.4859ZM39.1453 77.4248C39.7248 78.0168 39.7147 78.9665 39.1227 79.546C38.5307 80.1255 37.581 80.1153 37.0015 79.5233L39.1453 77.4248ZM33.1258 75.4418C32.5648 74.8322 32.6041 73.8833 33.2137 73.3223C33.8232 72.7612 34.7721 72.8006 35.3332 73.4101L33.1258 75.4418ZM31.6536 69.2785C32.1941 69.9064 32.1233 70.8535 31.4955 71.394C30.8677 71.9345 29.9206 71.8637 29.3801 71.2359L31.6536 69.2785ZM25.7788 66.9003C25.2611 66.2536 25.3658 65.3096 26.0125 64.7919C26.6593 64.2742 27.6032 64.3788 28.1209 65.0256L25.7788 66.9003ZM24.7518 60.6478C25.244 61.314 25.103 62.2533 24.4367 62.7455C23.7704 63.2378 22.8312 63.0968 22.3389 62.4305L24.7518 60.6478ZM19.0791 57.8225C18.6151 57.1362 18.7953 56.2037 19.4816 55.7397C20.1679 55.2757 21.1004 55.4559 21.5644 56.1422L19.0791 57.8225ZM18.5785 51.506C19.011 52.2126 18.7888 53.136 18.0822 53.5685C17.3757 54.001 16.4523 53.7788 16.0198 53.0722L18.5785 51.506ZM13.1845 48.1789C12.787 47.4521 13.054 46.5406 13.7809 46.1431C14.5077 45.7457 15.4192 46.0127 15.8167 46.7395L13.1845 48.1789ZM13.3029 41.8447C13.6616 42.5914 13.347 43.4875 12.6002 43.8462C11.8535 44.2049 10.9574 43.8904 10.5987 43.1436L13.3029 41.8447ZM8.12559 37.4985C7.82557 36.7263 8.20835 35.8571 8.98054 35.5571C9.75273 35.257 10.6219 35.6398 10.9219 36.412L8.12559 37.4985ZM8.87453 30.3636C9.10788 31.1585 8.65268 31.992 7.8578 32.2254C7.06291 32.4587 6.22936 32.0035 5.99601 31.2086L8.87453 30.3636ZM4.35076 24.8056C4.16925 23.9973 4.67737 23.195 5.48566 23.0134C6.29396 22.8319 7.09636 23.34 7.27787 24.1483L4.35076 24.8056ZM6.01404 17.8244C6.15998 18.6399 5.61723 19.4192 4.80176 19.5652C3.98629 19.7111 3.20691 19.1684 3.06096 18.3529L6.01404 17.8244ZM1.99302 11.8906C1.8661 11.0719 2.42685 10.3054 3.2455 10.1785C4.06414 10.0515 4.83068 10.6123 4.9576 11.4309L1.99302 11.8906ZM3.98074 4.99392C4.10518 5.81295 3.54209 6.57778 2.72307 6.70221C1.90404 6.82664 1.13921 6.26356 1.01478 5.44454L3.98074 4.99392ZM512.5 258C512.5 256.933 512.5 255.873 512.499 254.819L515.499 254.816C515.5 255.871 515.5 256.933 515.5 258H512.5ZM512.467 248.473C512.445 246.339 512.407 244.231 512.343 242.145L515.341 242.053C515.406 244.164 515.444 246.293 515.467 248.442L512.467 248.473ZM512.056 235.839C511.925 233.729 511.754 231.64 511.534 229.566L514.517 229.249C514.743 231.372 514.916 233.505 515.05 235.653L512.056 235.839ZM510.704 223.345C510.369 221.286 509.971 219.24 509.5 217.201L512.423 216.525C512.91 218.633 513.32 220.744 513.665 222.863L510.704 223.345ZM507.874 211.168C507.266 209.205 506.577 207.244 505.798 205.281L508.587 204.175C509.395 206.211 510.109 208.245 510.74 210.28L507.874 211.168ZM503.271 199.574C502.818 198.648 502.342 197.721 501.843 196.792L504.485 195.372C505.002 196.334 505.496 197.295 505.966 198.254L503.271 199.574ZM501.843 196.792C501.393 195.955 500.957 195.132 500.532 194.323L503.188 192.928C503.61 193.731 504.041 194.545 504.485 195.372L501.843 196.792ZM497.96 189.398C497.081 187.727 496.218 186.122 495.327 184.568L497.928 183.075C498.847 184.675 499.729 186.317 500.615 188.002L497.96 189.398ZM492.454 179.948C491.452 178.478 490.378 177.051 489.189 175.657L491.472 173.71C492.738 175.196 493.877 176.71 494.933 178.259L492.454 179.948ZM485.466 171.774C484.823 171.177 484.148 170.583 483.438 169.992L485.357 167.686C486.108 168.311 486.824 168.941 487.508 169.576L485.466 171.774ZM483.438 169.992C482.519 169.228 481.616 168.478 480.729 167.746L482.639 165.433C483.53 166.168 484.436 166.92 485.357 167.686L483.438 169.992ZM475.282 163.31C473.323 161.746 471.476 160.313 469.748 159.041L471.527 156.625C473.296 157.928 475.177 159.386 477.154 160.966L475.282 163.31ZM464.032 155.188C462.949 154.549 461.964 154.038 461.077 153.659L462.257 150.901C463.294 151.344 464.396 151.92 465.556 152.604L464.032 155.188ZM461.077 153.659C460.216 153.29 459.356 152.929 458.496 152.574L459.64 149.801C460.512 150.161 461.384 150.527 462.257 150.901L461.077 153.659ZM453.292 150.504C451.542 149.832 449.791 149.185 448.037 148.56L449.045 145.734C450.82 146.367 452.593 147.023 454.366 147.703L453.292 150.504ZM442.737 146.735C440.963 146.145 439.184 145.574 437.397 145.019L438.287 142.154C440.092 142.715 441.89 143.292 443.683 143.888L442.737 146.735ZM432.023 143.4C430.233 142.877 428.432 142.367 426.62 141.866L427.42 138.974C429.245 139.479 431.059 139.993 432.864 140.521L432.023 143.4ZM421.194 140.401C420.29 140.162 419.384 139.925 418.473 139.69L419.225 136.785C420.139 137.022 421.051 137.26 421.959 137.5L421.194 140.401ZM418.675 139.728C417.663 139.61 416.65 139.499 415.636 139.395L415.942 136.411C416.969 136.516 417.996 136.628 419.023 136.748L418.675 139.728ZM409.542 138.851C407.508 138.695 405.47 138.563 403.432 138.45L403.597 135.455C405.655 135.568 407.714 135.702 409.772 135.86L409.542 138.851ZM397.309 138.17C395.264 138.095 393.22 138.036 391.177 137.99L391.244 134.99C393.3 135.037 395.359 135.096 397.42 135.172L397.309 138.17ZM385.038 137.887C382.985 137.863 380.937 137.849 378.893 137.84L378.905 134.84C380.955 134.849 383.011 134.863 385.073 134.887L385.038 137.887ZM372.742 137.827C371.715 137.827 370.689 137.827 369.665 137.827V134.827C370.689 134.827 371.715 134.827 372.744 134.827L372.742 137.827ZM369.665 137.827C368.731 137.827 367.796 137.837 366.862 137.856L366.8 134.857C367.755 134.837 368.71 134.827 369.665 134.827V137.827ZM361.258 138.083C359.393 138.195 357.527 138.342 355.663 138.522L355.375 135.536C357.274 135.352 359.175 135.202 361.079 135.088L361.258 138.083ZM350.081 139.156C348.226 139.398 346.371 139.669 344.519 139.969L344.041 137.007C345.922 136.703 347.806 136.427 349.694 136.181L350.081 139.156ZM338.979 140.944C337.137 141.295 335.298 141.67 333.462 142.067L332.827 139.135C334.687 138.732 336.551 138.352 338.418 137.997L338.979 140.944ZM327.969 143.321C326.143 143.759 324.32 144.217 322.501 144.692L321.743 141.789C323.58 141.309 325.422 140.847 327.269 140.404L327.969 143.321ZM317.055 146.165C315.242 146.672 313.434 147.193 311.63 147.727L310.779 144.85C312.596 144.313 314.419 143.787 316.247 143.276L317.055 146.165ZM306.224 149.364C304.421 149.922 302.624 150.49 300.833 151.064L299.917 148.208C301.717 147.631 303.523 147.06 305.337 146.499L306.224 149.364ZM295.455 152.814C294.558 153.109 293.663 153.406 292.769 153.703L291.822 150.856C292.718 150.558 293.616 150.261 294.516 149.964L295.455 152.814ZM292.769 153.703C291.874 154.001 290.972 154.296 290.063 154.589L289.143 151.733C290.043 151.444 290.936 151.151 291.822 150.856L292.769 153.703ZM284.619 156.279C282.812 156.819 280.984 157.344 279.137 157.849L278.345 154.955C280.168 154.457 281.974 153.938 283.761 153.404L284.619 156.279ZM273.614 159.286C271.773 159.74 269.918 160.171 268.051 160.576L267.416 157.644C269.253 157.245 271.081 156.821 272.896 156.373L273.614 159.286ZM262.449 161.702C260.576 162.048 258.694 162.363 256.808 162.645L256.365 159.678C258.215 159.402 260.063 159.091 261.904 158.751L262.449 161.702ZM251.132 163.387C249.23 163.598 247.326 163.771 245.424 163.902L245.218 160.909C247.076 160.781 248.938 160.612 250.801 160.405L251.132 163.387ZM239.692 164.165C237.772 164.208 235.855 164.203 233.947 164.147L234.036 161.148C235.89 161.203 237.754 161.207 239.626 161.166L239.692 164.165ZM228.203 163.815C226.283 163.648 224.374 163.423 222.481 163.135L222.931 160.169C224.758 160.446 226.604 160.664 228.464 160.826L228.203 163.815ZM216.807 162.073C214.924 161.651 213.059 161.16 211.217 160.596L212.096 157.728C213.861 158.269 215.652 158.74 217.464 159.146L216.807 162.073ZM205.754 158.676C204.858 158.319 203.968 157.942 203.086 157.544L204.317 154.809C205.16 155.188 206.01 155.548 206.866 155.89L205.754 158.676ZM202.934 157.465C202.007 156.913 201.1 156.352 200.213 155.782L201.836 153.259C202.693 153.81 203.571 154.353 204.469 154.888L202.934 157.465ZM194.957 152.125C193.21 150.809 191.557 149.453 189.993 148.058L191.991 145.819C193.491 147.158 195.08 148.462 196.763 149.729L194.957 152.125ZM185.392 143.566C183.902 141.97 182.515 140.332 181.231 138.654L183.613 136.83C184.837 138.429 186.16 139.993 187.585 141.518L185.392 143.566ZM177.582 133.344C176.447 131.494 175.423 129.603 174.506 127.675L177.215 126.386C178.087 128.219 179.06 130.016 180.14 131.776L177.582 133.344ZM172.047 121.715C171.333 119.688 170.725 117.627 170.221 115.536L173.137 114.833C173.618 116.827 174.197 118.789 174.876 120.718L172.047 121.715ZM169.018 109.215C168.72 107.107 168.517 104.974 168.406 102.818L171.402 102.663C171.509 104.734 171.703 106.778 171.988 108.795L169.018 109.215ZM168.34 96.4077C168.402 94.2956 168.546 92.1656 168.767 90.0204L171.751 90.3284C171.537 92.4036 171.398 94.4604 171.338 96.4963L168.34 96.4077ZM169.636 83.6868C169.814 82.6431 170.009 81.5965 170.221 80.5472L173.162 81.1411C172.956 82.1611 172.766 83.1778 172.594 84.1909L169.636 83.6868ZM170.206 80.6338C170.356 79.5775 170.553 78.5491 170.795 77.5472L173.711 78.2512C173.492 79.1594 173.313 80.0933 173.177 81.0544L170.206 80.6338ZM172.86 71.6178C173.745 69.7006 174.801 67.9005 175.991 66.2029L178.447 67.9254C177.351 69.4888 176.387 71.1341 175.583 72.8755L172.86 71.6178ZM179.93 61.4044C181.336 59.9171 182.84 58.514 184.409 57.1808L186.351 59.4667C184.853 60.7406 183.43 62.0689 182.11 63.4652L179.93 61.4044ZM189.22 53.4175C190.861 52.2256 192.538 51.0847 194.22 49.9825L195.865 52.4917C194.211 53.5755 192.575 54.6886 190.983 55.8449L189.22 53.4175ZM199.306 46.7451C200.16 46.2117 201.013 45.6822 201.851 45.1598L203.437 47.7063C202.594 48.2316 201.747 48.7573 200.894 49.29L199.306 46.7451ZM202.111 45.031C203.062 44.6693 204.025 44.3061 204.997 43.9494L206.031 46.7656C205.075 47.1166 204.124 47.4751 203.177 47.8351L202.111 45.031ZM210.887 41.9562C212.888 41.3527 214.927 40.829 216.994 40.4454L217.542 43.395C215.606 43.7541 213.676 44.2485 211.753 44.8284L210.887 41.9562ZM223.328 39.7739C225.446 39.7338 227.587 39.8944 229.741 40.3165L229.164 43.2605C227.239 42.8833 225.312 42.7369 223.385 42.7733L223.328 39.7739ZM235.894 42.2733C236.852 42.7026 237.809 43.1931 238.763 43.7492L237.252 46.3412C236.389 45.838 235.527 45.3963 234.667 45.011L235.894 42.2733ZM238.599 43.6667C239.535 44.0682 240.484 44.5005 241.437 44.9662L240.118 47.6611C239.215 47.2192 238.311 46.8076 237.416 46.4237L238.599 43.6667ZM246.902 48.0515C248.648 49.1916 250.342 50.474 251.918 51.9191L249.889 54.1297C248.452 52.8107 246.89 51.6271 245.262 50.5632L246.902 48.0515ZM256.17 56.6994C256.787 57.5671 257.36 58.4778 257.881 59.4337L255.246 60.8683C254.785 60.0219 254.276 59.2126 253.725 58.4387L256.17 56.6994ZM257.881 59.4337C258.377 60.3445 258.816 61.0599 259.213 61.6858L256.68 63.2931C256.261 62.6336 255.785 61.8576 255.246 60.8683L257.881 59.4337ZM261.76 66.9784C262.105 68.348 262.367 70.097 262.594 72.5663L259.607 72.8412C259.385 70.4319 259.14 68.8597 258.851 67.71L261.76 66.9784ZM262.984 78.0388C263.032 78.89 263.08 79.7989 263.128 80.7703L260.132 80.9179C260.084 79.9529 260.037 79.0519 259.989 78.2095L262.984 78.0388ZM263.098 81.1549C262.979 81.7165 262.861 82.2743 262.744 82.8293C262.628 83.384 262.512 83.9359 262.396 84.484L259.461 83.8625C259.576 83.3166 259.692 82.7666 259.809 82.2116C259.925 81.6568 260.043 81.0971 260.163 80.5333L263.098 81.1549ZM260.885 91.1692C260.315 93.4541 259.681 95.6777 258.918 97.8272L256.091 96.8235C256.812 94.7926 257.419 92.6674 257.974 90.4429L260.885 91.1692ZM256.057 104.26C254.93 106.292 253.597 108.236 251.99 110.081L249.728 108.111C251.187 106.435 252.401 104.667 253.433 102.805L256.057 104.26ZM246.804 114.917C245.897 115.61 244.932 116.283 243.905 116.935L242.296 114.404C243.252 113.795 244.147 113.171 244.984 112.532L246.804 114.917ZM243.947 116.908C243.088 117.495 242.222 118.065 241.348 118.619L239.743 116.084C240.587 115.55 241.424 114.999 242.254 114.431L243.947 116.908ZM235.983 121.764C234.155 122.753 232.301 123.678 230.423 124.541L229.17 121.815C230.99 120.978 232.786 120.083 234.554 119.126L235.983 121.764ZM224.704 126.958C222.775 127.706 220.826 128.395 218.858 129.031L217.935 126.177C219.851 125.557 221.747 124.887 223.62 124.161L224.704 126.958ZM212.915 130.78C210.923 131.31 208.916 131.792 206.898 132.228L206.264 129.295C208.239 128.869 210.199 128.399 212.142 127.881L212.915 130.78ZM200.828 133.4C198.801 133.747 196.764 134.053 194.722 134.322L194.33 131.348C196.336 131.084 198.334 130.783 200.321 130.443L200.828 133.4ZM188.592 135.019C186.547 135.217 184.498 135.381 182.449 135.516L182.252 132.523C184.273 132.39 186.291 132.228 188.303 132.033L188.592 135.019ZM176.299 135.836C174.246 135.916 172.195 135.97 170.149 136.001L170.102 133.002C172.127 132.97 174.155 132.917 176.183 132.838L176.299 135.836ZM164.001 136.033C161.945 136.023 159.897 135.995 157.859 135.952L157.923 132.952C159.946 132.995 161.977 133.024 164.015 133.033L164.001 136.033ZM151.724 135.778C150.698 135.742 149.677 135.704 148.659 135.663L148.78 132.665C149.792 132.706 150.809 132.744 151.828 132.78L151.724 135.778ZM148.659 135.663C147.646 135.622 146.634 135.567 145.623 135.5L145.824 132.506C146.809 132.572 147.794 132.625 148.78 132.665L148.659 135.663ZM139.571 134.934C137.562 134.694 135.558 134.404 133.559 134.064L134.062 131.107C136.013 131.438 137.968 131.721 139.927 131.955L139.571 134.934ZM127.6 132.906C125.627 132.475 123.661 131.998 121.703 131.478L122.474 128.578C124.389 129.088 126.312 129.554 128.241 129.976L127.6 132.906ZM115.877 129.795C113.951 129.194 112.034 128.552 110.129 127.872L111.137 125.047C113.005 125.713 114.883 126.342 116.771 126.931L115.877 129.795ZM104.464 125.726C102.591 124.975 100.731 124.188 98.886 123.368L100.104 120.626C101.917 121.432 103.743 122.204 105.58 122.941L104.464 125.726ZM93.3989 120.811C91.5849 119.926 89.7867 119.01 88.0057 118.065L89.4117 115.415C91.1631 116.345 92.931 117.245 94.7137 118.114L93.3989 120.811ZM82.709 115.142C80.9572 114.137 79.2241 113.105 77.5112 112.048L79.0864 109.495C80.7724 110.535 82.478 111.551 84.2016 112.539L82.709 115.142ZM72.4148 108.792C70.7283 107.678 69.0637 106.54 67.4226 105.381L69.1531 102.93C70.7693 104.071 72.4085 105.192 74.0692 106.29L72.4148 108.792ZM62.5374 101.818C61.7304 101.211 60.9299 100.599 60.136 99.9823L61.9762 97.613C62.7582 98.2204 63.5467 98.8233 64.3415 99.4216L62.5374 101.818ZM60.136 99.9823C59.3999 99.4106 58.664 98.833 57.9289 98.2496L59.7937 95.8996C60.5206 96.4764 61.2482 97.0475 61.9762 97.613L60.136 99.9823ZM53.5687 94.7121C52.1343 93.5218 50.706 92.3094 49.2871 91.0751L51.2561 88.8117C52.6568 90.0301 54.0673 91.2275 55.4845 92.4034L53.5687 94.7121ZM45.0926 87.3345C43.7129 86.0727 42.3458 84.7898 40.9943 83.4859L43.0773 81.3269C44.4088 82.6116 45.7566 83.8763 47.1173 85.1208L45.0926 87.3345ZM37.0015 79.5233C35.6897 78.1833 34.3967 76.8227 33.1258 75.4418L35.3332 73.4101C36.5825 74.7676 37.8543 76.1059 39.1453 77.4248L37.0015 79.5233ZM29.3801 71.2359C28.1532 69.8108 26.9517 68.3656 25.7788 66.9003L28.1209 65.0256C29.2706 66.4619 30.4492 67.8796 31.6536 69.2785L29.3801 71.2359ZM22.3389 62.4305C21.2188 60.9145 20.1311 59.3784 19.0791 57.8225L21.5644 56.1422C22.5921 57.6622 23.6556 59.1642 24.7518 60.6478L22.3389 62.4305ZM16.0198 53.0722C15.0336 51.4611 14.0874 49.8299 13.1845 48.1789L15.8167 46.7395C16.6952 48.3462 17.6169 49.9351 18.5785 51.506L16.0198 53.0722ZM10.5987 43.1436C10.1896 42.2919 9.79237 41.4353 9.40756 40.5737L12.1468 39.3503C12.5201 40.1861 12.9056 41.0176 13.3029 41.8447L10.5987 43.1436ZM9.40756 40.5737C8.95284 39.5556 8.52643 38.5302 8.12559 37.4985L10.9219 36.412C11.3057 37.3997 11.7131 38.3794 12.1468 39.3503L9.40756 40.5737ZM5.99601 31.2086C5.37393 29.0897 4.83286 26.9525 4.35076 24.8056L7.27787 24.1483C7.74817 26.2427 8.27348 28.3162 8.87453 30.3636L5.99601 31.2086ZM3.06096 18.3529C2.67571 16.2004 2.32672 14.0429 1.99302 11.8906L4.9576 11.4309C5.28946 13.5713 5.63448 15.7037 6.01404 17.8244L3.06096 18.3529ZM1.01478 5.44454C0.851743 4.37143 0.687216 3.30136 0.518424 2.23438L3.48158 1.76562C3.65168 2.84092 3.81721 3.91757 3.98074 4.99392L1.01478 5.44454Z" fill="#CECECE"/>
</svg>
