<svg width="413" height="298" viewBox="0 0 413 298" fill="none" xmlns="http://www.w3.org/2000/svg">
<g clip-path="url(#clip0_297_1352)">
<path d="M74.4351 3.42836C74.4432 3.45603 74.4515 3.48034 74.4596 3.50801C74.4782 3.56108 74.4934 3.61533 74.5048 3.6704C74.6042 4.02365 74.6585 4.388 74.6664 4.75481C74.671 4.91131 74.6671 5.06795 74.6544 5.22401C74.6394 5.42424 74.6106 5.62321 74.5684 5.81953C74.5239 6.03809 74.4622 6.2528 74.3838 6.46169C74.3486 6.56096 74.3084 6.65838 74.2632 6.75358C73.9726 7.40328 73.5347 7.9769 72.9842 8.42933C72.4337 8.88177 71.7854 9.2007 71.0904 9.36104L71.087 9.36078C71.0189 9.37835 70.9499 9.39231 70.8803 9.40261C70.493 9.47284 70.0982 9.49296 69.7057 9.46246L69.6989 9.46195C68.7417 9.38956 67.8315 9.01891 67.097 8.40241C66.6472 8.03012 66.598 7.6369 66.0364 7.81136C64.2448 8.36789 63.0479 5.42349 63.9433 3.81067C63.9423 3.74988 63.9447 3.68908 63.9504 3.62855C64.0362 2.50203 65.7368 2.21485 66.7286 1.61691L66.7335 1.63685C66.7798 1.81156 66.8797 1.96746 67.0192 2.08276C67.1587 2.19807 67.3309 2.26701 67.5116 2.27994C67.6924 2.29287 67.8726 2.24915 68.0272 2.15489C68.1818 2.06062 68.303 1.92054 68.3739 1.75421C68.5551 1.31857 68.7196 0.876972 68.8675 0.429413C70.7683 -0.936083 75.8469 1.19745 74.4351 3.42836Z" fill="#2F2E41"/>
<path d="M86.3557 13.6514C86.6145 14.2528 94.5943 14.1884 94.9598 14.7239C97.7777 18.8587 87.6199 36.4511 90.4377 40.5913L90.8303 41.0578C89.911 40.6353 89.0279 40.1385 88.1899 39.5723C88.1146 37.8777 88.0393 36.1776 87.9587 34.483C87.1146 35.5597 86.4334 36.754 85.9367 38.0278C85.2806 37.5666 84.7424 36.7117 81.9304 35.03C80.7919 33.7828 79.4795 32.7054 78.0335 31.8309L86.3557 13.6514Z" fill="#2F2E41"/>
<path d="M80.5602 47.5382C81.4408 46.9661 82.4455 46.6117 83.4909 46.5044C84.5363 46.3971 85.5924 46.5399 86.5714 46.9211C87.5503 47.3023 88.4241 47.9108 89.12 48.6962C89.8159 49.4815 90.314 50.4211 90.573 51.4369L102.7 82.9471L123.544 71.1458C123.635 69.7893 124.155 68.4966 125.029 67.453C125.903 66.4094 127.085 65.6686 128.407 65.3368C129.73 65.005 131.123 65.0993 132.388 65.6062C133.653 66.113 134.725 67.0063 135.449 68.1581C136.173 69.3098 136.514 70.6607 136.42 72.0171C136.327 73.3735 135.806 74.6656 134.931 75.7082C134.056 76.7508 132.872 77.4903 131.55 77.8206C130.228 78.1509 128.834 78.055 127.57 77.5467C123.18 82.2188 104.15 101.375 96.2712 93.89C89.649 87.5988 80.0923 63.2165 77.7918 54.7968C77.4233 53.4505 77.4928 52.0222 77.9903 50.7177C78.4878 49.4133 79.3876 48.3 80.5602 47.5382V47.5382Z" fill="#A0616A"/>
<path d="M175.14 68.6359C180.875 53.4726 182.223 37.9904 177.761 22.0858C177.813 21.1436 177.488 20.2193 176.857 19.5157C176.227 18.812 175.342 18.3866 174.398 18.3326L139.145 16.3587C138.201 16.3068 137.274 16.6309 136.568 17.2597C135.863 17.8885 135.436 18.7707 135.382 19.7128L132.761 66.263C132.709 67.2052 133.034 68.1295 133.664 68.8331C134.295 69.5367 135.18 69.9622 136.124 70.0162L171.376 71.9901C172.321 72.042 173.248 71.7179 173.954 71.0891C174.659 70.4603 175.086 69.578 175.14 68.6359V68.6359Z" fill="#9E9B9B"/>
<path d="M173.228 54.4244C177.202 47.0983 176.648 36.2564 174.913 24.4978C174.961 23.6153 174.657 22.7497 174.066 22.0907C173.476 21.4317 172.647 21.0333 171.763 20.9827L141.466 19.2863C140.582 19.2377 139.713 19.5412 139.053 20.1301C138.392 20.719 137.992 21.5452 137.942 22.4276L135.609 63.8508C135.561 64.7333 135.865 65.5989 136.455 66.2579C137.046 66.9169 137.875 67.3153 138.759 67.3658L157.527 68.4167C161.469 68.633 165.335 67.2813 168.279 64.6581C171.222 62.035 173.002 58.3546 173.228 54.4244V54.4244Z" fill="white"/>
<path d="M157.964 60.0558C156.241 60.0558 154.843 58.6622 154.843 56.943C154.843 55.2238 156.241 53.8301 157.964 53.8301C159.688 53.8301 161.086 55.2238 161.086 56.943C161.086 58.6622 159.688 60.0558 157.964 60.0558Z" fill="#2279D4"/>
<path d="M149.392 28.3977C150.345 26.8144 152.55 26.6729 154.401 26.7143C156.31 26.6734 158.216 26.8864 160.068 27.3476C161.896 27.8895 163.637 28.9986 164.52 30.684C165.604 32.7557 165.223 35.2671 164.641 37.5306C163.519 41.8846 161.759 46.0498 159.418 49.8915L158.064 50.8142C155.294 48.2945 153.058 45.2477 151.487 41.8531C149.916 38.4585 149.042 34.7847 148.916 31.048C148.82 30.1374 148.985 29.2185 149.392 28.3977V28.3977Z" fill="#2279D4"/>
<path d="M349.055 188.687C360.515 146.017 358.669 98.1922 349.055 47.3577C349.054 46.0989 348.552 44.8922 347.659 44.0021C346.767 43.112 345.556 42.6113 344.294 42.6099H202.635C201.373 42.6113 200.163 43.112 199.271 44.0021C198.378 44.8922 197.876 46.0989 197.874 47.3577V188.687C197.876 189.946 198.378 191.153 199.271 192.043C200.163 192.933 201.373 193.434 202.635 193.435H344.294C345.556 193.434 346.767 192.933 347.659 192.043C348.552 191.153 349.054 189.946 349.055 188.687Z" fill="#D5D5D5"/>
<path d="M348.148 153.319C351.057 119.083 350.285 84.6348 345.844 50.5628C345.842 49.304 345.34 48.0972 344.448 47.2072C343.555 46.3171 342.345 45.8164 341.083 45.8149H205.847C205.222 45.8149 204.603 45.9378 204.025 46.1764C203.448 46.415 202.923 46.7647 202.481 47.2055C202.039 47.6464 201.688 48.1698 201.449 48.7459C201.21 49.3219 201.086 49.9393 201.086 50.5628V185.485C201.086 186.744 201.588 187.952 202.481 188.842C203.374 189.733 204.585 190.233 205.847 190.233H307.84C317.975 190.239 327.743 186.448 335.209 179.611C342.674 172.774 347.292 163.391 348.148 153.319V153.319Z" fill="white"/>
<path d="M261.558 72.4585H318.494C318.656 72.4588 318.816 72.4274 318.965 72.366C319.114 72.3046 319.25 72.2145 319.364 72.1007C319.478 71.987 319.569 71.8519 319.631 71.7032C319.693 71.5545 319.725 71.395 319.725 71.234C319.725 71.073 319.693 70.9136 319.631 70.7648C319.569 70.6161 319.478 70.481 319.364 70.3673C319.25 70.2535 319.114 70.1634 318.965 70.102C318.816 70.0406 318.656 70.0092 318.494 70.0095H261.558C261.233 70.0102 260.921 70.1395 260.692 70.3691C260.462 70.5986 260.333 70.9097 260.333 71.234C260.333 71.5583 260.462 71.8694 260.692 72.0989C260.921 72.3285 261.233 72.4578 261.558 72.4585Z" fill="#2279D4"/>
<path d="M232.736 83.6528H318.494C318.656 83.6531 318.816 83.6217 318.965 83.5603C319.114 83.4989 319.25 83.4088 319.364 83.2951C319.478 83.1813 319.569 83.0462 319.631 82.8975C319.693 82.7488 319.725 82.5893 319.725 82.4283C319.725 82.2673 319.693 82.1079 319.631 81.9591C319.569 81.8104 319.478 81.6753 319.364 81.5616C319.25 81.4478 319.114 81.3577 318.965 81.2963C318.816 81.2349 318.656 81.2035 318.494 81.2039H232.736C232.411 81.2045 232.099 81.3338 231.87 81.5634C231.64 81.7929 231.511 82.104 231.511 82.4283C231.511 82.7526 231.64 83.0637 231.87 83.2932C232.099 83.5228 232.411 83.6521 232.736 83.6528V83.6528Z" fill="#D5D5D5"/>
<path d="M232.734 92.3965H318.496C318.822 92.3965 319.134 92.5256 319.365 92.7554C319.595 92.9852 319.725 93.2969 319.725 93.6219C319.725 93.9469 319.595 94.2586 319.365 94.4884C319.134 94.7182 318.822 94.8473 318.496 94.8473H232.734C232.408 94.8473 232.096 94.7182 231.865 94.4884C231.635 94.2586 231.505 93.9469 231.505 93.6219C231.505 93.2969 231.635 92.9852 231.865 92.7554C232.096 92.5256 232.408 92.3965 232.734 92.3965V92.3965Z" fill="#D5D5D5"/>
<path d="M232.735 106.042H318.493C318.819 106.042 319.131 105.913 319.361 105.683C319.591 105.454 319.721 105.142 319.721 104.817C319.721 104.493 319.591 104.181 319.361 103.952C319.131 103.722 318.819 103.593 318.493 103.593H232.735C232.409 103.593 232.097 103.722 231.867 103.952C231.636 104.181 231.507 104.493 231.507 104.817C231.507 105.142 231.636 105.454 231.867 105.683C232.097 105.913 232.409 106.042 232.735 106.042Z" fill="#D5D5D5"/>
<path d="M232.736 117.236H318.494C318.656 117.237 318.816 117.205 318.965 117.144C319.114 117.082 319.25 116.992 319.364 116.879C319.478 116.765 319.569 116.63 319.631 116.481C319.693 116.332 319.725 116.173 319.725 116.012C319.725 115.851 319.693 115.691 319.631 115.543C319.569 115.394 319.478 115.259 319.364 115.145C319.25 115.031 319.114 114.941 318.965 114.88C318.816 114.818 318.656 114.787 318.494 114.787H232.736C232.411 114.788 232.099 114.917 231.87 115.147C231.64 115.376 231.511 115.688 231.511 116.012C231.511 116.336 231.64 116.647 231.87 116.877C232.099 117.106 232.411 117.236 232.736 117.236V117.236Z" fill="#D5D5D5"/>
<path d="M232.736 128.498H318.494C318.656 128.499 318.816 128.467 318.965 128.406C319.114 128.344 319.25 128.254 319.364 128.141C319.478 128.027 319.569 127.892 319.631 127.743C319.693 127.594 319.725 127.435 319.725 127.274C319.725 127.113 319.693 126.953 319.631 126.805C319.569 126.656 319.478 126.521 319.364 126.407C319.25 126.293 319.114 126.203 318.965 126.142C318.816 126.08 318.656 126.049 318.494 126.049H232.736C232.411 126.05 232.099 126.179 231.87 126.409C231.64 126.638 231.511 126.949 231.511 127.274C231.511 127.598 231.64 127.909 231.87 128.139C232.099 128.368 232.411 128.498 232.736 128.498V128.498Z" fill="#D5D5D5"/>
<path d="M232.736 139.76H318.494C318.656 139.761 318.816 139.729 318.965 139.668C319.114 139.607 319.25 139.516 319.364 139.403C319.478 139.289 319.569 139.154 319.631 139.005C319.693 138.856 319.725 138.697 319.725 138.536C319.725 138.375 319.693 138.216 319.631 138.067C319.569 137.918 319.478 137.783 319.364 137.669C319.25 137.556 319.114 137.465 318.965 137.404C318.816 137.343 318.656 137.311 318.494 137.312H232.736C232.411 137.312 232.099 137.442 231.87 137.671C231.64 137.901 231.511 138.212 231.511 138.536C231.511 138.86 231.64 139.171 231.87 139.401C232.099 139.63 232.411 139.76 232.736 139.76V139.76Z" fill="#D5D5D5"/>
<path d="M232.736 151.022H318.494C318.656 151.023 318.816 150.991 318.965 150.93C319.114 150.868 319.25 150.778 319.364 150.664C319.478 150.551 319.569 150.416 319.631 150.267C319.693 150.118 319.725 149.959 319.725 149.798C319.725 149.637 319.693 149.477 319.631 149.329C319.569 149.18 319.478 149.045 319.364 148.931C319.25 148.817 319.114 148.727 318.965 148.666C318.816 148.604 318.656 148.573 318.494 148.573H232.736C232.411 148.574 232.099 148.703 231.87 148.933C231.64 149.162 231.511 149.473 231.511 149.798C231.511 150.122 231.64 150.433 231.87 150.663C232.099 150.892 232.411 151.022 232.736 151.022V151.022Z" fill="#D5D5D5"/>
<path d="M232.736 162.284H318.494C318.656 162.285 318.816 162.253 318.965 162.192C319.114 162.131 319.25 162.04 319.364 161.927C319.478 161.813 319.569 161.678 319.631 161.529C319.693 161.38 319.725 161.221 319.725 161.06C319.725 160.899 319.693 160.739 319.631 160.591C319.569 160.442 319.478 160.307 319.364 160.193C319.25 160.079 319.114 159.989 318.965 159.928C318.816 159.867 318.656 159.835 318.494 159.835H232.736C232.411 159.836 232.099 159.965 231.87 160.195C231.64 160.425 231.511 160.736 231.511 161.06C231.511 161.384 231.64 161.695 231.87 161.925C232.099 162.154 232.411 162.284 232.736 162.284V162.284Z" fill="#D5D5D5"/>
<path d="M253.085 87.7171C256.853 86.3748 261.733 86.8984 264.377 90.1707C266.745 93.1016 267.03 97.7683 264.016 100.384C260.348 103.568 255.267 102.397 251.261 100.6C247.596 98.9564 243.562 96.3062 243.618 91.8085C243.627 90.6524 243.912 89.5151 244.449 88.4907C244.986 87.4663 245.76 86.5843 246.708 85.9178C247.669 85.2699 248.769 84.8565 249.92 84.7112C251.071 84.5659 252.241 84.6927 253.333 85.0813C254.301 85.4338 253.883 86.9892 252.904 86.6327C252.117 86.3339 251.272 86.214 250.432 86.2818C249.592 86.3497 248.777 86.6034 248.048 87.0247C247.318 87.446 246.692 88.0242 246.215 88.7171C245.738 89.4101 245.422 90.2004 245.29 91.0306C244.724 94.7649 247.924 97.1835 250.897 98.657C254.159 100.273 258.31 101.82 261.802 99.9629C264.789 98.3743 265.336 94.7511 263.68 91.9686C261.626 88.5188 257.004 88.0251 253.514 89.2685C252.535 89.6175 252.113 88.0635 253.085 87.7171H253.085Z" fill="#2279D4"/>
<path d="M303.634 110.241C307.402 108.899 312.282 109.422 314.926 112.695C317.294 115.626 317.578 120.292 314.565 122.908C310.896 126.092 305.816 124.921 301.81 123.124C298.145 121.48 294.111 118.83 294.167 114.332C294.176 113.176 294.461 112.039 294.998 111.015C295.535 109.99 296.309 109.108 297.256 108.442C298.218 107.794 299.318 107.38 300.469 107.235C301.62 107.09 302.789 107.217 303.882 107.605C304.849 107.958 304.432 109.513 303.453 109.157C302.665 108.858 301.821 108.738 300.981 108.806C300.14 108.874 299.326 109.127 298.597 109.549C297.867 109.97 297.241 110.548 296.764 111.241C296.287 111.934 295.971 112.724 295.839 113.555C295.273 117.289 298.472 119.707 301.446 121.181C304.708 122.797 308.859 124.344 312.351 122.487C315.338 120.898 315.884 117.275 314.228 114.493C312.175 111.043 307.553 110.549 304.063 111.792C303.084 112.141 302.662 110.587 303.634 110.241V110.241Z" fill="#9E9B9B"/>
<path d="M253.624 155.289C257.392 153.947 262.272 154.47 264.916 157.742C267.285 160.673 267.569 165.34 264.555 167.956C260.887 171.14 255.806 169.968 251.8 168.172C248.135 166.528 244.101 163.878 244.157 159.38C244.166 158.224 244.451 157.087 244.988 156.063C245.525 155.038 246.299 154.156 247.247 153.49C248.208 152.842 249.308 152.428 250.459 152.283C251.61 152.138 252.78 152.264 253.872 152.653C254.84 153.006 254.422 154.561 253.444 154.204C252.656 153.906 251.811 153.786 250.971 153.854C250.131 153.921 249.316 154.175 248.587 154.596C247.858 155.018 247.232 155.596 246.754 156.289C246.277 156.982 245.961 157.772 245.829 158.602C245.263 162.337 248.463 164.755 251.436 166.229C254.698 167.845 258.849 169.392 262.341 167.535C265.328 165.946 265.875 162.323 264.219 159.54C262.166 156.091 257.543 155.597 254.053 156.84C253.074 157.189 252.652 155.635 253.624 155.289H253.624Z" fill="#9E9B9B"/>
<path d="M255.448 170.508C254.229 178.328 250.537 185.556 244.91 191.137C240.614 195.322 235.354 198.393 229.591 200.08C223.828 201.768 217.738 202.02 211.855 200.815C210.85 200.606 210.98 199.001 211.996 199.212C219.18 200.696 226.648 199.929 233.378 197.018C238.753 194.639 243.444 190.953 247.019 186.296C250.594 181.64 252.94 176.163 253.841 170.367C253.997 169.347 255.605 169.482 255.448 170.508V170.508Z" fill="#9E9B9B"/>
<path d="M209.421 211.166L197.422 204.275C197.32 204.204 197.236 204.111 197.177 204.003C197.117 203.894 197.083 203.774 197.077 203.65C197.071 203.527 197.094 203.404 197.143 203.29C197.193 203.177 197.267 203.076 197.362 202.996L209.716 194.077C210.552 193.473 211.595 194.702 210.753 195.31C206.635 198.283 202.517 201.256 198.398 204.229L198.338 202.951L210.338 209.842C211.239 210.359 210.315 211.68 209.421 211.166Z" fill="#9E9B9B"/>
<path d="M245.231 84.2701C244.012 76.4498 240.32 69.2223 234.693 63.6415C230.397 59.4561 225.137 56.3852 219.374 54.6978C213.611 53.0105 207.522 52.7583 201.638 53.9632C200.633 54.1726 200.763 55.7775 201.779 55.5659C208.963 54.0823 216.431 54.8487 223.161 57.7603C228.537 60.139 233.227 63.8256 236.802 68.4819C240.378 73.1383 242.723 78.6154 243.624 84.4109C243.78 85.4309 245.388 85.2961 245.231 84.2701V84.2701Z" fill="#3F3D56"/>
<path d="M199.205 43.6123L187.205 50.5035C187.104 50.5744 187.02 50.6676 186.96 50.7759C186.9 50.8842 186.866 51.0047 186.86 51.1282C186.854 51.2516 186.877 51.3748 186.926 51.4882C186.976 51.6016 187.051 51.7021 187.145 51.7822L199.499 60.7014C200.336 61.3051 201.379 60.077 200.536 59.4686L188.182 50.5494L188.122 51.828L200.121 44.9368C201.022 44.4192 200.099 43.0989 199.205 43.6122V43.6123Z" fill="#3F3D56"/>
<path d="M309.226 127.605C310.445 135.426 314.137 142.653 319.764 148.234C324.06 152.419 329.32 155.49 335.083 157.178C340.846 158.865 346.936 159.117 352.819 157.912C353.824 157.703 353.694 156.098 352.678 156.31C345.494 157.793 338.026 157.027 331.296 154.115C325.921 151.736 321.23 148.05 317.655 143.393C314.08 138.737 311.734 133.26 310.833 127.464C310.677 126.444 309.069 126.579 309.226 127.605H309.226Z" fill="#9E9B9B"/>
<path d="M355.252 168.263L367.252 161.372C367.353 161.301 367.437 161.208 367.497 161.1C367.557 160.992 367.591 160.871 367.597 160.748C367.603 160.624 367.58 160.501 367.531 160.388C367.481 160.274 367.406 160.174 367.312 160.094L354.957 151.174C354.121 150.571 353.078 151.799 353.921 152.407L366.275 161.326L366.335 160.048L354.336 166.939C353.435 167.456 354.358 168.777 355.252 168.263V168.263Z" fill="#9E9B9B"/>
<path d="M405.115 185.216C411.127 174.899 413.993 163.819 412.691 151.728C412.843 151.05 412.72 150.339 412.348 149.752C411.976 149.164 411.385 148.748 410.706 148.594L385.345 142.888C384.665 142.736 383.953 142.859 383.364 143.23C382.775 143.602 382.357 144.191 382.203 144.868L374.627 178.356C374.475 179.034 374.598 179.745 374.97 180.332C375.342 180.92 375.933 181.336 376.612 181.49L401.973 187.196C402.653 187.348 403.365 187.225 403.954 186.854C404.543 186.482 404.961 185.893 405.115 185.216V185.216Z" fill="#D5D5D5"/>
<path d="M405.458 174.663C409.237 169.825 410.156 161.884 410.329 153.134C410.472 152.499 410.356 151.834 410.008 151.283C409.659 150.733 409.106 150.344 408.47 150.2L386.674 145.296C386.038 145.153 385.37 145.269 384.819 145.616C384.267 145.964 383.876 146.515 383.732 147.15L376.99 176.95C376.847 177.585 376.963 178.251 377.312 178.801C377.66 179.351 378.213 179.741 378.85 179.885L392.351 182.922C395.187 183.557 398.16 183.044 400.617 181.496C403.074 179.947 404.815 177.49 405.458 174.663V174.663Z" fill="white"/>
<path d="M394.067 176.935C392.797 176.935 391.768 175.909 391.768 174.643C391.768 173.377 392.797 172.351 394.067 172.351C395.336 172.351 396.365 173.377 396.365 174.643C396.365 175.909 395.336 176.935 394.067 176.935Z" fill="#D5D5D5"/>
<path d="M391.32 152.873C392.205 151.839 393.824 152.003 395.163 152.258C396.554 152.459 397.912 152.845 399.202 153.404C399.845 153.688 400.427 154.095 400.912 154.604C401.397 155.112 401.776 155.711 402.028 156.367C402.563 158.003 401.98 159.78 401.281 161.354C399.936 164.38 398.151 167.191 395.982 169.698L394.887 170.204C393.182 168.038 391.929 165.554 391.202 162.899C390.475 160.243 390.287 157.469 390.651 154.74C390.693 154.067 390.925 153.42 391.32 152.873V152.873Z" fill="#D5D5D5"/>
<path d="M394.067 176.935C392.797 176.935 391.768 175.909 391.768 174.643C391.768 173.377 392.797 172.351 394.067 172.351C395.336 172.351 396.365 173.377 396.365 174.643C396.365 175.909 395.336 176.935 394.067 176.935Z" fill="#9E9B9B"/>
<path d="M391.32 152.873C392.205 151.839 393.824 152.003 395.163 152.258C396.554 152.459 397.912 152.845 399.202 153.404C399.845 153.688 400.427 154.095 400.912 154.604C401.397 155.112 401.776 155.711 402.028 156.367C402.563 158.003 401.98 159.78 401.281 161.354C399.936 164.38 398.151 167.191 395.982 169.698L394.887 170.204C393.182 168.038 391.929 165.554 391.202 162.899C390.475 160.243 390.287 157.469 390.651 154.74C390.693 154.067 390.925 153.42 391.32 152.873V152.873Z" fill="#9E9B9B"/>
<path d="M74.4306 285.283L80.6024 285.282L83.5391 261.541H74.4295L74.4306 285.283Z" fill="#A0616A"/>
<path d="M93.0601 294.365C93.0571 295.054 92.7815 295.715 92.293 296.203C91.8046 296.691 91.1428 296.967 90.4514 296.971H78.8325L78.4725 296.227L76.829 292.845L76.1925 296.227L76.0517 296.971H71.6692L71.7317 296.222L72.9004 282.247L74.4291 282.153L81.0342 281.763L82.6568 281.664V285.837C83.8881 287.143 93.5505 292.08 93.0601 294.365Z" fill="#2F2E41"/>
<path d="M98.5321 280.507L104.357 282.544L115.006 261.109L106.409 258.104L98.5321 280.507Z" fill="#A0616A"/>
<path d="M113.098 295.226C112.866 295.876 112.387 296.408 111.764 296.707C111.141 297.007 110.425 297.049 109.771 296.825L98.8071 292.99L98.7143 292.169L98.2857 288.436L96.5628 291.417L96.183 292.073L92.0474 290.626L92.3551 289.94L98.0954 277.138L99.5691 277.554L105.931 279.365L107.495 279.808L106.111 283.745C106.839 285.384 114.319 293.232 113.098 295.226Z" fill="#2F2E41"/>
<path d="M103.33 95.21L99.5034 112.459L71.5206 114.983L68.949 99.9641L103.33 95.21Z" fill="#A0616A"/>
<path d="M69.6538 107.33L101.143 106.805L101.82 115.972L126.136 188.867L130.457 206.789L118.072 273.334L97.0999 273.321C97.0999 273.321 97.535 255.838 98.3721 255.114C99.2092 254.389 100.956 255.124 99.6609 251.391C98.3654 247.658 97.4094 246.452 98.9421 244.951C100.475 243.451 102.328 244.709 101.19 241.135C100.053 237.561 90.7719 188.758 90.7719 188.758V276.254H69.1936C69.1936 276.254 64.676 272.138 66.7554 269.995C68.8349 267.852 70.5224 267.431 68.8349 264.486C67.1474 261.541 63.4856 262.283 66.5821 258.546C69.0422 255.578 63.1572 173.71 60.6342 140.184C59.9525 131.123 62.853 122.156 68.7153 115.2V115.2L69.6538 107.33Z" fill="#2F2E41"/>
<path d="M85.8661 39.1787L71.9379 38.4631L65.4685 48.6574C65.4685 48.6574 53.2964 50.6869 54.1401 64.991C54.9838 79.2951 68.95 91.847 68.95 91.847L68.353 89.8058L69.3899 92.7604L69.2569 94.4194L67.8424 96.1763L67.6968 97.9933L68.95 100.868L67.2458 103.621L103.076 100.159L104.387 95.3989L102.475 92.8428L103.543 89.5089L101.938 86.3023L101.101 85.6066C101.101 85.6066 110.257 71.8883 99.7462 61.556L95.5275 54.4039L90.8072 48.6607L85.8661 39.1787Z" fill="#2279D4"/>
<path d="M82.3996 33.161C75.1051 33.161 69.1917 27.2638 69.1917 19.9893C69.1917 12.7148 75.1051 6.81763 82.3996 6.81763C89.6941 6.81763 95.6074 12.7148 95.6074 19.9893C95.6074 27.2638 89.6941 33.161 82.3996 33.161Z" fill="#A0616A"/>
<path d="M72.3676 38.9641C73.4431 38.0678 74.1917 36.8424 74.4971 35.4782C74.7414 37.1346 74.6776 38.8216 74.3089 40.455C75.0241 40.9912 75.7178 41.5007 76.3739 41.9619C76.8706 40.6881 77.5518 39.4938 78.3958 38.4171C78.4765 40.1117 78.5518 41.8118 78.6271 43.5064C79.4651 44.0726 80.3482 44.5694 81.2675 44.9919L80.8749 44.5254C78.057 40.3852 85.3491 32.7646 82.5312 28.6299C81.7407 27.4715 85.3114 18.3171 88.0325 17.9041C90.4524 17.5395 90.3502 18.2366 92.6948 18.7461C92.9383 17.7334 93.3163 16.7577 93.8187 15.8448C93.685 16.8621 93.7159 17.8941 93.9102 18.9016C94.7437 18.9338 95.3995 18.4042 96.287 18.2688C101.95 17.4054 101.374 11.2971 99.7986 9.36112C98.2176 7.43049 92.9691 6.8513 90.5492 6.22384C90.3287 6.00933 89.8286 6.1434 89.6081 5.93961C84.9705 1.70697 78.768 1.00601 73.1862 2.88201C72.6847 3.05454 72.1975 3.26601 71.7291 3.51448C66.9914 5.99029 62.9367 9.39801 63.231 14.724C63.3689 17.2185 63.9367 17.6068 63.231 19.0143C63.0579 19.3596 64.575 22.6115 62.0209 22.958C59.4668 23.3045 60.6185 25.271 60.0045 25.986C57.6257 28.7557 66.1504 36.8338 72.3676 38.9641Z" fill="#2F2E41"/>
<path d="M191.954 222.162C194.725 210.553 194.263 199.12 189.517 187.918C189.467 187.225 189.143 186.58 188.617 186.125C188.091 185.669 187.405 185.441 186.71 185.489L160.777 187.324C160.082 187.374 159.435 187.697 158.979 188.222C158.522 188.747 158.293 189.431 158.342 190.124L160.778 224.368C160.828 225.061 161.152 225.706 161.678 226.161C162.205 226.616 162.891 226.845 163.586 226.797L189.518 224.962C190.213 224.912 190.86 224.589 191.316 224.064C191.773 223.539 192.002 222.855 191.954 222.162V222.162Z" fill="#D5D5D5"/>
<path d="M189.228 211.959C191.446 206.239 190.028 198.371 187.662 189.944C187.615 189.295 187.312 188.691 186.819 188.265C186.326 187.838 185.683 187.624 185.032 187.67L162.745 189.247C162.095 189.293 161.489 189.596 161.061 190.087C160.634 190.579 160.419 191.219 160.465 191.869L162.633 222.341C162.68 222.99 162.983 223.594 163.476 224.021C163.969 224.447 164.611 224.661 165.262 224.616L179.068 223.639C181.967 223.43 184.665 222.084 186.57 219.894C188.475 217.704 189.431 214.851 189.228 211.959V211.959Z" fill="white"/>
<path d="M178.315 217.51C177.046 217.51 176.016 216.484 176.016 215.218C176.016 213.952 177.046 212.926 178.315 212.926C179.584 212.926 180.613 213.952 180.613 215.218C180.613 216.484 179.584 217.51 178.315 217.51Z" fill="#D5D5D5"/>
<path d="M169.387 195.165C169.935 193.92 171.532 193.612 172.888 193.47C174.279 193.263 175.691 193.241 177.087 193.406C177.786 193.492 178.46 193.715 179.072 194.062C179.683 194.409 180.22 194.874 180.65 195.429C181.636 196.841 181.592 198.711 181.379 200.418C180.966 203.703 180.07 206.909 178.719 209.932L177.817 210.732C175.558 209.149 173.64 207.131 172.175 204.798C170.71 202.465 169.728 199.863 169.287 197.145C169.132 196.489 169.167 195.802 169.387 195.165V195.165Z" fill="#D5D5D5"/>
<path d="M53.1095 101.368L53.6295 60.9819C53.6566 59.2709 54.3572 57.6392 55.58 56.4388C56.8029 55.2384 58.45 54.5657 60.1658 54.5657V54.5657C61.0535 54.5657 61.9318 54.746 62.7473 55.0955C63.5629 55.4451 64.2984 55.9567 64.9092 56.599C65.52 57.2414 65.9933 58.001 66.3001 58.8317C66.6069 59.6624 66.7408 60.5466 66.6937 61.4306L64.864 103.365L64.8292 128.893C65.9077 129.349 66.8192 130.125 67.4399 131.116C68.0606 132.107 68.3604 133.264 68.2987 134.431C68.237 135.597 67.8166 136.716 67.0948 137.636C66.373 138.556 65.3846 139.233 64.2641 139.573C63.1435 139.913 61.945 139.901 60.8315 139.539C59.718 139.176 58.7433 138.481 58.0401 137.546C57.3368 136.612 56.9389 135.485 56.9005 134.317C56.8622 133.15 57.1851 131.999 57.8256 131.02L53.1095 101.368Z" fill="#A0616A"/>
<path d="M18.5494 297.45H36.3957L36.4724 297.311C36.7006 296.899 36.9209 296.461 37.1267 296.012C38.965 292.087 39.742 287.599 40.4276 283.638L40.9438 280.653C41.0063 280.291 40.9593 279.92 40.8086 279.585C40.6579 279.25 40.4105 278.968 40.0981 278.774C39.7856 278.581 39.4223 278.484 39.0547 278.498C38.6871 278.511 38.3319 278.634 38.0345 278.85C35.3223 280.818 32.6091 282.784 29.8949 284.748C28.8671 285.494 27.6934 286.357 26.5693 287.29C26.4608 286.765 26.3474 286.238 26.234 285.718C26.1558 285.36 25.972 285.032 25.7062 284.778C25.4403 284.524 25.1046 284.355 24.7419 284.293C24.3792 284.23 24.006 284.277 23.6701 284.427C23.3342 284.578 23.0509 284.824 22.8564 285.136L20.7685 288.481C19.2455 290.925 17.9013 293.332 18.1752 295.929C18.1739 295.96 18.1763 295.992 18.1823 296.023C18.2371 296.449 18.3387 296.869 18.4853 297.273L18.5494 297.45Z" fill="#ACACAC"/>
<path d="M0.636106 297.835L170.222 298C170.392 297.999 170.554 297.931 170.673 297.812C170.792 297.692 170.859 297.53 170.859 297.361C170.859 297.193 170.792 297.031 170.673 296.911C170.554 296.791 170.392 296.724 170.222 296.723L0.636106 296.558C0.466933 296.559 0.305032 296.627 0.185753 296.746C0.066475 296.866 -0.000479596 297.028 -0.000479596 297.197C-0.000479596 297.365 0.066475 297.527 0.185753 297.647C0.305032 297.767 0.466933 297.834 0.636106 297.835V297.835Z" fill="#B1B1B1"/>
</g>
<defs>
<clipPath id="clip0_297_1352">
<rect width="413" height="298" fill="white" transform="matrix(-1 0 0 1 413 0)"/>
</clipPath>
</defs>
</svg>
