<svg width="23" height="20" viewBox="0 0 23 20" fill="none" xmlns="http://www.w3.org/2000/svg">
<path fill-rule="evenodd" clip-rule="evenodd" d="M11.469 5.82852L11.5167 6.61599L10.7208 6.51957C7.82357 6.14994 5.29249 4.89641 3.14347 2.79112L2.09283 1.74651L1.82221 2.51791C1.24914 4.2375 1.61527 6.05351 2.80917 7.2749C3.44592 7.94988 3.30265 8.0463 2.20426 7.64453C1.82221 7.51596 1.48792 7.41954 1.45608 7.46775C1.34465 7.58025 1.7267 9.0427 2.02916 9.62125C2.44304 10.4248 3.28673 11.2123 4.21002 11.6783L4.99004 12.048L4.06675 12.064C3.1753 12.064 3.14347 12.0801 3.23898 12.4176C3.55735 13.4622 4.81493 14.5711 6.21578 15.0532L7.20274 15.3907L6.34313 15.905C5.06963 16.6442 3.57327 17.0621 2.07691 17.0942C1.36057 17.1103 0.771576 17.1746 0.771576 17.2228C0.771576 17.3835 2.71366 18.2835 3.84389 18.637C7.23458 19.6816 11.262 19.2317 14.2866 17.4478C16.4356 16.1782 18.5846 13.6551 19.5875 11.2123C20.1287 9.91053 20.67 7.53203 20.67 6.391C20.67 5.65174 20.7177 5.55531 21.6092 4.67141C22.1345 4.15714 22.628 3.59466 22.7235 3.43395C22.8827 3.1286 22.8668 3.1286 22.0549 3.40181C20.7018 3.88394 20.5108 3.81965 21.1794 3.09646C21.6729 2.58219 22.2619 1.65008 22.2619 1.37688C22.2619 1.32866 22.0231 1.40902 21.7525 1.55366C21.4659 1.71436 20.8292 1.95543 20.3516 2.10007L19.492 2.37327L18.712 1.84293C18.2822 1.55366 17.6773 1.23224 17.3589 1.13581C16.547 0.910819 15.3054 0.942961 14.5731 1.2001C12.5833 1.92329 11.3257 3.78751 11.469 5.82852Z" fill="#232526"/>
</svg>
