<svg width="3922" height="1490" viewBox="0 0 3922 1490" fill="none" xmlns="http://www.w3.org/2000/svg">
<g clip-path="url(#clip0_110_39)">
<rect width="3922" height="1490" fill="#F2F7FC"/>
<path d="M218.886 107.28C231.65 100.718 246.21 98.5092 260.347 100.991C274.483 103.473 287.419 110.508 297.184 121.025C306.949 131.542 313.005 144.962 314.431 159.24C315.855 173.519 312.571 187.871 305.078 200.109C297.584 212.348 286.294 221.801 272.926 227.026C259.559 232.252 244.85 232.963 231.04 229.053C217.231 225.142 205.08 216.823 196.439 205.366C187.799 193.908 183.144 179.94 183.183 165.591L248.969 165.771L218.886 107.28Z" stroke="black" stroke-opacity="0.32" stroke-width="10"/>
<path d="M1529.89 1400.28C1542.65 1393.72 1557.21 1391.51 1571.35 1393.99C1585.48 1396.47 1598.42 1403.51 1608.18 1414.02C1617.95 1424.54 1624.01 1437.96 1625.43 1452.24C1626.86 1466.52 1623.57 1480.87 1616.08 1493.11C1608.58 1505.35 1597.29 1514.8 1583.93 1520.03C1570.56 1525.25 1555.85 1525.96 1542.04 1522.05C1528.23 1518.14 1516.08 1509.82 1507.44 1498.37C1498.8 1486.91 1494.14 1472.94 1494.18 1458.59L1559.97 1458.77L1529.89 1400.28Z" stroke="black" stroke-opacity="0.32" stroke-width="10"/>
<path d="M2343.7 58.8333C2347.82 72.5824 2347.33 87.3006 2342.3 100.745C2337.28 114.188 2327.99 125.619 2315.87 133.295C2303.74 140.971 2289.44 144.471 2275.14 143.26C2260.84 142.048 2247.33 136.194 2236.67 126.588C2226.01 116.983 2218.78 104.153 2216.09 90.0551C2213.4 75.9579 2215.39 61.3666 2221.76 48.5056C2228.13 35.6446 2238.53 25.2205 2251.38 18.8215C2264.22 12.4234 2278.81 10.402 2292.91 13.0652L2280.7 77.7084L2343.7 58.8333Z" stroke="black" stroke-opacity="0.32" stroke-width="10"/>
<path d="M171 158.463C171 146.586 174.298 134.942 180.528 124.828C186.757 114.714 195.673 106.528 206.282 101.182L235.162 158.463H171Z" fill="black" fill-opacity="0.32"/>
<path d="M1482 1451.46C1482 1439.59 1485.3 1427.94 1491.53 1417.83C1497.76 1407.71 1506.67 1399.53 1517.28 1394.18L1546.16 1451.46H1482Z" fill="black" fill-opacity="0.32"/>
<path d="M2302.14 2.39167C2313.82 4.56455 2324.67 9.93723 2333.47 17.9118C2342.27 25.8861 2348.69 36.1493 2352 47.557L2290.41 65.4709L2302.14 2.39167Z" fill="black" fill-opacity="0.32"/>
<path d="M1463.6 295.5C1442.2 317.404 1402.43 327.056 1381.47 329.691C1379.98 329.878 1379.46 331.804 1380.67 332.69L1435.82 373.361C1436 373.493 1436.2 373.588 1436.42 373.637C1477.26 382.748 1515.33 342.107 1530.43 319.019C1531.01 318.14 1530.58 316.972 1529.58 316.637L1465.3 295.085C1464.7 294.883 1464.04 295.048 1463.6 295.5Z" stroke="black" stroke-opacity="0.32" stroke-width="5" stroke-linecap="round"/>
<path d="M3688.33 807.246C3677.68 835.96 3645.28 860.947 3627.2 871.877C3625.92 872.65 3626.23 874.621 3627.69 874.943L3694.62 889.673C3694.84 889.721 3695.06 889.724 3695.28 889.68C3736.29 881.4 3754.54 828.793 3758.95 801.558C3759.12 800.52 3758.25 799.628 3757.2 799.728L3689.71 806.175C3689.08 806.235 3688.55 806.653 3688.33 807.246Z" stroke="black" stroke-opacity="0.32" stroke-width="5" stroke-linecap="round"/>
<path d="M1495.18 328.859C1488.68 327.509 1474.55 323.308 1470 317.294" stroke="black" stroke-opacity="0.32" stroke-width="5" stroke-linecap="round"/>
<path d="M3730.75 824.881C3724.26 826.29 3709.64 828.198 3703.04 824.554" stroke="black" stroke-opacity="0.32" stroke-width="5" stroke-linecap="round"/>
<path d="M1476.91 343.475C1472.84 343.61 1463.5 341.607 1458.63 332.513" stroke="black" stroke-opacity="0.32" stroke-width="5" stroke-linecap="round"/>
<path d="M3720 845.664C3716.34 847.439 3706.99 849.407 3698.84 843.08" stroke="black" stroke-opacity="0.32" stroke-width="5" stroke-linecap="round"/>
<path d="M1457.01 353.219C1450.92 352.407 1437.84 347.778 1434.27 335.761" stroke="black" stroke-opacity="0.32" stroke-width="5" stroke-linecap="round"/>
<path d="M3705.78 862.657C3699.89 864.391 3686.06 865.48 3677.91 855.954" stroke="black" stroke-opacity="0.32" stroke-width="5" stroke-linecap="round"/>
<path d="M3468.3 248.185L3434.19 248.246C3430.82 248.252 3428.1 250.984 3428.1 254.347L3428.15 279.519C3428.16 282.882 3430.89 285.604 3434.25 285.598L3468.36 285.536C3471.73 285.53 3474.45 282.799 3474.44 279.436L3474.4 254.264C3474.39 250.901 3471.66 248.179 3468.3 248.185Z" stroke="black" stroke-opacity="0.32" stroke-width="5"/>
<path d="M3525.94 238.337L3503.2 238.378C3499.84 238.384 3497.12 241.116 3497.12 244.479L3497.18 276.959C3497.19 280.322 3499.92 283.044 3503.28 283.038L3526.02 282.997C3529.39 282.991 3532.11 280.259 3532.1 276.896L3532.05 244.416C3532.04 241.053 3529.31 238.331 3525.94 238.337Z" stroke="black" stroke-opacity="0.32" stroke-width="5"/>
<path d="M3583.57 217.934L3561.64 217.973C3558.28 217.979 3555.56 220.711 3555.56 224.074L3555.66 276.853C3555.66 280.217 3558.4 282.938 3561.76 282.932L3583.69 282.893C3587.05 282.887 3589.78 280.155 3589.77 276.792L3589.67 224.013C3589.67 220.65 3586.93 217.928 3583.57 217.934Z" stroke="black" stroke-opacity="0.32" stroke-width="5"/>
<path d="M3642.82 197.122L3620.08 197.163C3615.6 197.171 3611.97 200.813 3611.97 205.297L3612.1 276.752C3612.11 281.237 3615.76 284.865 3620.24 284.857L3642.98 284.816C3647.46 284.808 3651.1 281.167 3651.09 276.682L3650.96 205.227C3650.95 200.743 3647.31 197.114 3642.82 197.122Z" fill="black" fill-opacity="0.32"/>
<path d="M3702.99 234.771L3681.06 234.811C3677.7 234.817 3674.98 237.548 3674.98 240.912L3675.05 276.639C3675.05 280.002 3677.79 282.724 3681.15 282.718L3703.08 282.679C3706.44 282.673 3709.16 279.941 3709.16 276.578L3709.09 240.85C3709.09 237.487 3706.35 234.765 3702.99 234.771Z" stroke="black" stroke-opacity="0.32" stroke-width="5"/>
<path d="M3763.94 254.961L3741.2 255.002C3737.84 255.008 3735.11 257.74 3735.12 261.103L3735.15 276.531C3735.15 279.894 3737.89 282.616 3741.25 282.61L3763.99 282.569C3767.35 282.563 3770.08 279.831 3770.07 276.468L3770.04 261.04C3770.04 257.677 3767.3 254.955 3763.94 254.961Z" stroke="black" stroke-opacity="0.32" stroke-width="5"/>
<path d="M3671.11 119.932L3592.33 120.074C3587.85 120.082 3584.21 123.724 3584.22 128.208L3584.3 172.056C3584.31 176.54 3587.95 180.169 3592.44 180.161L3671.22 180.019C3675.7 180.011 3679.33 176.369 3679.32 171.885L3679.25 128.037C3679.24 123.553 3675.59 119.924 3671.11 119.932Z" fill="black" fill-opacity="0.32"/>
<path d="M3665.47 147.55L3613.5 147.643C3611.7 147.646 3610.25 149.103 3610.25 150.897C3610.26 152.691 3611.71 154.142 3613.51 154.139L3665.49 154.046C3667.28 154.042 3668.73 152.585 3668.73 150.792C3668.73 148.998 3667.27 147.546 3665.47 147.55Z" fill="white"/>
<path d="M3600.51 150.914C3600.5 149.569 3599.41 148.48 3598.07 148.483C3596.72 148.485 3595.63 149.578 3595.63 150.923C3595.64 152.269 3596.73 153.357 3598.08 153.355C3599.42 153.352 3600.51 152.26 3600.51 150.914Z" stroke="white" stroke-width="2"/>
<path d="M3634.64 163.033L3613.52 163.071C3611.73 163.074 3610.28 164.531 3610.28 166.325C3610.28 168.118 3611.74 169.57 3613.53 169.567L3634.65 169.529C3636.45 169.526 3637.9 168.069 3637.89 166.275C3637.89 164.481 3636.43 163.03 3634.64 163.033Z" fill="white"/>
<path d="M1299.08 146.97H1277.96C1276.16 146.97 1274.71 148.424 1274.71 150.218C1274.71 152.012 1276.16 153.466 1277.96 153.466H1299.08C1300.87 153.466 1302.32 152.012 1302.32 150.218C1302.32 148.424 1300.87 146.97 1299.08 146.97Z" fill="white"/>
<path d="M3601.35 166.341C3601.34 164.547 3599.89 163.095 3598.09 163.099C3596.3 163.102 3594.85 164.559 3594.85 166.352C3594.85 168.146 3596.31 169.598 3598.1 169.595C3599.9 169.591 3601.35 168.135 3601.35 166.341Z" fill="white"/>
<path d="M3244.5 805.101C3228.92 808.296 3236.22 829.74 3224.81 835.446C3211.18 842.258 3206.49 803.908 3208.26 787.63C3208.77 780.492 3217.08 777.318 3218.2 787.63C3219.39 798.584 3205.8 841.058 3190.22 824.668L3179.82 812.635C3176.93 809.074 3171.24 804.127 3166.42 812.635C3161.61 821.142 3153.93 818.331 3150.7 815.862L3140.54 808.47" stroke="black" stroke-opacity="0.32" stroke-width="5" stroke-linecap="round"/>
<path d="M1434.5 100.101C1418.92 103.296 1426.22 124.74 1414.81 130.446C1401.18 137.258 1396.49 98.9078 1398.26 82.6298C1398.77 75.4924 1407.08 72.3183 1408.2 82.6298C1409.39 93.5835 1395.8 136.058 1380.22 119.668L1369.82 107.635C1366.93 104.074 1361.24 99.127 1356.42 107.635C1351.61 116.142 1343.93 113.331 1340.7 110.862L1330.54 103.47" stroke="black" stroke-opacity="0.32" stroke-width="5" stroke-linecap="round"/>
<path d="M3147.82 775.709L3066.95 762.013C3066.15 761.877 3065.66 762.872 3066.27 763.416L3103.73 797.146C3103.8 797.199 3103.85 797.244 3103.93 797.273C3107.25 798.576 3119.97 793.566 3126.74 790.536C3127.2 790.331 3127.72 790.582 3127.86 791.062C3129.42 796.524 3131.3 801.573 3132.27 803.979C3132.42 804.333 3132.81 804.529 3133.07 804.247C3134.88 802.25 3135.13 792.082 3135 786.246C3134.99 785.83 3135.29 785.477 3135.71 785.396C3140.69 784.424 3147.42 780.052 3150.29 777.889" stroke="black" stroke-opacity="0.32" stroke-width="5" stroke-linecap="round"/>
<path d="M1337.82 70.7092L1256.95 57.0126C1256.15 56.877 1255.66 57.8725 1256.27 58.4165L1293.73 92.1457C1293.8 92.1993 1293.85 92.2439 1293.93 92.2732C1297.25 93.5764 1309.97 88.5664 1316.74 85.5361C1317.2 85.3315 1317.72 85.5816 1317.86 86.0623C1319.42 91.5237 1321.3 96.5726 1322.27 98.9794C1322.42 99.3334 1322.81 99.5291 1323.07 99.2473C1324.88 97.2499 1325.13 87.0821 1325 81.2464C1324.99 80.8298 1325.29 80.4766 1325.71 80.3962C1330.69 79.4243 1337.42 75.0517 1340.29 72.8886" stroke="black" stroke-opacity="0.32" stroke-width="5" stroke-linecap="round"/>
<path d="M3127.54 789.965C3118.92 785.995 3097.1 776.053 3078.81 768.042" stroke="black" stroke-opacity="0.32" stroke-width="5" stroke-linecap="round"/>
<path d="M1317.54 84.9653C1308.92 80.9954 1287.1 71.0534 1268.81 63.0415" stroke="black" stroke-opacity="0.32" stroke-width="5" stroke-linecap="round"/>
<path d="M3132.42 804.581L3116.17 794.837" stroke="black" stroke-opacity="0.32" stroke-width="5" stroke-linecap="round"/>
<path d="M1322.42 99.5808L1306.17 89.8369" stroke="black" stroke-opacity="0.32" stroke-width="5" stroke-linecap="round"/>
<path d="M3129.17 781.845L3107.24 775.349" stroke="black" stroke-opacity="0.32" stroke-width="5" stroke-linecap="round"/>
<path d="M1319.17 76.8451L1297.24 70.3491" stroke="black" stroke-opacity="0.32" stroke-width="5" stroke-linecap="round"/>
<path d="M2589.35 1291.13L2601.49 1263.39L2615.88 1230.54C2619.37 1222.56 2623.55 1216.09 2614.18 1211.34C2604.82 1206.59 2595.48 1215.46 2580.66 1204.5C2572.84 1198.71 2569.38 1186.69 2573.9 1176.37C2581.71 1158.53 2605.78 1156.24 2619.26 1176.08C2631.7 1194.39 2640.54 1174.21 2643.42 1167.64L2662.34 1124.41C2662.79 1123.4 2663.97 1122.94 2664.98 1123.38L2728.1 1151.01C2740.5 1157.55 2726.35 1168.7 2718.79 1176.01C2703.66 1190.65 2709.18 1205 2715.03 1210.73C2737.06 1227.64 2754.52 1203.96 2750.81 1190.03C2745.73 1170.98 2752.64 1163.43 2758.13 1165.83L2818.83 1192.39C2819.89 1192.86 2820.34 1194.13 2819.84 1195.17C2816.12 1202.9 2808.41 1221.54 2800.45 1239.72C2789.77 1264.13 2815.22 1265.76 2815.01 1266.23C2814.81 1266.7 2851.75 1271.86 2843.29 1298.74C2837.72 1316.44 2815.16 1319.43 2798.16 1304.72C2784.56 1292.95 2779.45 1297.65 2777.19 1302.81L2751.27 1362C2750.83 1363.01 2749.65 1363.47 2748.64 1363.03L2681.06 1333.45C2680.42 1333.17 2679.97 1332.57 2679.89 1331.87C2677.9 1313.85 2688.69 1310.67 2698.28 1301.28C2709.73 1290.07 2708.69 1276.11 2700.8 1269.38C2690.48 1260.58 2666.63 1257.78 2664.43 1286.46C2662.73 1308.58 2656.24 1322.59 2645.26 1317.79L2590.38 1293.76C2589.36 1293.32 2588.9 1292.14 2589.35 1291.13Z" fill="black" fill-opacity="0.32"/>
<path d="M2818.73 1195.04L2871.41 1218.09C2877.82 1220.9 2892.07 1220.17 2898.44 1195C2905.14 1168.46 2924.72 1177.28 2931.68 1183.9C2935.29 1187.3 2939.73 1196.92 2928.67 1208.23C2914.84 1222.37 2913.14 1237.46 2926.42 1243.28L2972.23 1263.32C2973.24 1263.77 2973.7 1264.95 2973.26 1265.96L2903.28 1425.77C2902.84 1426.79 2901.66 1427.26 2900.65 1426.81C2891.92 1422.89 2854.55 1406.17 2847.51 1403.57C2839.52 1400.62 2837.15 1409.71 2837.05 1422.46C2836.9 1441.5 2821.24 1457.95 2799.85 1443.84C2787.57 1435.74 2788.29 1419.13 2800.41 1406.42C2812.52 1393.71 2808.11 1386.33 2802.16 1383.72C2790.06 1378.43 2761.83 1365.89 2749.7 1360.76" stroke="black" stroke-opacity="0.32" stroke-width="5" stroke-linecap="round"/>
<path d="M2731.16 1414.32C2731.86 1420.63 2733.07 1434.15 2732.36 1437.77" stroke="black" stroke-opacity="0.32" stroke-width="5" stroke-linecap="round"/>
<path d="M2718.51 1412.06C2715.17 1415.51 2709.04 1427.45 2711.14 1447.59" stroke="black" stroke-opacity="0.32" stroke-width="5" stroke-linecap="round"/>
<path d="M2702.3 1401.69C2693.94 1404.58 2676.14 1412.08 2671.83 1418.92" stroke="black" stroke-opacity="0.32" stroke-width="5" stroke-linecap="round"/>
<path d="M2839.26 1141.26C2847.62 1138.37 2865.42 1130.87 2869.73 1124.03" stroke="black" stroke-opacity="0.32" stroke-width="5" stroke-linecap="round"/>
<path d="M2823.06 1130.89C2826.39 1127.44 2832.53 1115.49 2830.42 1095.36" stroke="black" stroke-opacity="0.32" stroke-width="5" stroke-linecap="round"/>
<path d="M2810.4 1128.63C2809.71 1122.32 2808.5 1108.8 2809.21 1105.18" stroke="black" stroke-opacity="0.32" stroke-width="5" stroke-linecap="round"/>
<path d="M152.131 1339.5C152.72 1326.79 147.916 1317.12 141.351 1303.91C133.145 1287.41 116.419 1249.82 133.661 1217.37C147.454 1191.41 166.931 1174.33 174.945 1169.04" stroke="black" stroke-opacity="0.32" stroke-width="5" stroke-linecap="round"/>
<path d="M201.994 1323.89C201.907 1318.49 209.309 1292.66 203.121 1278.62C201.227 1274.66 198.784 1264.99 206.082 1257.35" stroke="black" stroke-opacity="0.32" stroke-width="5" stroke-linecap="round"/>
<path d="M164.484 1228.67C167.85 1215.64 181.686 1195.77 195.318 1189.04C208.95 1182.3 213.176 1191.67 212.579 1196.38C211.685 1203.43 207.723 1212.13 199.599 1228.87C191.552 1245.46 192.284 1271.44 194.99 1283.12" stroke="black" stroke-opacity="0.32" stroke-width="5" stroke-linecap="round"/>
<path d="M390.011 1118.11C378.289 1112.94 350.869 1105.82 334.969 1118.65C333.526 1119.81 331.045 1123.92 332.667 1131.17" stroke="black" stroke-opacity="0.32" stroke-width="5" stroke-linecap="round"/>
<path d="M391.355 1192.9C366.938 1177.83 351.482 1164.74 347.642 1143.44C345.502 1131.57 350.675 1124.84 358.457 1128.74C368.786 1133.91 377.906 1141.59 387.804 1142.78C389.759 1143.06 395.678 1143 403.718 1140.57" stroke="black" stroke-opacity="0.32" stroke-width="5" stroke-linecap="round"/>
<path d="M472.082 1218.64C470.146 1215.4 464.936 1204.75 463.284 1195.51C461.218 1183.96 447.275 1142.21 425.208 1135.63" stroke="black" stroke-opacity="0.32" stroke-width="5" stroke-linecap="round"/>
<path d="M435.769 1108.4L320.04 1134.54C319.822 1134.59 319.605 1134.68 319.416 1134.8C303.673 1144.74 313.886 1152.02 321.451 1155.16C321.811 1155.31 322.205 1155.34 322.586 1155.26L349.048 1149.81" stroke="black" stroke-opacity="0.32" stroke-width="5" stroke-linecap="round"/>
<path d="M442.247 1131.52L403.676 1140.49" stroke="black" stroke-opacity="0.32" stroke-width="5" stroke-linecap="round"/>
<ellipse rx="10.5" ry="14.5" transform="matrix(0.9571 -0.289756 0.289879 0.957063 438.563 1120.05)" fill="black" fill-opacity="0.32"/>
<path d="M428.646 1133.15C418.84 1125.62 421.742 1116.38 424.79 1112.14C425.044 1111.78 425.422 1111.55 425.845 1111.44L437.38 1108.53C438.449 1108.26 439.536 1108.9 439.808 1109.97L444.556 1128.6C444.841 1129.72 444.125 1130.84 442.993 1131.06L430.182 1133.5C429.645 1133.6 429.081 1133.48 428.646 1133.15Z" fill="black" fill-opacity="0.32"/>
<path d="M303.798 1146.02L308.792 1142.6C309.986 1141.78 311.628 1142.46 311.89 1143.88L312.78 1148.72C313.042 1150.14 311.754 1151.36 310.347 1151.02L304.464 1149.61C302.778 1149.21 302.369 1147 303.798 1146.02Z" fill="black" fill-opacity="0.32"/>
<path d="M186.41 1193.82L143.545 1068.82C137.894 1050.16 131.79 1017.5 170.708 1006.29C209.627 995.077 230.573 988.403 236.181 986.467" stroke="black" stroke-opacity="0.32" stroke-width="5" stroke-linecap="round"/>
<path d="M280.703 972.988L345.848 953.266C363.952 948.142 381.717 951.338 390.836 981.446C399.955 1011.55 418.128 1074.76 426.764 1108" stroke="black" stroke-opacity="0.32" stroke-width="5" stroke-linecap="round"/>
<path d="M419.46 1280.51C393.211 1290.6 323.005 1317.57 280.246 1332.54C261.913 1338.09 236.909 1343.09 224.037 1310.97L198.185 1232.7" stroke="black" stroke-opacity="0.32" stroke-width="5" stroke-linecap="round"/>
<circle r="13" transform="matrix(0.9571 -0.289756 0.289879 0.957063 253.671 964.97)" stroke="black" stroke-opacity="0.32" stroke-width="5"/>
<path d="M235.826 979.215C240.232 985.297 238.409 991.269 231.401 995.173C228.05 997.04 223.048 998.629 214.421 1004.95C203.639 1012.85 205.015 1025.62 207.855 1036.17C210.126 1044.61 215.785 1045.9 224.364 1043.66C249.012 1036.07 302.106 1020.83 316.219 1016.56C330.897 1012.12 331.35 1005.92 330.737 1002.18C327.704 983.703 319.284 978.476 312.968 977.61C309.996 977.203 301.46 976.531 291.093 977.102C280.725 977.674 278.017 974.999 277.588 970.137C276.534 958.191 272.4 949.483 270.466 946.622C268.059 942.597 259.191 936.201 242.965 942.825C222.683 951.105 230.319 971.612 235.826 979.215Z" stroke="black" stroke-opacity="0.32" stroke-width="5" stroke-linecap="round"/>
<path d="M401.155 1113.14L365.728 991.692C364.937 989.079 362.071 984.953 356.035 986.78C349.827 988.66 335.95 993.099 329.566 994.793" stroke="black" stroke-opacity="0.32" stroke-width="5" stroke-linecap="round"/>
<path d="M205.064 1032.49L175.001 1041.59C171.634 1042.25 165.934 1046.04 170.067 1055.92C174.2 1065.8 227.128 1222.33 253.075 1299.35C254.153 1303.31 258.231 1310.49 265.916 1307.59C271.762 1305.39 363.024 1272.05 417.854 1252.79" stroke="black" stroke-opacity="0.32" stroke-width="5" stroke-linecap="round"/>
<path d="M410.682 1111.82L375.98 991.041C374.889 987.44 371.734 982.678 363.242 986.678" stroke="black" stroke-opacity="0.32" stroke-width="5" stroke-linecap="round"/>
<path d="M169.48 1044.27C166.212 1045.26 158.696 1047.53 161.6 1055.94C164.391 1064.03 192.715 1146.89 205.461 1185.44" stroke="black" stroke-opacity="0.32" stroke-width="5" stroke-linecap="round"/>
<path d="M211.159 1204.26L245.035 1305.5C246.452 1309 249.346 1313.84 264.636 1307.78" stroke="black" stroke-opacity="0.32" stroke-width="5" stroke-linecap="round"/>
<path d="M217.937 1090.2L279.191 1071.65" stroke="black" stroke-opacity="0.32" stroke-width="5" stroke-linecap="round"/>
<path d="M224.929 1111.8L356.976 1071.11" stroke="black" stroke-opacity="0.32" stroke-width="5" stroke-linecap="round"/>
<path d="M231.898 1133.63L335.367 1101.24" stroke="black" stroke-opacity="0.32" stroke-width="5" stroke-linecap="round"/>
<path d="M243.212 1167.39L293.562 1149.63" stroke="black" stroke-opacity="0.32" stroke-width="5" stroke-linecap="round"/>
<path d="M415.236 1113.05C414.196 1118.24 410.767 1125.9 419.988 1135.65" stroke="black" stroke-opacity="0.32" stroke-width="5" stroke-linecap="round"/>
<path d="M355.262 1189.3C353.222 1194.06 354.721 1205.45 377.04 1212.9C387.92 1216.05 412.205 1228.27 422.306 1251.96" stroke="black" stroke-opacity="0.32" stroke-width="5" stroke-linecap="round"/>
<path d="M338.853 1152.37C338.114 1156.1 339.233 1162.49 346.355 1166.79C349.863 1168.91 354.829 1170.51 361.747 1171.04" stroke="black" stroke-opacity="0.32" stroke-width="5" stroke-linecap="round"/>
<path d="M346.355 1166.79C344.432 1172.77 344.386 1183.86 355.262 1189.3C358.078 1190.71 366.514 1192.34 370.952 1192.81" stroke="black" stroke-opacity="0.32" stroke-width="5" stroke-linecap="round"/>
<path d="M468.187 1329.5C450.779 1308.83 420.9 1261.7 440.648 1238.58C465.333 1209.69 518.532 1242.17 544.005 1276.25" stroke="black" stroke-opacity="0.32" stroke-width="5" stroke-linecap="round"/>
<path d="M150.388 1405.33C146.017 1382.28 148.865 1331.66 178.935 1328.82C209.004 1325.99 232.233 1374.85 240.089 1399.64" stroke="black" stroke-opacity="0.32" stroke-width="5" stroke-linecap="round"/>
<path d="M857.999 215.412L869.429 196.826" stroke="black" stroke-opacity="0.17" stroke-width="3" stroke-linecap="round"/>
<path d="M852.045 246.8L894.755 177.345" stroke="black" stroke-opacity="0.17" stroke-width="3" stroke-linecap="round"/>
<path d="M862.433 251.612L876.306 229.041M903.514 185.194L889.288 207.941" stroke="black" stroke-opacity="0.17" stroke-width="3" stroke-linecap="round"/>
<path d="M870.214 260.664L880.867 243.34M915.933 186.317L905.531 203.232" stroke="black" stroke-opacity="0.17" stroke-width="3" stroke-linecap="round"/>
<path d="M874.586 275.259L888.958 251.887M929.909 184.788L916.508 207.118" stroke="black" stroke-opacity="0.17" stroke-width="3" stroke-linecap="round"/>
<path d="M888.484 274.364L899.216 256.912M935.595 198.186L925.442 214.019" stroke="black" stroke-opacity="0.17" stroke-width="3" stroke-linecap="round"/>
<path d="M901.178 275.427L912.356 257.025M941.686 208.742L929.909 228.636" stroke="black" stroke-opacity="0.17" stroke-width="3" stroke-linecap="round"/>
<path d="M910.263 282.358L953.057 211.989" stroke="black" stroke-opacity="0.17" stroke-width="3" stroke-linecap="round"/>
<path d="M890.724 178.799C887.181 179.644 883.808 180.841 880.626 182.318L882.535 190.32C878.299 192.477 874.516 195.219 871.237 198.482L864.228 194.174C861.785 196.788 859.672 199.675 857.805 202.711C855.938 205.747 854.315 208.936 853.084 212.295L860.094 216.604C858.661 221.002 857.922 225.614 857.909 230.367L849.905 232.276C850.023 235.781 850.477 239.331 851.322 242.873C852.168 246.416 853.365 249.788 854.842 252.969L862.847 251.06C865.004 255.296 867.746 259.077 871.011 262.356L866.701 269.364C869.316 271.806 872.204 273.919 875.24 275.785C878.277 277.652 881.467 279.274 884.826 280.505L889.136 273.496C893.535 274.929 898.148 275.668 902.902 275.681L904.812 283.683C908.318 283.565 911.868 283.111 915.412 282.266C918.955 281.421 922.328 280.224 925.51 278.747L923.601 270.745C927.837 268.588 931.619 265.846 934.898 262.582L941.908 266.891C944.351 264.277 946.464 261.389 948.331 258.354C950.198 255.318 951.821 252.129 953.052 248.77L946.042 244.461C947.474 240.063 948.214 235.451 948.227 230.698L956.231 228.789C956.113 225.284 955.659 221.734 954.814 218.191C953.968 214.649 952.771 211.276 951.294 208.095L943.289 210.004C941.132 205.769 938.39 201.987 935.125 198.709L939.435 191.701C936.82 189.259 933.932 187.146 930.896 185.28C927.859 183.413 924.669 181.79 921.31 180.56L917 187.568C912.601 186.136 907.988 185.397 903.233 185.384L901.324 177.381C897.818 177.499 894.268 177.954 890.724 178.799V178.799ZM896.896 204.666C911.178 201.259 925.534 210.083 928.941 224.362C932.348 238.64 923.522 252.993 909.24 256.399C894.958 259.805 880.602 250.981 877.195 236.703C873.788 222.424 882.614 208.072 896.896 204.666Z" stroke="black" stroke-opacity="0.32" stroke-width="5" stroke-linecap="round" stroke-linejoin="round"/>
<rect x="551.628" y="530.137" width="228" height="142" rx="7.5" transform="rotate(-30 551.628 530.137)" stroke="black" stroke-opacity="0.32" stroke-width="5"/>
<rect x="2116.91" y="1050.21" width="228" height="142" rx="7.5" transform="rotate(8.13066 2116.91 1050.21)" stroke="black" stroke-opacity="0.32" stroke-width="5"/>
<ellipse cx="581.431" cy="537.757" rx="5.5" ry="6" transform="rotate(-30 581.431 537.757)" fill="black" fill-opacity="0.32"/>
<ellipse cx="2135.65" cy="1074.6" rx="5.5" ry="6" transform="rotate(8.13066 2135.65 1074.6)" fill="black" fill-opacity="0.32"/>
<path d="M761.865 543.279L793.042 525.279M777.734 545.664L798.042 533.94" stroke="black" stroke-opacity="0.32" stroke-width="5" stroke-linecap="round"/>
<path d="M2274.17 1190.36L2309.81 1195.45M2285.18 1202.03L2308.39 1205.35" stroke="black" stroke-opacity="0.32" stroke-width="5" stroke-linecap="round"/>
<path d="M618.689 595.144C625.244 590.519 643.89 585.235 667.002 600.041C667.698 600.487 668.628 599.969 668.586 599.143C667.149 570.895 668.214 540.98 726.484 542.488C727.521 542.515 728.022 541.069 727.178 540.466C711.476 529.234 691.596 502.807 715.629 469.907C716.19 469.139 715.503 468.041 714.58 468.267L705.56 470.467C704.518 470.721 703.912 469.451 704.794 468.839C713.093 463.081 725.251 456.848 724.005 464.327C722.522 473.226 723.502 477.744 728.349 483.343" stroke="black" stroke-opacity="0.32" stroke-width="5" stroke-linecap="round"/>
<path d="M2129.52 1142.75C2137.53 1143.16 2155.46 1150.51 2164.5 1176.43C2164.77 1177.21 2165.83 1177.38 2166.3 1176.7C2182.61 1153.6 2201.92 1130.72 2246.83 1167.89C2247.63 1168.55 2248.91 1167.72 2248.62 1166.73C2243.21 1148.19 2243.89 1115.13 2283.1 1104.09C2284.02 1103.83 2284.16 1102.55 2283.29 1102.15L2274.84 1098.32C2273.86 1097.87 2274.17 1096.5 2275.24 1096.56C2285.32 1097.16 2298.74 1099.76 2293.14 1104.87C2286.48 1110.96 2284.46 1115.12 2284.81 1122.51" stroke="black" stroke-opacity="0.32" stroke-width="5" stroke-linecap="round"/>
<g clip-path="url(#clip1_110_39)">
<path d="M1527.65 1147.17C1516.81 1178.89 1488.41 1197.42 1464.49 1189.27C1440.58 1181.11 1429.45 1149.09 1440.29 1117.37C1451.12 1085.65 1479.53 1067.12 1503.44 1075.27C1527.35 1083.43 1538.48 1115.45 1527.65 1147.17Z" stroke="black" stroke-opacity="0.32" stroke-width="5"/>
<path d="M1517.99 1143.24C1513.85 1155.37 1506.46 1165.07 1497.92 1170.97C1489.38 1176.86 1479.75 1178.92 1470.99 1175.93C1462.24 1172.95 1455.88 1165.43 1452.73 1155.55C1449.58 1145.66 1449.67 1133.48 1453.82 1121.35C1457.96 1109.22 1465.34 1099.52 1473.88 1093.63C1482.42 1087.73 1492.06 1085.67 1500.81 1088.66C1509.56 1091.65 1515.93 1099.16 1519.08 1109.05C1522.23 1118.93 1522.13 1131.12 1517.99 1143.24Z" stroke="black" stroke-opacity="0.32" stroke-width="5"/>
<path d="M1480.83 1156.73C1490.02 1159.87 1500.92 1152.35 1505.16 1139.94C1509.4 1127.53 1505.38 1114.92 1496.18 1111.79C1486.99 1108.65 1476.1 1116.17 1471.86 1128.58C1467.62 1140.99 1471.63 1153.59 1480.83 1156.73Z" fill="black" fill-opacity="0.32"/>
<path d="M1427.6 1162.58C1441.23 1204.54 1480.83 1205.38 1496.56 1191.91C1484.55 1207.31 1459.33 1206.23 1442.39 1197.73C1423.99 1187.92 1409.18 1160.42 1410.26 1143.2C1414.24 1079.83 1468.73 1062.79 1489.05 1067.16C1447.61 1065.12 1412.95 1117.49 1427.6 1162.58Z" fill="black" fill-opacity="0.32"/>
<path d="M1490.67 1129.53L1557.64 1124.18L1570.98 1123.23" stroke="black" stroke-opacity="0.32" stroke-width="5" stroke-linecap="round"/>
<path d="M1557.8 1120.94L1563.13 1113.68C1563.37 1113.36 1563.75 1113.18 1564.15 1113.2L1588.35 1114.34C1589.53 1114.4 1589.92 1115.95 1588.91 1116.56L1581.6 1120.97C1580.85 1121.43 1580.82 1122.51 1581.55 1122.99L1589.49 1128.24C1590.43 1128.86 1590.07 1130.31 1588.95 1130.42L1566.5 1132.65C1566.13 1132.68 1565.78 1132.55 1565.52 1132.29L1557.64 1124.18" stroke="black" stroke-opacity="0.32" stroke-width="5" stroke-linecap="round"/>
<path d="M1490.63 1134.24L1565.09 1145.15L1578.31 1147.05" stroke="black" stroke-opacity="0.32" stroke-width="5" stroke-linecap="round"/>
<path d="M1565.93 1142.01L1572.68 1136.05C1572.98 1135.79 1573.39 1135.69 1573.78 1135.8L1597.18 1142.07C1598.31 1142.37 1598.37 1143.97 1597.25 1144.35L1589.17 1147.11C1588.34 1147.39 1588.09 1148.44 1588.7 1149.07L1595.34 1155.89C1596.12 1156.69 1595.46 1158.03 1594.35 1157.91L1571.94 1155.3C1571.58 1155.26 1571.26 1155.06 1571.06 1154.75L1565.09 1145.15" stroke="black" stroke-opacity="0.32" stroke-width="5" stroke-linecap="round"/>
<path d="M1543.26 1153.04L1550.27 1148.82C1550.61 1148.62 1551.03 1148.6 1551.39 1148.77L1570.74 1157.84C1571.8 1158.34 1571.58 1159.91 1570.41 1160.1L1563.22 1161.21C1562.36 1161.34 1561.92 1162.32 1562.4 1163.05L1566.87 1169.79C1567.49 1170.72 1566.61 1171.91 1565.54 1171.59L1546.35 1165.85C1546 1165.74 1545.71 1165.48 1545.58 1165.13L1541.96 1155.7" stroke="black" stroke-opacity="0.32" stroke-width="5" stroke-linecap="round"/>
<path d="M1489.72 1138.48L1541.96 1155.7L1553.41 1159.48" stroke="black" stroke-opacity="0.32" stroke-width="5" stroke-linecap="round"/>
</g>
<g clip-path="url(#clip2_110_39)">
<path d="M2577 280.002C2593.39 309.239 2588.24 342.76 2566.21 355.126C2544.18 367.491 2512.9 354.417 2496.5 325.18C2480.11 295.943 2485.26 262.422 2507.29 250.056C2529.32 237.691 2560.6 250.765 2577 280.002Z" stroke="black" stroke-opacity="0.32" stroke-width="5"/>
<path d="M2567.63 284.573C2573.89 295.752 2576.19 307.723 2574.89 318.018C2573.58 328.312 2568.68 336.862 2560.62 341.389C2552.55 345.915 2542.71 345.641 2533.24 341.391C2523.78 337.142 2514.77 328.94 2508.5 317.761C2502.23 306.581 2499.93 294.611 2501.24 284.316C2502.55 274.022 2507.44 265.472 2515.51 260.945C2523.57 256.418 2533.42 256.694 2542.88 260.943C2552.34 265.192 2561.36 273.394 2567.63 284.573Z" stroke="black" stroke-opacity="0.32" stroke-width="5"/>
<path d="M2552.87 321.249C2561.35 316.494 2563.01 303.365 2556.6 291.926C2550.19 280.486 2538.12 275.067 2529.64 279.823C2521.17 284.578 2519.5 297.706 2525.92 309.146C2532.33 320.586 2544.4 326.004 2552.87 321.249Z" fill="black" fill-opacity="0.32"/>
<path d="M2521.72 364.801C2562.06 382.647 2589.11 353.71 2589.58 333.009C2593.02 352.227 2575.39 370.292 2557.76 377.235C2538.18 384.392 2507.82 377.079 2495.71 364.784C2451.17 319.537 2474.83 267.578 2491.65 255.364C2462.48 284.864 2478.36 345.621 2521.72 364.801Z" fill="black" fill-opacity="0.32"/>
<path d="M2539.18 295.767L2579.89 242.32L2588.07 231.753" stroke="black" stroke-opacity="0.32" stroke-width="5" stroke-linecap="round"/>
<path d="M2577.57 240.037L2575.73 231.224C2575.65 230.833 2575.77 230.427 2576.05 230.143L2593.05 212.883C2593.88 212.044 2595.29 212.786 2595.07 213.943L2593.48 222.336C2593.32 223.197 2594.11 223.935 2594.95 223.713L2604.16 221.303C2605.25 221.019 2606.09 222.256 2605.42 223.162L2592.1 241.372C2591.88 241.665 2591.55 241.844 2591.19 241.859L2579.89 242.32" stroke="black" stroke-opacity="0.32" stroke-width="5" stroke-linecap="round"/>
<path d="M2542.66 298.939L2600.47 250.763L2610.71 242.183" stroke="black" stroke-opacity="0.32" stroke-width="5" stroke-linecap="round"/>
<path d="M2598.69 248.04L2598.77 239.038C2598.77 238.639 2598.97 238.268 2599.31 238.05L2619.59 224.806C2620.57 224.163 2621.79 225.188 2621.33 226.272L2618 234.134C2617.66 234.94 2618.27 235.829 2619.15 235.792L2628.66 235.397C2629.78 235.351 2630.34 236.739 2629.5 237.483L2612.6 252.437C2612.33 252.677 2611.97 252.78 2611.61 252.718L2600.47 250.763" stroke="black" stroke-opacity="0.32" stroke-width="5" stroke-linecap="round"/>
<path d="M2591.78 272.29L2593.32 264.253C2593.4 263.862 2593.66 263.536 2594.02 263.381L2613.69 255.022C2614.77 254.562 2615.8 255.784 2615.16 256.771L2611.19 262.876C2610.71 263.606 2611.15 264.582 2612.01 264.708L2620.01 265.874C2621.12 266.034 2621.42 267.489 2620.47 268.071L2603.38 278.532C2603.07 278.725 2602.68 278.761 2602.34 278.63L2592.9 275.036" stroke="black" stroke-opacity="0.32" stroke-width="5" stroke-linecap="round"/>
<path d="M2545.22 302.45L2592.9 275.036L2603.35 269.026" stroke="black" stroke-opacity="0.32" stroke-width="5" stroke-linecap="round"/>
</g>
<path d="M3119.17 300.808C3116.48 303.51 3114.15 305.84 3112.55 307.445C3108.36 311.628 3103.98 309.188 3102.31 307.445L3075.65 281.764C3071.71 278.105 3068.38 274.493 3053.51 260.304C3051.98 258.78 3049.57 254.887 3052.1 251.509C3054.63 248.132 3068.85 230.401 3075.65 221.958C3077.7 218.973 3082.19 215.423 3087.9 220.733C3092.82 225.306 3109.69 241.137 3124.1 253.173" stroke="black" stroke-opacity="0.32" stroke-width="5" stroke-linecap="round"/>
<path d="M3075.37 222.872C3076.2 238.276 3081.85 263.071 3111.1 272.403" stroke="black" stroke-opacity="0.32" stroke-width="5" stroke-linecap="round"/>
<path d="M3151.55 271.972C3151.24 274.855 3151.03 277.879 3151.08 280.449L3151.55 271.972ZM3152.41 267.231C3152.11 269.01 3151.8 269.758 3151.55 271.972L3152.41 267.231ZM3164.3 289.366C3163.16 292.819 3155.75 300.196 3142.06 300.008C3128.37 299.819 3124.18 287.749 3123.74 282.13C3123.34 276.992 3125.33 267.089 3132.61 260.903C3139.95 254.671 3149.27 254.497 3157.54 260.903C3164.39 266.21 3164.39 274.326 3163.17 278.566C3162.44 281.086 3159.69 283.558 3154.61 286.572C3152.07 288.074 3151.18 284.961 3151.08 280.449L3164.3 289.366ZM3151.55 271.972C3150.21 268.565 3139.92 264.599 3136.03 271.972C3132.02 279.576 3135.09 285.982 3137.7 287.238C3141.03 288.841 3145.92 289.68 3151.08 280.449L3151.55 271.972Z" stroke="black" stroke-opacity="0.32" stroke-width="5" stroke-linecap="round"/>
<path d="M907.153 1254.51C904.456 1257.21 902.125 1259.54 900.525 1261.14C896.343 1265.33 891.957 1262.89 890.284 1261.14L863.628 1235.46C859.689 1231.81 856.359 1228.19 841.488 1214C839.961 1212.48 837.549 1208.59 840.083 1205.21C842.609 1201.83 856.83 1184.1 863.628 1175.66C865.683 1172.67 870.166 1169.12 875.876 1174.43C880.797 1179.01 897.666 1194.84 912.074 1206.87" stroke="black" stroke-opacity="0.32" stroke-width="5" stroke-linecap="round"/>
<path d="M863.344 1176.57C864.18 1191.98 869.833 1216.77 899.08 1226.1" stroke="black" stroke-opacity="0.32" stroke-width="5" stroke-linecap="round"/>
<path d="M939.533 1225.67C939.216 1228.56 939.013 1231.58 939.062 1234.15L939.533 1225.67ZM940.386 1220.93C940.085 1222.71 939.777 1223.46 939.533 1225.67L940.386 1220.93ZM952.276 1243.07C951.139 1246.52 943.724 1253.9 930.039 1253.71C916.346 1253.52 912.155 1241.45 911.716 1235.83C911.318 1230.69 913.308 1220.79 920.593 1214.6C927.927 1208.37 937.251 1208.2 945.519 1214.6C952.374 1219.91 952.366 1228.03 951.147 1232.27C950.416 1234.79 947.671 1237.26 942.587 1240.27C940.053 1241.77 939.16 1238.66 939.062 1234.15L952.276 1243.07ZM939.533 1225.67C938.193 1222.27 927.903 1218.3 924.012 1225.67C920 1233.28 923.07 1239.68 925.677 1240.94C929.007 1242.54 933.897 1243.38 939.062 1234.15L939.533 1225.67Z" stroke="black" stroke-opacity="0.32" stroke-width="5" stroke-linecap="round"/>
<path d="M510.047 881.47C507.127 870.201 497.431 849.417 482.013 856.442C466.594 863.468 475.588 876.054 482.013 881.47C486.336 884.397 495.631 887.529 498.22 876.64C500.809 865.751 489.897 861.272 486.831 866.103C485.214 868.005 483.387 872.776 489.021 876.64" stroke="black" stroke-opacity="0.32" stroke-width="5" stroke-linecap="round"/>
<path d="M1694.91 113.597C1700.19 116.075 1706.48 113.807 1708.95 108.53C1711.43 103.253 1709.16 96.9663 1703.89 94.4878C1698.61 92.0093 1692.32 94.2774 1689.84 99.5544C1687.36 104.831 1689.63 111.118 1694.91 113.597Z" stroke="black" stroke-opacity="0.32" stroke-width="5"/>
<path d="M2167.48 1345.66C2173.31 1345.55 2177.95 1340.74 2177.84 1334.91C2177.73 1329.08 2172.92 1324.44 2167.09 1324.55C2161.26 1324.65 2156.62 1329.47 2156.73 1335.29C2156.83 1341.12 2161.65 1345.76 2167.48 1345.66Z" stroke="black" stroke-opacity="0.32" stroke-width="5"/>
<path d="M1717.67 113.809C1737.88 120.878 1767.02 137.427 1763.59 154.013C1760.16 170.599 1743.95 169.64 1736.27 167.088C1706.52 158.485 1670.78 139.175 1681.84 115.624" stroke="black" stroke-opacity="0.32" stroke-width="5" stroke-linecap="round"/>
<path d="M2187.99 1335.8C2209.24 1333.22 2242.7 1335.2 2246.95 1351.59C2251.2 1367.98 2236.23 1374.28 2228.22 1375.38C2197.72 1380.8 2157.13 1379.26 2156.65 1353.24" stroke="black" stroke-opacity="0.32" stroke-width="5" stroke-linecap="round"/>
<path d="M1700.11 133.084C1701.33 133.656 1702.78 133.133 1703.35 131.915C1703.92 130.697 1703.4 129.246 1702.18 128.674C1700.96 128.102 1699.51 128.626 1698.94 129.844C1698.37 131.061 1698.89 132.512 1700.11 133.084Z" stroke="black" stroke-opacity="0.32" stroke-width="5"/>
<path d="M2180.75 1360.84C2182.1 1360.82 2183.17 1359.71 2183.14 1358.36C2183.12 1357.02 2182.01 1355.95 2180.66 1355.97C2179.32 1356 2178.25 1357.11 2178.27 1358.45C2178.3 1359.8 2179.41 1360.87 2180.75 1360.84Z" stroke="black" stroke-opacity="0.32" stroke-width="5"/>
<path d="M1722.46 140.89C1721.96 141.961 1720.43 142.627 1718.86 141.887C1717.28 141.147 1716.82 139.545 1717.32 138.474C1717.82 137.403 1719.35 136.738 1720.93 137.477C1722.5 138.217 1722.97 139.819 1722.46 140.89Z" stroke="black" stroke-opacity="0.32" stroke-width="5"/>
<path d="M2204.26 1357.98C2204.28 1359.16 2203.2 1360.43 2201.46 1360.46C2199.72 1360.5 2198.59 1359.26 2198.57 1358.08C2198.55 1356.9 2199.63 1355.62 2201.37 1355.59C2203.11 1355.56 2204.23 1356.79 2204.26 1357.98Z" stroke="black" stroke-opacity="0.32" stroke-width="5"/>
<path d="M1737.6 150.69C1738.82 151.262 1740.27 150.739 1740.84 149.521C1741.41 148.303 1740.89 146.852 1739.67 146.28C1738.46 145.709 1737 146.232 1736.43 147.449C1735.86 148.667 1736.38 150.118 1737.6 150.69Z" stroke="black" stroke-opacity="0.32" stroke-width="5"/>
<path d="M2222.17 1360.08C2223.51 1360.06 2224.58 1358.95 2224.56 1357.6C2224.53 1356.26 2223.42 1355.19 2222.08 1355.21C2220.73 1355.24 2219.66 1356.35 2219.69 1357.69C2219.71 1359.04 2220.82 1360.11 2222.17 1360.08Z" stroke="black" stroke-opacity="0.32" stroke-width="5"/>
<path d="M191.272 675.529C191.228 675.398 191.243 675.321 191.26 675.274C191.282 675.211 191.332 675.136 191.416 675.074C191.501 675.012 191.587 674.987 191.654 674.985C191.705 674.982 191.782 674.991 191.894 675.071L208.46 686.96C210.031 688.088 212.151 688.076 213.711 686.93L230.139 674.852C230.251 674.771 230.327 674.761 230.378 674.763C230.445 674.764 230.532 674.789 230.617 674.85C230.701 674.911 230.753 674.985 230.775 675.048C230.793 675.096 230.809 675.171 230.766 675.303L224.577 694.728C223.989 696.571 224.655 698.583 226.228 699.711L227.412 698.062L226.228 699.711L242.793 711.6C242.905 711.681 242.938 711.751 242.953 711.799C242.972 711.863 242.975 711.954 242.943 712.053C242.912 712.152 242.856 712.224 242.804 712.265C242.764 712.297 242.697 712.335 242.559 712.336L222.167 712.453C220.232 712.463 218.524 713.72 217.936 715.563L211.747 734.988C211.705 735.12 211.648 735.172 211.606 735.201C211.551 735.239 211.467 735.27 211.362 735.271C211.257 735.271 211.173 735.241 211.117 735.204C211.075 735.176 211.017 735.123 210.974 734.992L204.561 715.639C203.953 713.802 202.231 712.567 200.296 712.578L179.905 712.695C179.767 712.696 179.698 712.658 179.658 712.627C179.605 712.586 179.55 712.515 179.516 712.416C179.484 712.317 179.486 712.227 179.504 712.163C179.519 712.114 179.55 712.043 179.662 711.962L196.09 699.884C197.649 698.738 198.292 696.718 197.684 694.881L191.272 675.529Z" stroke="black" stroke-opacity="0.32" stroke-width="5"/>
<path d="M3480.59 1295.08C3480.54 1294.95 3480.56 1294.87 3480.57 1294.82C3480.6 1294.76 3480.65 1294.68 3480.73 1294.62C3480.82 1294.56 3480.9 1294.53 3480.97 1294.53C3481.02 1294.53 3481.1 1294.54 3481.21 1294.62L3497.77 1306.51C3499.35 1307.64 3501.47 1307.62 3503.03 1306.48L3519.45 1294.4C3519.56 1294.32 3519.64 1294.31 3519.69 1294.31C3519.76 1294.31 3519.85 1294.34 3519.93 1294.4C3520.02 1294.46 3520.07 1294.53 3520.09 1294.6C3520.11 1294.64 3520.12 1294.72 3520.08 1294.85L3513.89 1314.28C3513.3 1316.12 3513.97 1318.13 3515.54 1319.26L3516.73 1317.61L3515.54 1319.26L3532.11 1331.15C3532.22 1331.23 3532.25 1331.3 3532.27 1331.35C3532.29 1331.41 3532.29 1331.5 3532.26 1331.6C3532.23 1331.7 3532.17 1331.77 3532.12 1331.81C3532.08 1331.84 3532.01 1331.88 3531.87 1331.88L3511.48 1332C3509.55 1332.01 3507.84 1333.27 3507.25 1335.11L3501.06 1354.54C3501.02 1354.67 3500.96 1354.72 3500.92 1354.75C3500.87 1354.79 3500.78 1354.82 3500.68 1354.82C3500.57 1354.82 3500.49 1354.79 3500.43 1354.75C3500.39 1354.72 3500.33 1354.67 3500.29 1354.54L3493.88 1335.19C3493.27 1333.35 3491.55 1332.11 3489.61 1332.13L3469.22 1332.24C3469.08 1332.24 3469.01 1332.21 3468.97 1332.17C3468.92 1332.13 3468.86 1332.06 3468.83 1331.96C3468.8 1331.87 3468.8 1331.78 3468.82 1331.71C3468.83 1331.66 3468.86 1331.59 3468.98 1331.51L3485.4 1319.43C3486.96 1318.29 3487.61 1316.27 3487 1314.43L3480.59 1295.08Z" stroke="black" stroke-opacity="0.32" stroke-width="5"/>
<path d="M3715.3 519.627C3715.26 519.496 3715.28 519.42 3715.29 519.372C3715.32 519.309 3715.37 519.234 3715.45 519.172C3715.53 519.11 3715.62 519.085 3715.69 519.083C3715.74 519.08 3715.82 519.089 3715.93 519.17L3732.49 531.058C3734.06 532.187 3736.18 532.174 3737.74 531.028L3754.17 518.95C3754.28 518.869 3754.36 518.859 3754.41 518.861C3754.48 518.863 3754.56 518.887 3754.65 518.948C3754.73 519.009 3754.79 519.083 3754.81 519.146C3754.83 519.194 3754.84 519.269 3754.8 519.401L3748.61 538.826C3748.02 540.669 3748.69 542.682 3750.26 543.809L3751.45 542.16L3750.26 543.809L3766.83 555.699C3766.94 555.779 3766.97 555.849 3766.99 555.897C3767 555.962 3767.01 556.052 3766.98 556.152C3766.94 556.251 3766.89 556.322 3766.84 556.364C3766.8 556.395 3766.73 556.433 3766.59 556.434L3746.2 556.551C3744.27 556.562 3742.56 557.818 3741.97 559.661L3735.78 579.086C3735.74 579.218 3735.68 579.271 3735.64 579.299C3735.58 579.337 3735.5 579.368 3735.39 579.369C3735.29 579.37 3735.21 579.339 3735.15 579.302C3735.11 579.274 3735.05 579.221 3735.01 579.09L3728.59 559.737C3727.99 557.901 3726.26 556.665 3724.33 556.676L3703.94 556.793C3703.8 556.794 3703.73 556.756 3703.69 556.725C3703.64 556.684 3703.58 556.614 3703.55 556.515C3703.52 556.416 3703.52 556.325 3703.54 556.261C3703.55 556.212 3703.58 556.141 3703.69 556.06L3720.12 543.982C3721.68 542.836 3722.33 540.816 3721.72 538.98L3715.3 519.627Z" stroke="black" stroke-opacity="0.32" stroke-width="5"/>
</g>
<defs>
<clipPath id="clip0_110_39">
<rect width="3922" height="1490" fill="white"/>
</clipPath>
<clipPath id="clip1_110_39">
<rect width="184.241" height="145.512" fill="white" transform="translate(1455.46 1040) rotate(28.0629)"/>
</clipPath>
<clipPath id="clip2_110_39">
<rect width="184.241" height="145.512" fill="white" transform="translate(2449 262.259) rotate(-20.0809)"/>
</clipPath>
</defs>
</svg>
