<svg width="27" height="20" viewBox="0 0 27 20" fill="none" xmlns="http://www.w3.org/2000/svg">
<path fill-rule="evenodd" clip-rule="evenodd" d="M25.541 3.82833C25.2497 2.70923 24.3914 1.82798 23.3014 1.5289C21.3262 0.985352 13.4051 0.985352 13.4051 0.985352C13.4051 0.985352 5.48401 0.985352 3.50866 1.5289C2.41873 1.82798 1.56037 2.70923 1.26907 3.82833C0.739861 5.85657 0.739861 10.0885 0.739861 10.0885C0.739861 10.0885 0.739861 14.3203 1.26907 16.3487C1.56037 17.4678 2.41873 18.349 3.50866 18.6483C5.48401 19.1917 13.4051 19.1917 13.4051 19.1917C13.4051 19.1917 21.3262 19.1917 23.3014 18.6483C24.3914 18.349 25.2497 17.4678 25.541 16.3487C26.0704 14.3203 26.0704 10.0885 26.0704 10.0885C26.0704 10.0885 26.0704 5.85657 25.541 3.82833" fill="#232526"/>
<path fill-rule="evenodd" clip-rule="evenodd" d="M11.0304 14.4422V6.52637L17.363 10.4844L11.0304 14.4422Z" fill="white"/>
</svg>
